<svg xmlns="http://www.w3.org/2000/svg" xmlns:xlink="http://www.w3.org/1999/xlink" width="80" viewBox="0 0 60 60" height="80" preserveAspectRatio="xMidYMid meet"><defs><clipPath id="10ca6c65cb"><path d="M 16 2 L 44.226562 2 L 44.226562 58 L 16 58 Z M 16 2 " clip-rule="nonzero"></path></clipPath></defs><g clip-path="url(#10ca6c65cb)"><path fill="#c89a69" d="M 37.820312 32.746094 C 37.617188 31.996094 37.710938 31.285156 38.101562 30.613281 L 38.1875 30.464844 C 38.289062 30.289062 38.417969 30.144531 38.578125 30.019531 C 38.738281 29.898438 38.914062 29.8125 39.105469 29.761719 C 39.300781 29.707031 39.496094 29.695312 39.695312 29.722656 C 39.894531 29.746094 40.082031 29.808594 40.253906 29.910156 L 42.5 31.207031 C 42.675781 31.308594 42.820312 31.4375 42.945312 31.597656 C 43.066406 31.757812 43.152344 31.933594 43.203125 32.125 C 43.253906 32.320312 43.269531 32.515625 43.242188 32.714844 C 43.214844 32.914062 43.152344 33.101562 43.054688 33.273438 L 42.96875 33.421875 C 42.683594 33.914062 42.285156 34.285156 41.777344 34.539062 C 41.265625 34.789062 40.730469 34.878906 40.167969 34.804688 C 39.605469 34.730469 39.109375 34.503906 38.683594 34.128906 C 38.253906 33.753906 37.96875 33.292969 37.820312 32.746094 Z M 25.925781 26.886719 C 25.84375 26.632812 25.734375 26.386719 25.601562 26.152344 C 25.46875 25.917969 25.316406 25.699219 25.140625 25.496094 C 24.964844 25.292969 24.769531 25.109375 24.558594 24.945312 C 24.34375 24.777344 24.121094 24.636719 23.878906 24.515625 C 23.640625 24.394531 23.390625 24.296875 23.128906 24.226562 C 22.871094 24.15625 22.609375 24.109375 22.339844 24.089844 C 22.070312 24.070312 21.804688 24.078125 21.535156 24.109375 C 21.269531 24.144531 21.007812 24.203125 20.753906 24.289062 C 20.5 24.371094 20.253906 24.480469 20.019531 24.613281 C 19.785156 24.746094 19.570312 24.902344 19.363281 25.078125 C 19.160156 25.253906 18.976562 25.445312 18.8125 25.660156 C 18.648438 25.871094 18.503906 26.097656 18.382812 26.335938 C 18.261719 26.578125 18.167969 26.828125 18.097656 27.085938 C 18.023438 27.34375 17.980469 27.609375 17.960938 27.875 C 17.941406 28.144531 17.949219 28.414062 17.980469 28.679688 C 18.015625 28.945312 18.074219 29.207031 18.15625 29.460938 L 18.546875 30.625 C 19.09375 32.285156 19.800781 33.875 20.675781 35.390625 L 28.195312 32.019531 C 27.40625 30.773438 26.777344 29.453125 26.3125 28.058594 Z M 25.605469 12.492188 L 24.886719 11.25 C 24.746094 11.011719 24.554688 10.820312 24.3125 10.679688 C 24.070312 10.539062 23.8125 10.46875 23.53125 10.46875 C 23.140625 10.457031 22.859375 10.621094 22.679688 10.96875 C 22.511719 11.257812 22.441406 11.574219 22.46875 11.910156 C 22.496094 12.246094 22.617188 12.542969 22.828125 12.804688 C 23.261719 13.136719 23.578125 13.558594 23.78125 14.0625 C 23.988281 14.566406 24.050781 15.089844 23.972656 15.628906 L 23.972656 16.039062 C 23.972656 16.082031 23.96875 16.125 23.960938 16.164062 C 23.742188 17.339844 23.320312 18.4375 22.695312 19.453125 C 22.070312 20.472656 21.285156 21.347656 20.339844 22.074219 C 21.535156 21.457031 22.804688 21.148438 24.148438 21.148438 L 26.222656 21.148438 L 25.851562 18.78125 C 25.835938 18.679688 25.839844 18.578125 25.867188 18.480469 C 25.894531 18.378906 25.941406 18.292969 26.007812 18.210938 C 26.074219 18.132812 26.152344 18.070312 26.246094 18.023438 C 26.335938 17.976562 26.433594 17.953125 26.539062 17.949219 C 29.875 17.824219 32.078125 17.742188 32.605469 14.007812 C 32.574219 13.792969 32.515625 13.585938 32.433594 13.386719 C 32.269531 12.992188 32.179688 12.578125 32.167969 12.148438 L 32.195312 11.449219 C 32.253906 10.570312 32.25 9.691406 32.179688 8.8125 C 28.472656 11.980469 26.582031 12.769531 26.5 12.800781 C 26.332031 12.871094 26.164062 12.875 25.992188 12.816406 C 25.824219 12.757812 25.695312 12.648438 25.605469 12.492188 Z M 41.964844 36.011719 C 41.5 36.183594 41.023438 36.269531 40.527344 36.269531 C 40.210938 36.273438 39.898438 36.238281 39.589844 36.171875 C 39.28125 36.101562 38.984375 36 38.699219 35.867188 C 38.414062 35.730469 38.148438 35.566406 37.898438 35.371094 C 37.652344 35.175781 37.429688 34.953125 37.230469 34.710938 C 37.03125 34.464844 36.863281 34.199219 36.722656 33.917969 C 36.582031 33.632812 36.476562 33.335938 36.402344 33.03125 C 36.332031 32.722656 36.292969 32.410156 36.289062 32.097656 C 36.285156 31.78125 36.320312 31.46875 36.386719 31.160156 C 36.007812 30.984375 35.628906 30.816406 35.238281 30.679688 C 34.894531 30.550781 34.578125 30.429688 31.746094 24.433594 C 31.480469 23.871094 31.082031 23.425781 30.558594 23.09375 C 30.03125 22.761719 29.460938 22.59375 28.839844 22.59375 L 24.148438 22.59375 C 23.734375 22.59375 23.324219 22.632812 22.917969 22.707031 C 23.417969 22.789062 23.898438 22.933594 24.359375 23.148438 C 24.820312 23.359375 25.242188 23.628906 25.628906 23.957031 C 26.015625 24.285156 26.351562 24.660156 26.632812 25.082031 C 26.917969 25.5 27.140625 25.953125 27.296875 26.433594 L 27.683594 27.601562 C 28.199219 29.144531 28.925781 30.582031 29.863281 31.910156 C 29.925781 32 29.964844 32.097656 29.984375 32.203125 C 30 32.308594 29.996094 32.414062 29.96875 32.519531 C 29.941406 32.625 29.890625 32.714844 29.820312 32.796875 C 29.75 32.878906 29.664062 32.941406 29.566406 32.988281 L 28.347656 33.535156 C 29.332031 35.035156 30.558594 36.300781 32.027344 37.332031 C 33.496094 38.363281 35.105469 39.082031 36.855469 39.492188 C 37.164062 39.542969 37.476562 39.554688 37.789062 39.527344 C 38.417969 39.507812 39.027344 39.609375 39.617188 39.839844 C 40.203125 40.066406 40.726562 40.398438 41.179688 40.835938 L 41.445312 41.09375 C 41.832031 41.472656 42.101562 41.925781 42.253906 42.449219 C 42.402344 42.972656 42.410156 43.5 42.28125 44.03125 L 42.027344 45.035156 C 41.878906 45.644531 41.566406 46.160156 41.097656 46.578125 C 40.628906 46.996094 40.085938 47.246094 39.460938 47.324219 L 38.851562 47.40625 C 37.386719 47.601562 36.046875 47.273438 34.835938 46.429688 C 33.464844 46.085938 32.144531 45.605469 30.871094 44.996094 C 29.59375 44.382812 28.394531 43.652344 27.265625 42.800781 C 26.140625 41.949219 25.109375 40.992188 24.171875 39.933594 C 23.238281 38.875 22.417969 37.734375 21.710938 36.511719 L 20.675781 36.972656 C 20.511719 37.046875 20.339844 37.058594 20.167969 37.003906 C 19.992188 36.949219 19.859375 36.847656 19.765625 36.691406 C 18.914062 35.292969 18.199219 33.828125 17.613281 32.296875 L 18.191406 36.597656 C 18.648438 40.007812 18.257812 43.320312 17.023438 46.535156 C 16.425781 48.089844 16.09375 49.703125 16.027344 51.371094 C 15.960938 53.039062 16.164062 54.671875 16.636719 56.269531 L 17.023438 57.585938 C 17.042969 57.640625 17.078125 57.667969 17.136719 57.667969 L 37.339844 57.667969 C 37.417969 57.667969 37.457031 57.628906 37.457031 57.550781 L 37.457031 56.492188 C 37.453125 56.054688 37.550781 55.640625 37.746094 55.25 C 37.941406 54.859375 38.214844 54.53125 38.566406 54.273438 C 39.429688 53.648438 40.207031 52.929688 40.898438 52.121094 C 41.59375 51.3125 42.183594 50.433594 42.667969 49.484375 C 43.152344 48.535156 43.519531 47.542969 43.769531 46.507812 C 44.023438 45.472656 44.148438 44.421875 44.152344 43.355469 C 44.152344 40.691406 43.425781 38.242188 41.964844 36.011719 Z M 22.527344 15.972656 L 22.527344 15.566406 C 22.527344 15.523438 22.53125 15.480469 22.539062 15.441406 C 22.652344 14.804688 22.492188 14.535156 21.789062 13.808594 C 21.578125 13.578125 21.410156 13.320312 21.28125 13.039062 C 21.152344 12.757812 21.066406 12.460938 21.03125 12.152344 C 20.992188 11.84375 21.003906 11.535156 21.058594 11.230469 C 21.117188 10.925781 21.222656 10.632812 21.371094 10.359375 C 21.570312 9.949219 21.863281 9.621094 22.253906 9.378906 C 22.644531 9.136719 23.070312 9.019531 23.53125 9.023438 L 23.535156 9.023438 C 24.070312 9.027344 24.574219 9.160156 25.035156 9.429688 C 25.5 9.699219 25.867188 10.066406 26.136719 10.53125 L 26.511719 11.179688 C 28.253906 10.148438 29.875 8.957031 31.382812 7.605469 L 31.914062 7.011719 C 32 6.917969 32.015625 6.8125 31.960938 6.699219 L 31.660156 6.050781 C 31.28125 5.429688 30.828125 4.875 30.296875 4.382812 C 29.765625 3.886719 29.175781 3.476562 28.527344 3.148438 C 27.882812 2.824219 27.203125 2.589844 26.488281 2.453125 C 25.777344 2.3125 25.0625 2.277344 24.339844 2.339844 C 23.617188 2.402344 22.917969 2.5625 22.238281 2.824219 C 21.5625 3.082031 20.933594 3.429688 20.351562 3.863281 C 19.773438 4.300781 19.261719 4.804688 18.824219 5.382812 C 18.386719 5.960938 18.035156 6.585938 17.773438 7.261719 C 17.503906 8.230469 17.34375 9.214844 17.289062 10.214844 L 16.582031 23.148438 L 18.898438 21.390625 C 19.835938 20.761719 20.621094 19.980469 21.25 19.039062 C 21.878906 18.101562 22.304688 17.078125 22.527344 15.972656 Z M 35.339844 45.070312 C 35.425781 45.09375 35.503906 45.132812 35.578125 45.183594 C 36.5 45.863281 37.527344 46.125 38.664062 45.972656 L 39.273438 45.894531 C 39.601562 45.851562 39.890625 45.71875 40.136719 45.5 C 40.382812 45.277344 40.546875 45.007812 40.625 44.683594 L 40.878906 43.679688 C 40.949219 43.398438 40.941406 43.121094 40.863281 42.847656 C 40.785156 42.570312 40.644531 42.332031 40.4375 42.128906 L 40.171875 41.871094 C 39.523438 41.238281 38.746094 40.9375 37.835938 40.972656 C 37.378906 41.011719 36.925781 40.984375 36.476562 40.886719 C 34.515625 40.425781 32.71875 39.613281 31.078125 38.441406 C 29.441406 37.273438 28.085938 35.835938 27.015625 34.132812 L 23.039062 35.914062 C 23.707031 37.046875 24.484375 38.105469 25.363281 39.085938 C 26.242188 40.066406 27.210938 40.949219 28.265625 41.734375 C 29.320312 42.519531 30.445312 43.195312 31.636719 43.753906 C 32.828125 44.316406 34.0625 44.753906 35.339844 45.070312 Z M 35.339844 45.070312 " fill-opacity="1" fill-rule="nonzero"></path></g></svg>