<svg xmlns="http://www.w3.org/2000/svg" xmlns:xlink="http://www.w3.org/1999/xlink" width="80" viewBox="0 0 60 60" height="80" preserveAspectRatio="xMidYMid meet"><defs><clipPath id="9435ed5ff2"><path d="M 7.40625 1.976562 L 52.40625 1.976562 L 52.40625 57.476562 L 7.40625 57.476562 Z M 7.40625 1.976562 " clip-rule="nonzero"></path></clipPath></defs><g clip-path="url(#9435ed5ff2)"><path fill="#c89a69" d="M 31.945312 5.421875 C 31.722656 5.550781 31.472656 5.621094 31.222656 5.621094 C 30.984375 5.621094 30.75 5.554688 30.542969 5.402344 C 30.203125 5.152344 30.03125 4.617188 30.621094 4.648438 C 30.851562 4.664062 31.089844 4.710938 31.292969 4.828125 C 31.558594 4.976562 31.777344 5.183594 31.945312 5.421875 Z M 8.054688 51.964844 L 8.816406 52.140625 C 8.78125 52.9375 9.074219 53.710938 9.515625 54.277344 C 9.972656 54.863281 11.390625 55.582031 11.746094 56.054688 C 12.472656 57.027344 13.390625 57.75 14.316406 57.699219 C 14.789062 57.71875 15.265625 57.550781 15.722656 57.121094 C 15.902344 56.949219 16.148438 56.632812 16.144531 56.085938 C 19.980469 56.050781 23.753906 57.472656 28.496094 54.851562 L 29.855469 54.847656 L 31.269531 54.851562 C 36.011719 57.472656 39.785156 56.050781 43.621094 56.085938 C 43.617188 56.632812 43.867188 56.949219 44.046875 57.121094 C 44.503906 57.550781 44.980469 57.71875 45.453125 57.699219 C 46.375 57.75 47.292969 57.027344 48.023438 56.054688 C 48.378906 55.582031 49.792969 54.863281 50.25 54.277344 C 50.691406 53.710938 50.984375 52.9375 50.953125 52.140625 L 51.710938 51.964844 C 52.109375 51.890625 52.371094 51.511719 52.296875 51.117188 C 52.226562 50.742188 51.871094 50.492188 51.492188 50.535156 L 51.488281 50.535156 C 51.835938 50.296875 51.925781 49.824219 51.6875 49.476562 C 51.523438 49.238281 51.246094 49.128906 50.976562 49.160156 C 50.878906 49.148438 50.777344 49.15625 50.679688 49.183594 C 50.757812 48.882812 50.664062 48.554688 50.414062 48.34375 C 50.234375 48.199219 50.015625 48.140625 49.804688 48.164062 C 49.636719 48.144531 49.464844 48.183594 49.3125 48.269531 C 49.277344 47.957031 49.070312 47.679688 48.757812 47.578125 C 48.644531 47.539062 48.53125 47.53125 48.421875 47.542969 C 48.136719 47.507812 47.863281 47.632812 47.6875 47.855469 C 47.585938 47.386719 47.164062 47.046875 46.675781 47.070312 L 46.640625 47.074219 C 46.59375 47.070312 46.550781 47.070312 46.503906 47.070312 C 45.960938 47.097656 45.339844 47.574219 45.441406 48.253906 C 45.511719 48.730469 45.738281 49.101562 45.980469 49.378906 C 45.917969 49.410156 45.855469 49.449219 45.792969 49.484375 C 45.613281 49.589844 45.449219 49.742188 45.304688 49.933594 C 42.363281 47.867188 39.589844 47.683594 39.414062 47.675781 C 39.535156 46.496094 38.875 44.894531 38.277344 42.429688 C 37.5 39.238281 37.371094 40.386719 37.320312 39.277344 C 37.398438 39.34375 37.929688 39.121094 38.648438 38.792969 C 40.179688 38.203125 41.96875 37.101562 42.742188 36.53125 C 43.84375 35.710938 45.648438 34.332031 45.667969 32.769531 C 45.671875 32.574219 45.804688 32.746094 46.085938 32.691406 C 47.113281 32.703125 48.125 31.90625 48.769531 31.183594 C 49.359375 30.519531 50.347656 29.269531 49.929688 28.296875 C 49.644531 27.632812 48.136719 25.761719 47.222656 26.242188 C 46.308594 26.71875 45.863281 27.894531 45.480469 28.796875 C 45.394531 29.003906 45.105469 28.941406 45.074219 28.738281 C 45.140625 28 44.375 27.402344 43.945312 28.214844 C 43.675781 28.726562 43.847656 29.324219 44.015625 29.839844 C 44.128906 30.191406 44.242188 30.539062 44.367188 30.886719 C 44.382812 30.9375 44.402344 31.261719 44.261719 31.3125 C 43.046875 31.71875 41.613281 32.214844 40.148438 32.675781 C 39.054688 32.679688 37.542969 32.859375 36.46875 32.394531 C 35.339844 31.910156 34.875 31.8125 34.875 31.8125 L 34.875 31.199219 C 38.894531 30.304688 41.703125 28.34375 41.875 25.972656 C 43.335938 25.84375 45.078125 24.320312 44.84375 22.839844 C 44.722656 22.082031 44.425781 21.375 43.730469 20.960938 C 43.339844 20.730469 42.960938 20.628906 42.609375 20.628906 C 42.378906 20.628906 42.15625 20.671875 41.949219 20.753906 C 42.085938 19.792969 42.113281 18.796875 42.144531 17.90625 C 42.3125 12.773438 38.328125 8.335938 32.820312 7.015625 C 32.96875 6.507812 32.914062 5.957031 32.707031 5.464844 C 33.285156 4.71875 33.3125 3.746094 32.808594 2.972656 C 32.527344 2.539062 32.140625 2.316406 31.777344 1.976562 C 32.1875 2.359375 32.453125 2.664062 32.558594 3.261719 C 32.652344 3.78125 32.792969 4.511719 32.4375 4.960938 C 31.84375 4.289062 31.109375 3.789062 30.164062 4.066406 C 29.207031 4.351562 29.492188 5.539062 30.222656 5.910156 C 30.816406 6.214844 31.601562 6.265625 32.195312 5.925781 C 32.292969 6.234375 32.308594 6.566406 32.222656 6.882812 C 31.488281 6.742188 30.734375 6.648438 29.957031 6.621094 C 29.808594 6.617188 29.65625 6.613281 29.507812 6.613281 C 22.765625 6.613281 17.230469 11.21875 17.039062 17.082031 C 17 18.21875 16.953125 19.527344 17.132812 20.722656 C 16.949219 20.664062 16.753906 20.628906 16.554688 20.628906 C 16.199219 20.628906 15.824219 20.730469 15.433594 20.960938 C 14.738281 21.375 14.441406 22.082031 14.320312 22.839844 C 14.105469 24.179688 15.515625 25.558594 16.871094 25.898438 C 17.433594 28.195312 20.453125 30.179688 24.589844 31.128906 L 24.597656 31.132812 C 24.671875 31.207031 24.761719 31.277344 24.855469 31.351562 L 24.855469 31.832031 L 24.832031 31.8125 C 24.832031 31.8125 24.367188 31.910156 23.238281 32.394531 C 22.160156 32.859375 20.640625 32.675781 19.542969 32.675781 C 18.082031 32.214844 16.652344 31.71875 15.445312 31.316406 C 15.304688 31.269531 15.320312 30.941406 15.339844 30.890625 C 15.460938 30.542969 15.578125 30.195312 15.691406 29.84375 C 15.855469 29.328125 16.03125 28.730469 15.761719 28.222656 C 15.332031 27.40625 14.566406 28.003906 14.632812 28.742188 C 14.601562 28.945312 14.308594 29.007812 14.222656 28.800781 C 13.84375 27.898438 13.398438 26.722656 12.484375 26.242188 C 11.566406 25.765625 10.058594 27.636719 9.773438 28.300781 C 9.359375 29.273438 10.347656 30.523438 10.9375 31.1875 C 11.582031 31.910156 12.59375 32.707031 13.621094 32.695312 C 13.902344 32.75 14.035156 32.578125 14.035156 32.773438 C 14.058594 34.332031 15.863281 35.714844 16.964844 36.53125 C 17.695312 37.074219 19.332031 38.089844 20.800781 38.695312 C 21.65625 39.078125 22.355469 39.355469 22.382812 39.347656 C 22.335938 40.457031 22.207031 39.238281 21.429688 42.429688 C 20.832031 44.894531 20.167969 46.5 20.292969 47.679688 C 19.847656 47.710938 17.230469 47.988281 14.464844 49.933594 C 14.316406 49.742188 14.152344 49.589844 13.972656 49.484375 C 13.910156 49.449219 13.851562 49.410156 13.789062 49.378906 C 14.03125 49.101562 14.253906 48.730469 14.328125 48.253906 C 14.429688 47.574219 13.808594 47.097656 13.261719 47.070312 C 13.21875 47.070312 13.171875 47.070312 13.128906 47.074219 L 13.089844 47.070312 C 12.601562 47.046875 12.179688 47.386719 12.082031 47.851562 C 11.90625 47.632812 11.628906 47.507812 11.347656 47.542969 C 11.234375 47.53125 11.121094 47.539062 11.011719 47.578125 C 10.695312 47.679688 10.488281 47.957031 10.453125 48.269531 C 10.304688 48.183594 10.132812 48.144531 9.960938 48.164062 C 9.75 48.140625 9.53125 48.199219 9.355469 48.34375 C 9.101562 48.554688 9.011719 48.882812 9.089844 49.183594 C 8.992188 49.15625 8.890625 49.148438 8.789062 49.160156 C 8.519531 49.128906 8.246094 49.238281 8.082031 49.476562 C 7.84375 49.824219 7.933594 50.296875 8.28125 50.535156 L 8.273438 50.535156 C 7.894531 50.492188 7.542969 50.742188 7.472656 51.117188 C 7.398438 51.511719 7.660156 51.890625 8.054688 51.964844 " fill-opacity="1" fill-rule="nonzero"></path></g></svg>