<svg xmlns="http://www.w3.org/2000/svg" xmlns:xlink="http://www.w3.org/1999/xlink" width="80" viewBox="0 0 60 60" height="80" preserveAspectRatio="xMidYMid meet"><defs><clipPath id="a731ff4e70"><path d="M 7.332031 1.578125 L 49 1.578125 L 49 57 L 7.332031 57 Z M 7.332031 1.578125 " clip-rule="nonzero"></path></clipPath><clipPath id="84d44b506a"><path d="M 42.074219 40.757812 L 52.046875 40.757812 L 52.046875 57.738281 L 42.074219 57.738281 Z M 42.074219 40.757812 " clip-rule="nonzero"></path></clipPath></defs><g clip-path="url(#a731ff4e70)"><path fill="#c89a69" d="M 43.191406 30.886719 C 44.078125 31.933594 45.023438 32.816406 46.007812 33.519531 L 46.09375 33.582031 C 46.5 33.871094 46.769531 34.082031 46.839844 34.378906 C 46.921875 34.738281 46.648438 35.175781 46.117188 35.984375 C 46.042969 36.097656 45.964844 36.21875 45.882812 36.34375 C 45.378906 37.125 44.898438 37.949219 44.453125 38.800781 C 43.84375 37.855469 43.195312 36.515625 42.953125 34.832031 C 42.734375 33.304688 42.902344 31.960938 43.191406 30.886719 Z M 45.367188 40.773438 C 45.949219 39.542969 46.601562 38.363281 47.308594 37.265625 C 47.386719 37.144531 47.464844 37.027344 47.539062 36.917969 C 48.1875 35.929688 48.746094 35.078125 48.492188 33.992188 C 48.269531 33.046875 47.550781 32.535156 47.074219 32.195312 L 46.996094 32.140625 C 45.882812 31.339844 44.816406 30.269531 43.828125 28.960938 C 43.808594 28.910156 43.785156 28.863281 43.753906 28.816406 C 41.347656 25.152344 38.535156 21.71875 35.816406 18.398438 C 31.699219 13.371094 27.445312 8.171875 24.628906 2.179688 C 24.429688 1.753906 23.925781 1.570312 23.5 1.769531 C 23.078125 1.96875 22.894531 2.476562 23.09375 2.898438 C 25.996094 9.085938 30.320312 14.367188 34.503906 19.476562 C 37.054688 22.59375 39.683594 25.8125 41.960938 29.199219 C 41.417969 30.585938 40.921875 32.628906 41.273438 35.074219 C 41.625 37.523438 42.675781 39.351562 43.609375 40.542969 C 42.828125 43.539062 41.355469 46.347656 39.328125 48.683594 C 35.632812 52.949219 30.03125 55.429688 24.703125 55.164062 C 20.085938 54.933594 15.871094 52.820312 13.140625 49.363281 C 10.4375 45.945312 9.152344 41.558594 9.609375 37.328125 C 9.660156 36.863281 9.320312 36.445312 8.855469 36.394531 C 8.390625 36.34375 7.96875 36.679688 7.917969 37.148438 C 7.414062 41.816406 8.832031 46.652344 11.808594 50.417969 C 14.839844 54.257812 19.511719 56.605469 24.621094 56.863281 C 24.90625 56.875 25.191406 56.882812 25.480469 56.882812 C 31.050781 56.882812 36.78125 54.21875 40.613281 49.796875 C 42.816406 47.257812 44.417969 44.199219 45.261719 40.941406 C 45.304688 40.890625 45.339844 40.835938 45.367188 40.773438 " fill-opacity="1" fill-rule="nonzero"></path></g><g clip-path="url(#84d44b506a)"><path fill="#c89a69" d="M 51.964844 52.085938 C 51.65625 50.582031 50.835938 49.203125 50.113281 47.980469 L 50.058594 47.894531 C 49.828125 47.5 49.578125 47.128906 49.335938 46.765625 C 48.8125 45.984375 48.320312 45.246094 48.046875 44.402344 C 47.820312 43.6875 47.914062 42.800781 48.304688 42.027344 C 48.515625 41.609375 48.347656 41.097656 47.929688 40.886719 C 47.511719 40.675781 47 40.84375 46.789062 41.261719 C 46.195312 42.4375 46.066406 43.769531 46.429688 44.917969 C 46.773438 45.988281 47.359375 46.863281 47.925781 47.710938 C 48.164062 48.070312 48.390625 48.410156 48.597656 48.761719 L 48.652344 48.847656 C 49.339844 50.007812 50.050781 51.207031 50.300781 52.425781 C 50.332031 52.585938 50.347656 52.707031 50.347656 52.8125 C 50.347656 54.59375 48.898438 56.039062 47.121094 56.039062 C 45.339844 56.039062 43.894531 54.59375 43.894531 52.8125 C 43.894531 52.4375 44.101562 51.234375 46.042969 48.101562 C 46.289062 47.703125 46.164062 47.179688 45.765625 46.933594 C 45.367188 46.6875 44.84375 46.808594 44.597656 47.207031 C 42.980469 49.820312 42.195312 51.652344 42.195312 52.8125 C 42.195312 55.527344 44.40625 57.738281 47.121094 57.738281 C 49.835938 57.738281 52.046875 55.527344 52.046875 52.8125 C 52.046875 52.589844 52.019531 52.359375 51.964844 52.085938 " fill-opacity="1" fill-rule="nonzero"></path></g></svg>