<svg xmlns="http://www.w3.org/2000/svg" xmlns:xlink="http://www.w3.org/1999/xlink" width="80" viewBox="0 0 60 60" height="80" preserveAspectRatio="xMidYMid meet"><defs><clipPath id="a5a83858f4"><path d="M 33 15.722656 L 58.601562 15.722656 L 58.601562 44.972656 L 33 44.972656 Z M 33 15.722656 " clip-rule="nonzero"></path></clipPath><clipPath id="8650271bc1"><path d="M 2.351562 15.722656 L 28 15.722656 L 28 44.972656 L 2.351562 44.972656 Z M 2.351562 15.722656 " clip-rule="nonzero"></path></clipPath></defs><g clip-path="url(#a5a83858f4)"><path fill="#c89a69" d="M 54.976562 34.964844 C 54.402344 34.027344 53.667969 33.238281 52.777344 32.59375 C 51.882812 31.953125 50.902344 31.511719 49.828125 31.265625 C 50.359375 30.96875 50.851562 30.613281 51.304688 30.207031 C 51.761719 29.800781 52.164062 29.351562 52.519531 28.855469 C 52.871094 28.359375 53.167969 27.832031 53.40625 27.269531 C 53.644531 26.710938 53.820312 26.128906 53.929688 25.53125 C 54.042969 24.933594 54.085938 24.328125 54.0625 23.71875 C 54.039062 23.109375 53.953125 22.511719 53.796875 21.921875 C 53.644531 21.332031 53.429688 20.765625 53.148438 20.226562 C 52.871094 19.683594 52.535156 19.179688 52.148438 18.710938 C 51.757812 18.242188 51.320312 17.820312 50.839844 17.449219 C 50.355469 17.078125 49.839844 16.761719 49.289062 16.503906 C 48.738281 16.242188 48.164062 16.046875 47.570312 15.914062 C 46.972656 15.785156 46.371094 15.71875 45.761719 15.71875 C 45.152344 15.71875 44.550781 15.785156 43.957031 15.914062 C 43.363281 16.046875 42.789062 16.242188 42.238281 16.503906 C 41.6875 16.761719 41.167969 17.078125 40.6875 17.449219 C 40.203125 17.820312 39.769531 18.242188 39.378906 18.710938 C 38.988281 19.179688 38.65625 19.683594 38.375 20.226562 C 38.097656 20.765625 37.882812 21.332031 37.726562 21.921875 C 37.574219 22.511719 37.484375 23.109375 37.460938 23.71875 C 37.441406 24.328125 37.484375 24.933594 37.59375 25.53125 C 37.707031 26.128906 37.878906 26.710938 38.117188 27.269531 C 38.355469 27.832031 38.652344 28.359375 39.007812 28.855469 C 39.363281 29.351562 39.765625 29.800781 40.21875 30.207031 C 40.671875 30.613281 41.164062 30.96875 41.695312 31.265625 C 40.625 31.511719 39.644531 31.953125 38.75 32.59375 C 37.855469 33.238281 37.125 34.027344 36.550781 34.964844 L 33.257812 41.5625 C 33.199219 41.6875 33.171875 41.816406 33.171875 41.953125 C 33.171875 42.089844 33.199219 42.222656 33.253906 42.347656 C 33.308594 42.472656 33.386719 42.582031 33.488281 42.671875 C 33.589844 42.765625 33.707031 42.832031 33.835938 42.875 C 37.621094 43.976562 41.484375 44.542969 45.425781 44.574219 L 45.8125 44.574219 C 49.851562 44.570312 53.8125 44.003906 57.691406 42.875 C 57.820312 42.832031 57.9375 42.765625 58.039062 42.671875 C 58.140625 42.582031 58.21875 42.472656 58.273438 42.347656 C 58.328125 42.222656 58.355469 42.089844 58.355469 41.953125 C 58.355469 41.816406 58.324219 41.6875 58.269531 41.5625 Z M 54.976562 34.964844 " fill-opacity="1" fill-rule="nonzero"></path></g><g clip-path="url(#8650271bc1)"><path fill="#c89a69" d="M 3.027344 42.875 C 6.8125 43.976562 10.675781 44.542969 14.617188 44.574219 L 14.925781 44.574219 C 18.992188 44.578125 22.976562 44.011719 26.882812 42.875 C 27.011719 42.832031 27.128906 42.765625 27.230469 42.671875 C 27.332031 42.582031 27.410156 42.472656 27.464844 42.347656 C 27.519531 42.222656 27.546875 42.089844 27.546875 41.953125 C 27.546875 41.816406 27.515625 41.6875 27.460938 41.5625 L 24.167969 34.964844 C 23.59375 34.027344 22.859375 33.238281 21.96875 32.59375 C 21.074219 31.953125 20.09375 31.511719 19.019531 31.265625 C 19.550781 30.96875 20.042969 30.613281 20.496094 30.207031 C 20.953125 29.800781 21.355469 29.351562 21.710938 28.855469 C 22.0625 28.359375 22.359375 27.832031 22.597656 27.269531 C 22.835938 26.710938 23.011719 26.128906 23.121094 25.53125 C 23.234375 24.933594 23.277344 24.328125 23.253906 23.71875 C 23.230469 23.109375 23.144531 22.511719 22.988281 21.921875 C 22.835938 21.332031 22.621094 20.765625 22.339844 20.226562 C 22.0625 19.683594 21.726562 19.179688 21.339844 18.710938 C 20.949219 18.242188 20.511719 17.820312 20.03125 17.449219 C 19.546875 17.078125 19.03125 16.761719 18.480469 16.503906 C 17.929688 16.242188 17.355469 16.046875 16.761719 15.914062 C 16.164062 15.785156 15.5625 15.71875 14.953125 15.71875 C 14.34375 15.71875 13.742188 15.785156 13.148438 15.914062 C 12.554688 16.046875 11.980469 16.242188 11.429688 16.503906 C 10.878906 16.761719 10.359375 17.078125 9.878906 17.449219 C 9.394531 17.820312 8.960938 18.242188 8.570312 18.710938 C 8.179688 19.179688 7.847656 19.683594 7.566406 20.226562 C 7.289062 20.765625 7.074219 21.332031 6.917969 21.921875 C 6.765625 22.511719 6.675781 23.109375 6.652344 23.71875 C 6.632812 24.328125 6.675781 24.933594 6.785156 25.53125 C 6.898438 26.128906 7.070312 26.710938 7.308594 27.269531 C 7.546875 27.832031 7.84375 28.359375 8.199219 28.855469 C 8.554688 29.351562 8.957031 29.800781 9.410156 30.207031 C 9.863281 30.613281 10.355469 30.96875 10.886719 31.265625 C 9.816406 31.511719 8.835938 31.953125 7.941406 32.59375 C 7.046875 33.238281 6.316406 34.027344 5.742188 34.964844 L 2.449219 41.5625 C 2.390625 41.6875 2.363281 41.816406 2.363281 41.953125 C 2.363281 42.089844 2.390625 42.222656 2.445312 42.347656 C 2.5 42.472656 2.578125 42.582031 2.679688 42.671875 C 2.78125 42.765625 2.898438 42.832031 3.027344 42.875 Z M 3.027344 42.875 " fill-opacity="1" fill-rule="nonzero"></path></g><path fill="#c89a69" d="M 26.003906 26.96875 C 25.78125 26.835938 25.546875 26.800781 25.296875 26.855469 C 25.046875 26.910156 24.851562 27.046875 24.707031 27.257812 L 23.152344 29.71875 C 23.050781 29.878906 22.996094 30.054688 22.996094 30.246094 C 22.996094 30.4375 23.050781 30.613281 23.152344 30.773438 L 24.890625 33.03125 C 25.082031 33.28125 25.332031 33.40625 25.644531 33.410156 C 25.851562 33.410156 26.035156 33.351562 26.195312 33.226562 C 26.394531 33.066406 26.511719 32.863281 26.550781 32.613281 C 26.585938 32.359375 26.535156 32.132812 26.390625 31.921875 L 25.789062 31.109375 L 34.925781 31.109375 L 34.328125 31.921875 C 34.183594 32.132812 34.128906 32.359375 34.167969 32.613281 C 34.203125 32.863281 34.324219 33.066406 34.519531 33.226562 C 34.683594 33.351562 34.867188 33.410156 35.070312 33.410156 C 35.382812 33.40625 35.632812 33.28125 35.824219 33.03125 L 37.523438 30.734375 C 37.628906 30.574219 37.679688 30.398438 37.679688 30.207031 C 37.679688 30.015625 37.628906 29.839844 37.523438 29.683594 L 36.007812 27.238281 C 35.863281 27.027344 35.667969 26.890625 35.417969 26.835938 C 35.167969 26.78125 34.933594 26.816406 34.714844 26.949219 C 34.503906 27.09375 34.371094 27.289062 34.316406 27.539062 C 34.261719 27.789062 34.300781 28.023438 34.433594 28.242188 L 35.082031 29.265625 L 25.636719 29.265625 L 26.28125 28.242188 C 26.410156 28.027344 26.445312 27.796875 26.390625 27.550781 C 26.335938 27.304688 26.207031 27.113281 26.003906 26.96875 Z M 26.003906 26.96875 " fill-opacity="1" fill-rule="nonzero"></path></svg>