<svg xmlns="http://www.w3.org/2000/svg" xmlns:xlink="http://www.w3.org/1999/xlink" width="80" viewBox="0 0 60 60" height="80" preserveAspectRatio="xMidYMid meet"><defs><clipPath id="5b68b21290"><path d="M 2.109375 13 L 17 13 L 17 57 L 2.109375 57 Z M 2.109375 13 " clip-rule="nonzero"></path></clipPath><clipPath id="3d6911541a"><path d="M 48 11 L 57.609375 11 L 57.609375 19 L 48 19 Z M 48 11 " clip-rule="nonzero"></path></clipPath><clipPath id="cb2f403979"><path d="M 11 3.050781 L 22 3.050781 L 22 14 L 11 14 Z M 11 3.050781 " clip-rule="nonzero"></path></clipPath></defs><path fill="#c89a69" d="M 30.875 16.382812 C 30.199219 16.769531 29.476562 17.582031 29.773438 17.9375 L 37.925781 27.777344 L 36.535156 37.824219 L 30.371094 53.492188 C 29.917969 54.644531 30.484375 55.945312 31.632812 56.398438 C 32.785156 56.847656 34.085938 56.285156 34.539062 55.132812 L 39.457031 42.625 L 41.71875 42.9375 L 42.929688 54.546875 C 43.058594 55.777344 44.15625 56.671875 45.386719 56.542969 C 46.617188 56.414062 47.511719 55.3125 47.382812 54.085938 L 45.996094 40.757812 C 46.074219 40.5 46.128906 40.285156 46.148438 40.148438 L 47.351562 31.476562 C 47.648438 33.085938 47.734375 36.078125 46.902344 41.605469 C 46.796875 42.316406 47.285156 42.976562 47.996094 43.085938 C 48.0625 43.09375 48.125 43.101562 48.191406 43.101562 C 48.820312 43.101562 49.375 42.636719 49.472656 41.992188 C 50.554688 34.78125 50.351562 30.296875 48.851562 28.289062 C 48.335938 27.601562 47.65625 27.175781 46.882812 27.035156 C 46.8125 27.015625 46.742188 26.996094 46.664062 26.984375 L 39.863281 26.042969 L 31.773438 16.277344 C 31.769531 16.273438 31.765625 16.273438 31.765625 16.269531 L 30.246094 14.4375 C 30.113281 14.277344 29.875 14.253906 29.714844 14.386719 C 29.550781 14.519531 29.53125 14.761719 29.664062 14.921875 Z M 30.875 16.382812 " fill-opacity="1" fill-rule="nonzero"></path><path fill="#c89a69" d="M 39.402344 20.753906 C 39.066406 23.171875 40.757812 25.40625 43.175781 25.742188 C 45.597656 26.078125 47.832031 24.386719 48.164062 21.964844 C 48.5 19.546875 46.8125 17.3125 44.390625 16.976562 C 41.972656 16.640625 39.738281 18.332031 39.402344 20.753906 Z M 41.449219 21.816406 C 41.523438 21.308594 43.632812 21.261719 43.632812 21.261719 C 43.632812 21.261719 45.742188 21.308594 45.816406 21.816406 C 45.890625 22.324219 45.867188 23.722656 45.640625 23.722656 C 45.410156 23.722656 45.410156 23.4375 45.261719 23.4375 C 45.109375 23.4375 44.40625 23.316406 43.632812 23.316406 C 42.855469 23.316406 42.15625 23.4375 42.003906 23.4375 C 41.851562 23.4375 41.851562 23.722656 41.625 23.722656 C 41.398438 23.722656 41.371094 22.324219 41.449219 21.816406 Z M 41.449219 21.816406 " fill-opacity="1" fill-rule="nonzero"></path><g clip-path="url(#5b68b21290)"><path fill="#c89a69" d="M 2.832031 21.894531 L 5.570312 24.082031 C 5.425781 25.871094 5.5 27.734375 5.765625 30.03125 C 6.210938 32.304688 7.351562 33.304688 8.648438 33.726562 L 10.367188 41.039062 L 9.386719 53.636719 C 9.265625 55.191406 10.425781 56.550781 11.980469 56.671875 C 12.058594 56.679688 12.132812 56.679688 12.203125 56.679688 C 13.664062 56.679688 14.902344 55.554688 15.019531 54.078125 L 16.035156 41.039062 C 16.058594 40.746094 16.035156 40.457031 15.96875 40.171875 L 13.867188 31.246094 C 13.867188 31.050781 13.859375 30.839844 13.847656 30.613281 C 13.589844 28.699219 13.726562 26.621094 14.007812 24.632812 L 9.617188 19.285156 C 8.804688 18.292969 8.949219 16.824219 9.941406 16.007812 C 10.355469 15.667969 10.878906 15.480469 11.417969 15.480469 C 12.117188 15.480469 12.773438 15.789062 13.21875 16.332031 L 15.132812 18.667969 C 15.597656 16.5 14.738281 14.066406 12.914062 13.609375 C 12.609375 13.535156 12.28125 13.496094 11.941406 13.5 C 11.855469 13.488281 11.773438 13.476562 11.683594 13.476562 C 11.675781 13.476562 11.667969 13.476562 11.660156 13.476562 C 8.0625 13.476562 3.503906 18.296875 2.625 19.265625 C 2.289062 19.636719 2.121094 20.128906 2.160156 20.625 C 2.199219 21.121094 2.441406 21.582031 2.832031 21.894531 Z M 2.832031 21.894531 " fill-opacity="1" fill-rule="nonzero"></path></g><g clip-path="url(#3d6911541a)"><path fill="#c89a69" d="M 57.429688 12.730469 C 57.019531 11.519531 55.707031 10.871094 54.496094 11.28125 C 54.15625 11.398438 53.863281 11.582031 53.625 11.816406 C 53.019531 11.363281 52.207031 11.207031 51.4375 11.464844 C 50.199219 11.886719 49.535156 13.234375 49.953125 14.476562 C 50.121094 14.964844 50.433594 15.363281 50.824219 15.640625 L 48.90625 17.679688 L 49.140625 17.921875 L 50.953125 16.183594 L 52.359375 14.835938 L 51.949219 14.445312 L 51.210938 15.226562 C 50.953125 15.011719 50.75 14.726562 50.632812 14.386719 C 50.300781 13.402344 50.824219 12.335938 51.808594 12.003906 C 52.335938 11.824219 52.890625 11.898438 53.339844 12.152344 C 53.191406 12.367188 53.078125 12.601562 53.007812 12.851562 C 53.234375 12.4375 53.605469 12.105469 54.085938 11.941406 C 55.097656 11.597656 56.195312 12.140625 56.539062 13.152344 C 56.882812 14.164062 56.339844 15.261719 55.328125 15.605469 C 55.09375 15.683594 54.851562 15.714844 54.617188 15.703125 C 55.050781 15.824219 55.523438 15.820312 55.984375 15.667969 C 56.003906 15.660156 56.027344 15.648438 56.046875 15.640625 C 56.304688 16.589844 55.785156 17.585938 54.839844 17.90625 C 53.914062 18.222656 52.917969 17.773438 52.523438 16.902344 L 53.453125 16.394531 L 53.179688 15.898438 L 51.472656 16.945312 L 49.375 18.226562 L 49.554688 18.515625 L 52.167969 17.09375 C 52.175781 17.117188 52.179688 17.144531 52.1875 17.167969 C 52.589844 18.347656 53.871094 18.980469 55.054688 18.582031 C 56.234375 18.179688 56.867188 16.898438 56.464844 15.714844 C 56.441406 15.636719 56.410156 15.5625 56.375 15.488281 C 57.328125 14.953125 57.792969 13.800781 57.429688 12.730469 Z M 57.429688 12.730469 " fill-opacity="1" fill-rule="nonzero"></path></g><path fill="#c89a69" d="M 39.488281 11.757812 C 40.59375 11.050781 40.636719 9.382812 40.636719 9.3125 L 40.234375 9.304688 C 40.234375 9.320312 40.195312 10.824219 39.273438 11.421875 C 38.722656 11.773438 37.949219 11.738281 36.980469 11.316406 L 36.820312 11.6875 C 37.921875 12.164062 38.820312 12.191406 39.488281 11.757812 Z M 39.488281 11.757812 " fill-opacity="1" fill-rule="nonzero"></path><path fill="#c89a69" d="M 41.566406 13.171875 C 41.96875 13.488281 42.523438 13.714844 43.222656 13.851562 L 43.300781 13.453125 C 42.246094 13.25 41.582031 12.835938 41.328125 12.222656 C 40.898438 11.191406 41.753906 9.894531 41.761719 9.882812 L 41.425781 9.65625 C 41.386719 9.714844 40.441406 11.144531 40.953125 12.378906 C 41.082031 12.683594 41.285156 12.949219 41.566406 13.171875 Z M 41.566406 13.171875 " fill-opacity="1" fill-rule="nonzero"></path><path fill="#c89a69" d="M 40.371094 14.683594 C 40.917969 14.363281 41.675781 14.460938 42.621094 14.96875 L 42.8125 14.617188 C 41.734375 14.035156 40.84375 13.941406 40.167969 14.335938 C 39.011719 15.007812 38.960938 16.851562 38.960938 16.929688 L 39.363281 16.9375 C 39.363281 16.921875 39.414062 15.242188 40.371094 14.683594 Z M 40.371094 14.683594 " fill-opacity="1" fill-rule="nonzero"></path><path fill="#c89a69" d="M 38.378906 13.945312 C 38.820312 14.960938 37.847656 16.34375 37.839844 16.359375 L 38.167969 16.59375 C 38.214844 16.527344 39.28125 15.011719 38.75 13.785156 C 38.433594 13.058594 37.636719 12.609375 36.382812 12.441406 L 36.328125 12.84375 C 37.433594 12.988281 38.125 13.359375 38.378906 13.945312 Z M 38.378906 13.945312 " fill-opacity="1" fill-rule="nonzero"></path><g clip-path="url(#cb2f403979)"><path fill="#c89a69" d="M 16.535156 13.21875 C 17.773438 13.21875 18.90625 12.777344 19.785156 12.042969 C 18.546875 11.753906 17.421875 12.050781 17.65625 11.328125 C 17.914062 10.539062 19.226562 10.261719 20.585938 10.707031 C 20.679688 10.738281 20.773438 10.769531 20.859375 10.804688 C 21.339844 10.027344 21.617188 9.113281 21.617188 8.132812 C 21.617188 5.328125 19.34375 3.050781 16.535156 3.050781 C 13.726562 3.050781 11.449219 5.328125 11.449219 8.132812 C 11.449219 10.941406 13.726562 13.21875 16.535156 13.21875 Z M 16.535156 13.21875 " fill-opacity="1" fill-rule="nonzero"></path></g><path fill="#c89a69" d="M 12.816406 16.660156 C 12.183594 15.890625 11.042969 15.777344 10.273438 16.410156 C 9.5 17.042969 9.386719 18.183594 10.019531 18.953125 L 15.273438 25.355469 C 15.585938 25.734375 16.035156 25.972656 16.523438 26.011719 C 16.574219 26.015625 16.621094 26.019531 16.671875 26.019531 C 17.109375 26.019531 17.53125 25.859375 17.863281 25.570312 L 25.09375 19.242188 C 25.601562 18.796875 24.667969 17.402344 23.78125 16.753906 L 25.289062 15.25 C 25.46875 15.070312 25.46875 14.773438 25.289062 14.589844 C 25.105469 14.410156 24.8125 14.410156 24.628906 14.589844 L 22.59375 16.628906 L 16.886719 21.621094 Z M 12.816406 16.660156 " fill-opacity="1" fill-rule="nonzero"></path></svg>