<svg xmlns="http://www.w3.org/2000/svg" xmlns:xlink="http://www.w3.org/1999/xlink" width="80" viewBox="0 0 60 60" height="80" preserveAspectRatio="xMidYMid meet"><defs><clipPath id="00697d4acb"><path d="M 39 1.738281 L 41 1.738281 L 41 20 L 39 20 Z M 39 1.738281 " clip-rule="nonzero"></path></clipPath><clipPath id="30c4b6445d"><path d="M 11 29 L 41 29 L 41 57.988281 L 11 57.988281 Z M 11 29 " clip-rule="nonzero"></path></clipPath><clipPath id="9887af9dab"><path d="M 8.980469 22 L 10 22 L 10 33 L 8.980469 33 Z M 8.980469 22 " clip-rule="nonzero"></path></clipPath><clipPath id="806862c585"><path d="M 49 36 L 50.980469 36 L 50.980469 47 L 49 47 Z M 49 36 " clip-rule="nonzero"></path></clipPath></defs><path fill="#c89a69" d="M 38.066406 7.210938 L 38.765625 7.210938 L 38.765625 17.363281 L 38.066406 17.363281 Z M 38.066406 7.210938 " fill-opacity="1" fill-rule="nonzero"></path><path fill="#c89a69" d="M 41.183594 7.210938 L 41.882812 7.210938 L 41.882812 17.363281 L 41.183594 17.363281 Z M 41.183594 7.210938 " fill-opacity="1" fill-rule="nonzero"></path><g clip-path="url(#00697d4acb)"><path fill="#c89a69" d="M 40.324219 1.757812 L 39.625 1.757812 L 39.625 19.003906 C 39.863281 19.066406 40.09375 19.140625 40.324219 19.21875 Z M 40.324219 1.757812 " fill-opacity="1" fill-rule="nonzero"></path></g><g clip-path="url(#30c4b6445d)"><path fill="#c89a69" d="M 26.746094 29.582031 C 23.945312 28.476562 19.445312 29.242188 16.882812 33.472656 C 13.394531 39.3125 12.140625 43.269531 11.75 50.234375 C 11.894531 55.347656 15.578125 56.441406 18.722656 56.894531 C 19.71875 57.035156 20.542969 57.125 21.222656 57.042969 C 22.394531 57.140625 23.597656 56.726562 24.472656 55.808594 L 31.027344 48.933594 L 32.957031 54.914062 C 33.507812 56.621094 35.089844 57.707031 36.789062 57.707031 C 37.199219 57.707031 37.617188 57.640625 38.027344 57.507812 C 40.144531 56.828125 41.304688 54.558594 40.621094 52.441406 L 39.605469 49.292969 C 39.347656 49.359375 39.078125 49.394531 38.796875 49.394531 C 38.699219 49.394531 38.601562 49.390625 38.503906 49.382812 L 27.121094 48.414062 C 25.8125 48.300781 24.671875 47.433594 24.210938 46.199219 L 20.441406 36.058594 C 20.125 35.203125 20.160156 34.277344 20.539062 33.449219 C 20.917969 32.617188 21.597656 31.988281 22.453125 31.667969 C 22.835938 31.527344 23.238281 31.453125 23.644531 31.453125 C 25.0625 31.453125 26.351562 32.347656 26.84375 33.679688 L 28.410156 37.890625 C 28.472656 37.746094 28.535156 37.597656 28.59375 37.457031 C 29.421875 35.90625 29.632812 34.085938 29.226562 32.554688 C 28.949219 32.0625 28.714844 31.546875 28.527344 31.007812 C 28.089844 30.382812 27.5 29.882812 26.746094 29.582031 Z M 26.746094 29.582031 " fill-opacity="1" fill-rule="nonzero"></path></g><path fill="#c89a69" d="M 37.390625 42.4375 L 36.613281 40.023438 C 36.175781 38.671875 35.058594 37.652344 33.675781 37.335938 C 32.292969 37.019531 30.84375 37.457031 29.867188 38.484375 L 28.976562 39.417969 L 29.859375 41.792969 Z M 37.390625 42.4375 " fill-opacity="1" fill-rule="nonzero"></path><path fill="#c89a69" d="M 22.765625 32.507812 C 21.460938 32.992188 20.792969 34.445312 21.28125 35.75 L 25.046875 45.890625 C 25.386719 46.804688 26.226562 47.441406 27.199219 47.523438 L 38.582031 48.496094 C 38.652344 48.5 38.726562 48.503906 38.796875 48.503906 C 40.09375 48.503906 41.195312 47.511719 41.308594 46.195312 C 41.425781 44.808594 40.398438 43.585938 39.007812 43.46875 L 29.21875 42.636719 L 26.007812 33.992188 C 25.523438 32.6875 24.070312 32.019531 22.765625 32.507812 Z M 22.765625 32.507812 " fill-opacity="1" fill-rule="nonzero"></path><path fill="#c89a69" d="M 38.65625 19.984375 C 39.179688 20.070312 39.691406 20.210938 40.1875 20.402344 C 40.6875 20.59375 41.160156 20.828125 41.613281 21.113281 C 42.0625 21.394531 42.480469 21.722656 42.867188 22.085938 C 43.253906 22.453125 43.601562 22.855469 43.910156 23.289062 C 44.21875 23.722656 44.484375 24.183594 44.699219 24.667969 C 44.917969 25.15625 45.085938 25.660156 45.203125 26.179688 C 45.320312 26.699219 45.386719 27.222656 45.402344 27.757812 C 45.417969 28.289062 45.382812 28.816406 45.292969 29.34375 C 45.203125 29.867188 45.0625 30.378906 44.871094 30.878906 C 44.683594 31.375 44.445312 31.847656 44.160156 32.300781 C 43.878906 32.75 43.554688 33.171875 43.1875 33.558594 C 42.820312 33.945312 42.421875 34.292969 41.984375 34.601562 C 41.550781 34.910156 41.089844 35.171875 40.605469 35.390625 C 40.117188 35.605469 39.617188 35.773438 39.097656 35.890625 C 38.578125 36.011719 38.050781 36.078125 37.519531 36.09375 C 36.984375 36.105469 36.457031 36.070312 35.929688 35.980469 C 35.40625 35.890625 34.894531 35.75 34.398438 35.5625 C 33.898438 35.371094 33.425781 35.132812 32.972656 34.851562 C 32.523438 34.566406 32.105469 34.242188 31.71875 33.875 C 31.332031 33.511719 30.984375 33.109375 30.675781 32.675781 C 30.367188 32.242188 30.105469 31.78125 29.886719 31.292969 C 29.667969 30.808594 29.5 30.304688 29.382812 29.785156 C 29.265625 29.265625 29.199219 28.738281 29.183594 28.207031 C 29.167969 27.675781 29.207031 27.144531 29.292969 26.621094 C 29.382812 26.09375 29.523438 25.582031 29.714844 25.085938 C 29.902344 24.589844 30.140625 24.113281 30.425781 23.664062 C 30.707031 23.210938 31.03125 22.792969 31.398438 22.40625 C 31.765625 22.019531 32.164062 21.671875 32.601562 21.363281 C 33.035156 21.054688 33.496094 20.792969 33.980469 20.574219 C 34.46875 20.355469 34.96875 20.1875 35.488281 20.070312 C 36.007812 19.953125 36.535156 19.886719 37.066406 19.871094 C 37.601562 19.855469 38.128906 19.894531 38.65625 19.984375 Z M 38.65625 19.984375 " fill-opacity="1" fill-rule="nonzero"></path><g clip-path="url(#9887af9dab)"><path fill="#c89a69" d="M 8.980469 22.683594 L 9.679688 22.683594 L 9.679688 32.835938 L 8.980469 32.835938 Z M 8.980469 22.683594 " fill-opacity="1" fill-rule="nonzero"></path></g><path fill="#c89a69" d="M 12.097656 22.683594 L 12.796875 22.683594 L 12.796875 32.835938 L 12.097656 32.835938 Z M 12.097656 22.683594 " fill-opacity="1" fill-rule="nonzero"></path><path fill="#c89a69" d="M 10.539062 17.230469 L 11.238281 17.230469 L 11.238281 38.292969 L 10.539062 38.292969 Z M 10.539062 17.230469 " fill-opacity="1" fill-rule="nonzero"></path><path fill="#c89a69" d="M 22.851562 8.972656 L 23.554688 8.972656 L 23.554688 19.125 L 22.851562 19.125 Z M 22.851562 8.972656 " fill-opacity="1" fill-rule="nonzero"></path><path fill="#c89a69" d="M 25.96875 8.972656 L 26.667969 8.972656 L 26.667969 19.125 L 25.96875 19.125 Z M 25.96875 8.972656 " fill-opacity="1" fill-rule="nonzero"></path><path fill="#c89a69" d="M 24.410156 3.519531 L 25.109375 3.519531 L 25.109375 24.582031 L 24.410156 24.582031 Z M 24.410156 3.519531 " fill-opacity="1" fill-rule="nonzero"></path><path fill="#c89a69" d="M 46.78125 36.394531 L 47.480469 36.394531 L 47.480469 46.546875 L 46.78125 46.546875 Z M 46.78125 36.394531 " fill-opacity="1" fill-rule="nonzero"></path><g clip-path="url(#806862c585)"><path fill="#c89a69" d="M 49.898438 36.394531 L 50.597656 36.394531 L 50.597656 46.546875 L 49.898438 46.546875 Z M 49.898438 36.394531 " fill-opacity="1" fill-rule="nonzero"></path></g><path fill="#c89a69" d="M 48.339844 30.941406 L 49.039062 30.941406 L 49.039062 52.003906 L 48.339844 52.003906 Z M 48.339844 30.941406 " fill-opacity="1" fill-rule="nonzero"></path></svg>