<svg xmlns="http://www.w3.org/2000/svg" xmlns:xlink="http://www.w3.org/1999/xlink" width="80" viewBox="0 0 60 60" height="80" preserveAspectRatio="xMidYMid meet"><defs><clipPath id="11bf7296ca"><path d="M 10.660156 2.445312 L 49.332031 2.445312 L 49.332031 57.195312 L 10.660156 57.195312 Z M 10.660156 2.445312 " clip-rule="nonzero"></path></clipPath></defs><g clip-path="url(#11bf7296ca)"><path fill="#c89a69" d="M 10.375 32.675781 L 10.417969 32.273438 C 10.410156 32.148438 10.417969 32.023438 10.449219 31.902344 C 10.460938 31.792969 10.480469 31.585938 10.488281 31.476562 C 10.496094 31.386719 10.5 31.296875 10.5 31.210938 C 10.554688 31.117188 10.570312 31.023438 10.554688 30.917969 C 10.5625 30.835938 10.566406 30.75 10.570312 30.667969 C 10.601562 30.5625 10.632812 30.457031 10.664062 30.355469 C 10.703125 30.246094 10.714844 30.132812 10.707031 30.019531 C 10.730469 29.902344 10.765625 29.789062 10.792969 29.671875 C 10.839844 29.5 10.886719 29.332031 10.925781 29.160156 C 11 28.898438 11.066406 28.632812 11.152344 28.375 C 11.226562 28.277344 11.265625 28.167969 11.269531 28.046875 C 11.292969 27.964844 11.324219 27.886719 11.363281 27.808594 C 11.414062 27.699219 11.457031 27.585938 11.484375 27.46875 C 11.570312 27.429688 11.617188 27.359375 11.625 27.265625 L 11.640625 27.207031 C 11.738281 27.039062 11.824219 26.863281 11.898438 26.683594 L 11.921875 26.632812 C 12 26.523438 12.074219 26.402344 12.136719 26.28125 C 12.304688 26.054688 12.414062 25.796875 12.554688 25.554688 C 12.648438 25.527344 12.757812 25.472656 12.746094 25.355469 L 12.753906 25.3125 C 13.015625 25.03125 13.179688 24.667969 13.421875 24.375 C 13.527344 24.34375 13.585938 24.273438 13.597656 24.164062 C 13.621094 24.058594 13.707031 23.980469 13.761719 23.890625 C 13.839844 23.796875 13.902344 23.691406 13.960938 23.585938 C 14 23.503906 14.050781 23.433594 14.113281 23.375 C 14.238281 23.355469 14.300781 23.285156 14.308594 23.160156 C 14.320312 23.128906 14.347656 23.0625 14.359375 23.027344 C 14.460938 22.886719 14.578125 22.753906 14.683594 22.617188 C 14.761719 22.511719 14.828125 22.402344 14.878906 22.285156 C 15.011719 22.332031 15.105469 22.195312 15.078125 22.078125 L 15.078125 22.027344 C 15.148438 21.9375 15.210938 21.851562 15.28125 21.765625 C 15.40625 21.734375 15.425781 21.617188 15.453125 21.511719 C 15.578125 21.554688 15.648438 21.429688 15.648438 21.320312 L 15.699219 21.203125 C 15.871094 21.101562 15.960938 20.914062 16.019531 20.734375 C 16.09375 20.742188 16.15625 20.71875 16.207031 20.664062 C 16.261719 20.609375 16.28125 20.546875 16.269531 20.472656 L 16.277344 20.4375 C 16.371094 20.386719 16.402344 20.292969 16.433594 20.199219 C 16.527344 20.082031 16.625 19.96875 16.726562 19.859375 C 16.808594 19.796875 16.832031 19.699219 16.871094 19.609375 C 16.925781 19.527344 16.988281 19.441406 17.050781 19.363281 C 17.128906 19.3125 17.1875 19.246094 17.230469 19.160156 C 17.371094 19.023438 17.476562 18.867188 17.554688 18.6875 L 17.582031 18.632812 C 17.644531 18.550781 17.707031 18.464844 17.761719 18.375 C 17.878906 18.339844 17.894531 18.226562 17.921875 18.125 C 18.046875 18.167969 18.132812 18.042969 18.109375 17.929688 L 18.109375 17.886719 C 18.222656 17.769531 18.316406 17.640625 18.394531 17.5 L 18.476562 17.359375 C 18.582031 17.328125 18.652344 17.261719 18.683594 17.15625 C 18.75 17.0625 18.800781 16.960938 18.835938 16.851562 C 18.960938 16.894531 19.046875 16.769531 19.027344 16.65625 L 19.027344 16.617188 C 19.1875 16.410156 19.332031 16.191406 19.464844 15.960938 C 19.667969 15.847656 19.804688 15.679688 19.875 15.457031 L 19.890625 15.417969 C 20.167969 15.042969 20.476562 14.671875 20.675781 14.253906 C 20.769531 14.226562 20.878906 14.171875 20.867188 14.054688 L 20.875 14.011719 C 21.039062 13.902344 21.042969 13.6875 21.15625 13.539062 C 21.257812 13.523438 21.375 13.46875 21.355469 13.34375 L 21.359375 13.296875 L 21.464844 13.136719 C 21.613281 13.105469 21.675781 13.015625 21.644531 12.863281 C 21.664062 12.820312 21.703125 12.734375 21.722656 12.691406 C 21.824219 12.675781 21.941406 12.621094 21.921875 12.496094 L 21.925781 12.449219 C 21.988281 12.273438 22.1875 12.203125 22.230469 12.019531 C 22.441406 11.839844 22.597656 11.617188 22.699219 11.359375 L 22.71875 11.320312 C 22.738281 11.285156 22.78125 11.214844 22.804688 11.175781 C 22.875 11.082031 22.9375 10.980469 23 10.882812 C 23.183594 10.796875 23.285156 10.621094 23.347656 10.4375 C 23.371094 10.367188 23.398438 10.292969 23.429688 10.222656 C 23.527344 10.199219 23.632812 10.144531 23.625 10.027344 L 23.632812 9.984375 C 23.773438 9.863281 23.855469 9.695312 23.945312 9.535156 C 24.074219 9.496094 24.195312 9.394531 24.179688 9.246094 L 24.1875 9.203125 L 24.285156 9.03125 C 24.359375 8.972656 24.421875 8.902344 24.464844 8.816406 L 24.496094 8.765625 C 24.613281 8.742188 24.675781 8.671875 24.6875 8.550781 L 24.742188 8.425781 C 24.863281 8.398438 24.890625 8.292969 24.914062 8.191406 C 25.042969 8.207031 25.117188 8.085938 25.097656 7.96875 C 25.152344 7.894531 25.207031 7.816406 25.261719 7.742188 C 25.390625 7.789062 25.484375 7.664062 25.464844 7.542969 L 25.46875 7.5 C 25.625 7.460938 25.714844 7.363281 25.746094 7.207031 C 25.761719 7.167969 25.792969 7.089844 25.808594 7.050781 C 25.890625 7.058594 25.957031 7.035156 26.015625 6.980469 C 26.070312 6.921875 26.09375 6.855469 26.085938 6.777344 L 26.089844 6.734375 C 26.140625 6.675781 26.199219 6.617188 26.257812 6.5625 C 26.328125 6.507812 26.390625 6.441406 26.441406 6.367188 C 26.855469 6.0625 27.246094 5.714844 27.527344 5.28125 C 27.617188 5.210938 27.703125 5.140625 27.796875 5.074219 C 27.953125 5.058594 28.023438 4.921875 28.078125 4.796875 L 28.125 4.792969 C 28.203125 4.808594 28.273438 4.789062 28.332031 4.734375 C 28.390625 4.679688 28.414062 4.613281 28.40625 4.535156 C 28.488281 4.472656 28.570312 4.417969 28.65625 4.367188 L 28.777344 4.304688 C 29.082031 4.140625 29.355469 3.925781 29.644531 3.738281 C 29.773438 3.710938 29.882812 3.652344 29.980469 3.5625 C 30.863281 3.023438 31.886719 2.75 32.898438 2.542969 C 33.003906 2.542969 33.109375 2.542969 33.21875 2.542969 L 33.636719 2.496094 C 34.066406 2.460938 34.492188 2.460938 34.921875 2.496094 C 35.078125 2.550781 35.238281 2.566406 35.402344 2.542969 L 35.550781 2.570312 C 35.636719 2.613281 35.726562 2.628906 35.824219 2.613281 C 36.457031 2.730469 37.066406 2.953125 37.664062 3.203125 C 37.710938 3.273438 37.777344 3.316406 37.863281 3.324219 C 37.945312 3.34375 38.023438 3.375 38.097656 3.410156 C 38.140625 3.539062 38.230469 3.605469 38.367188 3.597656 L 38.410156 3.601562 C 38.496094 3.640625 38.578125 3.6875 38.65625 3.734375 C 38.742188 3.804688 38.828125 3.875 38.914062 3.941406 C 39.023438 4.125 39.140625 4.332031 39.367188 4.375 C 39.441406 4.441406 39.515625 4.507812 39.585938 4.578125 C 39.566406 4.640625 39.582031 4.699219 39.625 4.746094 C 39.664062 4.796875 39.71875 4.816406 39.785156 4.808594 C 39.800781 4.839844 39.832031 4.90625 39.847656 4.9375 C 39.921875 5.078125 40.007812 5.210938 40.113281 5.332031 L 40.128906 5.382812 C 40.140625 5.464844 40.183594 5.53125 40.253906 5.582031 L 40.332031 5.730469 C 40.386719 5.875 40.4375 6.023438 40.496094 6.167969 C 40.453125 6.210938 40.410156 6.253906 40.363281 6.289062 C 40.390625 6.152344 40.261719 6.0625 40.136719 6.078125 C 39.992188 5.953125 39.84375 5.828125 39.699219 5.703125 C 39.746094 5.578125 39.628906 5.488281 39.511719 5.492188 L 39.371094 5.464844 C 39.199219 5.445312 39.078125 5.355469 39.011719 5.195312 C 39 5.042969 38.832031 5.039062 38.714844 5.046875 C 38.101562 4.769531 37.351562 4.472656 36.765625 4.378906 C 36.824219 4.230469 36.558594 4.320312 36.476562 4.300781 C 36.117188 4.300781 35.757812 4.296875 35.394531 4.296875 L 35.003906 4.351562 L 34.84375 4.410156 C 34.746094 4.335938 34.652344 4.335938 34.554688 4.410156 C 34.484375 4.429688 34.417969 4.457031 34.351562 4.488281 C 33.796875 4.679688 33.195312 4.773438 32.65625 4.972656 C 32.609375 4.933594 32.554688 4.925781 32.492188 4.945312 C 32.433594 4.964844 32.394531 5.003906 32.378906 5.066406 C 32.167969 5.226562 31.929688 5.335938 31.667969 5.390625 C 31.582031 5.320312 31.421875 5.34375 31.457031 5.484375 L 31.402344 5.535156 C 31.226562 5.507812 31 5.59375 30.953125 5.777344 L 30.898438 5.816406 C 30.667969 5.84375 30.492188 5.953125 30.367188 6.144531 L 30.246094 6.195312 C 30.128906 6.191406 30.011719 6.277344 30.058594 6.402344 C 30.101562 6.574219 29.941406 6.566406 29.820312 6.585938 L 29.675781 6.621094 C 29.558594 6.621094 29.515625 6.734375 29.484375 6.828125 C 29.390625 6.90625 29.296875 6.980469 29.199219 7.050781 C 29.007812 7.132812 28.835938 7.269531 28.769531 7.472656 L 28.707031 7.542969 C 28.421875 7.730469 28.179688 7.96875 27.984375 8.25 C 27.921875 8.347656 27.859375 8.449219 27.804688 8.550781 C 27.761719 8.660156 27.683594 8.726562 27.566406 8.746094 C 27.4375 8.722656 27.355469 8.832031 27.355469 8.953125 C 27.3125 9.03125 27.269531 9.105469 27.238281 9.1875 C 27.214844 9.296875 27.214844 9.429688 27.058594 9.402344 C 26.90625 9.375 26.777344 9.523438 26.792969 9.675781 L 26.789062 9.726562 C 26.726562 9.722656 26.671875 9.742188 26.628906 9.789062 C 26.585938 9.835938 26.570312 9.890625 26.585938 9.957031 L 26.585938 10.003906 C 26.46875 10.050781 26.359375 10.132812 26.367188 10.273438 C 26.335938 10.425781 26.300781 10.59375 26.140625 10.65625 C 26.0625 10.699219 25.980469 10.761719 25.972656 10.867188 C 25.921875 11.023438 25.851562 11.265625 25.671875 11.289062 C 25.441406 11.308594 25.402344 11.597656 25.289062 11.757812 C 25.121094 11.882812 24.980469 12.070312 24.964844 12.285156 C 24.804688 12.691406 24.570312 13.046875 24.253906 13.351562 C 24.117188 13.347656 24.050781 13.414062 24.054688 13.546875 C 24.011719 13.644531 23.960938 13.742188 23.90625 13.832031 C 23.785156 13.882812 23.703125 13.96875 23.660156 14.089844 C 23.542969 14.21875 23.453125 14.363281 23.390625 14.523438 C 23.277344 14.59375 23.183594 14.679688 23.195312 14.828125 C 23.222656 14.953125 23.167969 15.023438 23.039062 15.039062 C 22.902344 15.03125 22.835938 15.097656 22.835938 15.234375 L 22.800781 15.382812 L 22.6875 15.546875 C 22.558594 15.503906 22.460938 15.632812 22.492188 15.753906 L 22.492188 15.804688 C 22.359375 15.859375 22.199219 15.9375 22.210938 16.105469 L 22.207031 16.15625 C 22.140625 16.152344 22.085938 16.175781 22.046875 16.226562 C 22.003906 16.273438 21.988281 16.328125 22 16.390625 L 22 16.441406 C 21.933594 16.4375 21.878906 16.457031 21.832031 16.503906 C 21.789062 16.554688 21.773438 16.609375 21.785156 16.675781 L 21.785156 16.726562 C 21.726562 16.71875 21.671875 16.738281 21.628906 16.78125 C 21.585938 16.824219 21.566406 16.875 21.570312 16.9375 L 21.539062 17.078125 C 21.515625 17.1875 21.523438 17.328125 21.371094 17.308594 C 21.105469 17.3125 21.070312 17.625 20.953125 17.800781 C 20.875 17.890625 20.796875 17.980469 20.726562 18.074219 C 20.601562 18.050781 20.515625 18.160156 20.511719 18.277344 C 20.5 18.308594 20.476562 18.378906 20.464844 18.410156 C 20.398438 18.527344 20.410156 18.75 20.222656 18.726562 C 20.097656 18.679688 20.011719 18.796875 20.011719 18.914062 C 20 18.949219 19.96875 19.019531 19.957031 19.054688 C 19.875 19.050781 19.808594 19.078125 19.753906 19.136719 C 19.699219 19.195312 19.671875 19.265625 19.679688 19.34375 L 19.574219 19.484375 C 19.410156 19.503906 19.320312 19.59375 19.308594 19.757812 L 19.242188 19.902344 C 19.160156 19.894531 19.09375 19.917969 19.035156 19.972656 C 18.980469 20.03125 18.957031 20.101562 18.96875 20.179688 L 18.96875 20.222656 C 18.828125 20.328125 18.609375 20.410156 18.605469 20.621094 L 18.597656 20.667969 C 18.46875 20.71875 18.339844 20.796875 18.328125 20.953125 C 18.28125 21.027344 18.226562 21.101562 18.175781 21.175781 C 18.046875 21.144531 17.960938 21.261719 17.96875 21.382812 C 17.925781 21.457031 17.886719 21.535156 17.847656 21.613281 C 17.820312 21.648438 17.773438 21.714844 17.746094 21.746094 C 17.65625 21.785156 17.59375 21.847656 17.5625 21.941406 L 17.535156 21.996094 C 17.417969 22.121094 17.296875 22.242188 17.183594 22.371094 C 17.050781 22.347656 16.972656 22.46875 16.996094 22.589844 C 16.941406 22.652344 16.886719 22.71875 16.832031 22.78125 C 16.648438 22.84375 16.535156 22.972656 16.488281 23.15625 C 16.464844 23.191406 16.417969 23.257812 16.394531 23.289062 C 16.273438 23.398438 16.160156 23.515625 16.058594 23.644531 C 16.257812 23.585938 16.449219 23.511719 16.648438 23.457031 C 16.957031 23.363281 17.273438 23.308594 17.578125 23.226562 C 17.710938 23.226562 17.839844 23.226562 17.972656 23.222656 L 18.390625 23.179688 C 18.675781 23.167969 18.957031 23.160156 19.242188 23.152344 C 19.4375 23.144531 19.640625 23.109375 19.832031 23.089844 C 19.917969 23.089844 20.003906 23.085938 20.085938 23.078125 C 20.1875 23.09375 20.285156 23.082031 20.378906 23.035156 L 20.449219 23.011719 C 20.566406 23.023438 20.679688 23.011719 20.792969 22.976562 C 21.417969 22.855469 22.011719 22.660156 22.585938 22.386719 C 22.652344 22.363281 22.71875 22.339844 22.785156 22.3125 C 22.890625 22.324219 22.960938 22.285156 23.007812 22.195312 L 23.070312 22.171875 C 23.191406 22.152344 23.285156 22.09375 23.355469 22 C 23.503906 21.890625 23.695312 21.828125 23.792969 21.664062 L 23.90625 21.601562 C 24.046875 21.539062 24.140625 21.414062 24.257812 21.320312 C 24.410156 21.1875 24.550781 21.046875 24.695312 20.910156 C 24.945312 20.773438 25.128906 20.578125 25.242188 20.316406 C 25.3125 20.226562 25.390625 20.132812 25.464844 20.042969 C 25.515625 19.980469 25.566406 19.917969 25.621094 19.855469 C 25.71875 19.738281 25.808594 19.613281 25.886719 19.480469 L 25.980469 19.371094 C 26.128906 19.25 26.234375 19.097656 26.300781 18.914062 L 26.320312 18.871094 L 26.414062 18.71875 C 26.519531 18.65625 26.578125 18.5625 26.59375 18.441406 C 26.660156 18.289062 26.746094 18.148438 26.847656 18.015625 C 26.9375 17.945312 26.96875 17.828125 27.003906 17.722656 C 27.097656 17.464844 27.285156 17.257812 27.40625 17.019531 C 27.496094 16.921875 27.550781 16.808594 27.578125 16.679688 C 27.640625 16.503906 27.722656 16.335938 27.828125 16.183594 C 27.933594 16.117188 27.992188 16.027344 28.003906 15.90625 C 28.1875 15.566406 28.398438 15.242188 28.605469 14.910156 C 28.761719 14.875 28.839844 14.773438 28.835938 14.613281 C 28.992188 14.4375 29.15625 14.265625 29.328125 14.105469 C 29.53125 13.980469 29.761719 13.910156 29.984375 13.839844 C 30.195312 13.835938 30.40625 13.832031 30.621094 13.835938 L 30.75 13.855469 C 30.800781 13.9375 30.871094 13.976562 30.964844 13.980469 L 31.035156 13.996094 C 31.085938 14.121094 31.175781 14.207031 31.300781 14.261719 L 31.316406 14.332031 C 31.320312 14.429688 31.363281 14.5 31.441406 14.550781 L 31.46875 14.621094 C 31.460938 14.757812 31.457031 14.890625 31.449219 15.027344 C 31.328125 15.097656 31.300781 15.238281 31.320312 15.371094 C 31.304688 15.410156 31.265625 15.488281 31.25 15.523438 C 31.0625 15.523438 31.054688 15.746094 31.039062 15.882812 L 30.964844 16.019531 C 30.765625 16.089844 30.675781 16.335938 30.625 16.527344 L 30.609375 16.570312 C 30.558594 16.863281 30.414062 17.101562 30.175781 17.277344 C 30.019531 17.3125 30 17.488281 29.941406 17.613281 C 29.816406 17.710938 29.753906 17.839844 29.75 17.996094 C 29.644531 18.382812 29.398438 18.714844 29.171875 19.039062 C 29.101562 19.125 29.042969 19.222656 29.003906 19.332031 C 28.929688 19.515625 28.832031 19.6875 28.714844 19.851562 C 28.558594 19.835938 28.433594 19.953125 28.496094 20.113281 L 28.480469 20.164062 C 28.371094 20.285156 28.289062 20.417969 28.226562 20.570312 C 28.148438 20.738281 28.050781 20.894531 27.929688 21.039062 C 27.800781 21.058594 27.730469 21.132812 27.722656 21.261719 L 27.710938 21.3125 C 27.59375 21.34375 27.527344 21.417969 27.515625 21.539062 L 27.496094 21.585938 C 27.367188 21.695312 27.25 21.820312 27.152344 21.960938 C 26.886719 22.050781 26.699219 22.269531 26.578125 22.515625 L 26.507812 22.578125 C 26.238281 22.664062 26.074219 22.917969 25.957031 23.160156 L 25.738281 23.292969 C 25.667969 23.273438 25.613281 23.292969 25.570312 23.347656 C 25.523438 23.402344 25.515625 23.457031 25.546875 23.523438 L 25.382812 23.566406 L 25.332031 23.578125 C 25.175781 23.617188 25.015625 23.710938 24.957031 23.859375 C 24.78125 24.042969 24.546875 24.152344 24.332031 24.285156 C 24.480469 23.933594 23.804688 24.402344 23.679688 24.558594 C 22.824219 24.9375 21.933594 25.195312 21.007812 25.328125 C 20.972656 25.277344 20.921875 25.25 20.859375 25.253906 C 20.796875 25.257812 20.75 25.289062 20.722656 25.347656 C 20.605469 25.324219 20.488281 25.320312 20.371094 25.339844 L 19.953125 25.40625 C 19.480469 25.421875 19.007812 25.40625 18.535156 25.40625 C 18.296875 25.394531 18.0625 25.421875 17.835938 25.484375 L 17.753906 25.507812 L 17.414062 25.546875 C 16.898438 25.71875 16.332031 25.757812 15.859375 26.046875 C 16.015625 25.792969 15.570312 25.925781 15.65625 26.125 C 15.617188 26.214844 15.53125 26.246094 15.449219 26.28125 L 15.289062 26.328125 C 15.109375 26.355469 14.929688 26.5 14.945312 26.699219 L 14.9375 26.765625 C 14.769531 26.816406 14.597656 26.90625 14.648438 27.117188 C 14.464844 27.058594 14.460938 27.285156 14.527344 27.398438 C 14.496094 27.542969 14.441406 27.683594 14.367188 27.8125 C 14.238281 27.960938 14.054688 28.417969 14.367188 28.132812 C 14.542969 28 14.609375 27.769531 14.800781 27.652344 C 14.96875 27.703125 15.09375 27.648438 15.175781 27.492188 L 15.214844 27.453125 C 15.265625 27.480469 15.316406 27.480469 15.363281 27.453125 C 15.414062 27.429688 15.441406 27.386719 15.445312 27.332031 C 15.679688 27.253906 15.917969 27.199219 16.152344 27.117188 C 16.242188 27.128906 16.332031 27.121094 16.417969 27.097656 C 16.683594 27.109375 16.953125 27.097656 17.214844 27.097656 L 17.269531 27.101562 C 17.324219 27.214844 17.464844 27.207031 17.5625 27.167969 L 17.617188 27.1875 C 17.730469 27.328125 17.871094 27.367188 18.042969 27.3125 C 18.199219 27.382812 18.363281 27.4375 18.527344 27.476562 C 18.585938 27.605469 18.683594 27.648438 18.816406 27.601562 C 18.929688 27.65625 19.039062 27.710938 19.152344 27.761719 C 19.175781 27.910156 19.328125 27.96875 19.457031 27.945312 C 19.664062 28.082031 19.84375 28.269531 20.09375 28.324219 C 20.050781 28.453125 20.175781 28.535156 20.289062 28.535156 L 20.4375 28.582031 C 20.40625 28.707031 20.535156 28.777344 20.644531 28.742188 L 20.785156 28.890625 C 20.804688 29.03125 20.90625 29.1875 21.070312 29.136719 C 21.1875 29.242188 21.308594 29.339844 21.4375 29.429688 C 21.539062 29.726562 21.789062 29.941406 22.070312 30.074219 C 22.117188 30.117188 22.167969 30.164062 22.210938 30.207031 C 22.1875 30.273438 22.199219 30.332031 22.246094 30.378906 C 22.292969 30.429688 22.351562 30.445312 22.417969 30.421875 C 22.535156 30.519531 22.652344 30.617188 22.769531 30.707031 C 22.898438 30.859375 23.039062 31 23.195312 31.128906 C 23.417969 31.4375 23.699219 31.695312 23.953125 31.976562 C 24.007812 32.167969 24.132812 32.289062 24.324219 32.335938 C 24.511719 32.550781 24.695312 32.769531 24.902344 32.964844 C 24.886719 33.046875 24.910156 33.117188 24.96875 33.175781 C 25.027344 33.234375 25.097656 33.253906 25.175781 33.238281 C 25.265625 33.359375 25.359375 33.476562 25.449219 33.597656 C 25.605469 33.988281 25.996094 34.199219 26.3125 34.441406 C 26.46875 34.636719 26.625 34.832031 26.777344 35.027344 C 26.992188 35.347656 27.125 35.191406 27.003906 34.867188 C 27.003906 34.632812 27.003906 34.394531 27.003906 34.160156 C 27.078125 33.960938 27.132812 33.757812 27.167969 33.546875 C 27.292969 33.382812 27.40625 33.210938 27.511719 33.035156 C 27.578125 32.949219 27.648438 32.867188 27.71875 32.789062 L 27.789062 32.757812 C 27.917969 32.710938 28.042969 32.65625 28.164062 32.589844 C 28.304688 32.550781 28.441406 32.511719 28.578125 32.472656 L 29.066406 32.472656 L 29.265625 32.4375 C 29.40625 32.507812 29.546875 32.515625 29.691406 32.464844 C 30.15625 32.605469 30.601562 32.796875 31.027344 33.039062 C 31.226562 33.351562 31.480469 33.617188 31.792969 33.824219 C 31.824219 33.910156 31.851562 34.003906 31.933594 34.054688 L 31.945312 34.097656 C 31.945312 34.25 32.117188 34.277344 32.234375 34.316406 C 32.246094 34.023438 32.226562 33.734375 32.175781 33.449219 C 32.207031 33.324219 32.1875 33.207031 32.109375 33.097656 C 31.96875 32.601562 31.878906 32.09375 31.660156 31.625 C 31.484375 31.230469 31.160156 30.917969 31.019531 30.503906 C 31.003906 30.382812 30.9375 30.304688 30.824219 30.265625 L 30.824219 30.148438 C 30.851562 30.078125 30.839844 30.019531 30.785156 29.972656 C 30.730469 29.921875 30.667969 29.917969 30.605469 29.953125 C 30.566406 29.78125 30.507812 29.617188 30.316406 29.582031 C 30.300781 29.542969 30.273438 29.46875 30.261719 29.429688 C 30.160156 29.128906 29.875 28.929688 29.609375 28.792969 C 29.597656 28.753906 29.574219 28.671875 29.5625 28.632812 C 29.550781 28.46875 29.398438 28.40625 29.257812 28.386719 L 29.210938 28.214844 C 29.210938 28.089844 29.09375 28.039062 28.984375 28.039062 C 29.015625 27.867188 28.914062 27.777344 28.757812 27.734375 C 28.757812 27.601562 28.757812 27.410156 28.597656 27.367188 L 28.492188 27.324219 C 28.042969 26.664062 27.804688 25.859375 27.699219 25.070312 C 27.707031 24.777344 27.695312 24.484375 27.667969 24.195312 L 27.671875 24.082031 C 27.695312 23.886719 27.710938 23.691406 27.707031 23.496094 C 27.707031 23.441406 27.71875 23.332031 27.722656 23.273438 C 27.839844 23.234375 27.804688 23.089844 27.773438 23.003906 C 27.894531 22.632812 27.988281 22.261719 28.078125 21.886719 C 28.214844 21.832031 28.257812 21.734375 28.207031 21.597656 C 28.273438 21.464844 28.324219 21.328125 28.367188 21.1875 C 28.496094 21.125 28.535156 21.027344 28.492188 20.890625 C 28.636719 20.578125 28.757812 20.253906 28.859375 19.925781 C 28.988281 19.925781 29.023438 19.792969 28.984375 19.691406 C 29.015625 19.625 29.042969 19.558594 29.074219 19.492188 C 29.128906 19.410156 29.183594 19.332031 29.238281 19.25 C 29.304688 19.378906 29.355469 19.507812 29.398438 19.640625 C 29.386719 19.742188 29.425781 19.8125 29.519531 19.851562 L 29.539062 19.917969 C 29.535156 20.03125 29.578125 20.121094 29.664062 20.195312 L 29.679688 20.265625 C 29.664062 20.367188 29.703125 20.441406 29.792969 20.484375 C 29.851562 20.546875 29.882812 20.617188 29.894531 20.699219 C 29.890625 20.804688 29.929688 20.894531 30.003906 20.96875 C 30.089844 21.167969 30.261719 21.3125 30.3125 21.527344 C 30.347656 21.703125 30.46875 21.84375 30.578125 21.980469 C 30.652344 22.210938 30.839844 22.34375 30.953125 22.542969 L 30.960938 22.585938 C 31.042969 22.890625 31.34375 23.082031 31.601562 23.222656 L 31.652344 23.25 L 31.769531 23.332031 C 31.917969 23.527344 32.1875 23.414062 32.390625 23.394531 C 32.523438 23.367188 32.640625 23.3125 32.742188 23.226562 C 32.808594 23.179688 32.871094 23.128906 32.933594 23.078125 L 33.027344 23.007812 L 33.160156 22.953125 C 33.277344 22.9375 33.324219 22.828125 33.363281 22.734375 L 33.496094 22.667969 C 33.660156 22.597656 33.792969 22.472656 33.945312 22.386719 C 34.0625 22.363281 34.183594 22.316406 34.21875 22.1875 C 34.289062 22.164062 34.355469 22.136719 34.417969 22.105469 C 34.5625 22.050781 34.710938 22 34.863281 21.964844 C 34.984375 21.953125 35.09375 21.914062 35.191406 21.847656 C 35.503906 21.765625 35.808594 21.644531 36.121094 21.601562 C 36.21875 21.617188 36.308594 21.601562 36.394531 21.558594 L 36.585938 21.527344 C 37.457031 21.585938 37.460938 20.5 37.699219 19.910156 C 37.796875 19.816406 37.859375 19.707031 37.882812 19.570312 C 37.914062 19.457031 37.96875 19.351562 38.039062 19.257812 C 38.101562 19.28125 38.15625 19.269531 38.203125 19.222656 C 38.25 19.171875 38.261719 19.117188 38.234375 19.054688 L 38.234375 19.011719 C 38.46875 18.75 38.800781 18.617188 39.09375 18.4375 C 39.355469 18.375 39.585938 18.226562 39.8125 18.085938 C 40.023438 17.976562 40.234375 17.875 40.449219 17.78125 C 40.582031 17.742188 40.640625 17.601562 40.722656 17.503906 L 40.773438 17.5 C 40.941406 17.515625 41.019531 17.359375 41.0625 17.226562 C 41.140625 17.171875 41.214844 17.109375 41.277344 17.035156 C 41.441406 16.957031 41.589844 16.835938 41.628906 16.648438 L 41.71875 16.535156 C 41.921875 16.320312 42.074219 16.066406 42.234375 15.828125 C 42.339844 15.761719 42.398438 15.667969 42.40625 15.546875 C 42.910156 14.617188 43.296875 13.609375 43.429688 12.554688 C 43.46875 12.445312 43.476562 12.332031 43.460938 12.21875 C 43.460938 12.125 43.46875 12.03125 43.480469 11.941406 C 43.433594 11.734375 43.761719 11.09375 43.328125 11.21875 C 43.3125 11.429688 43.320312 11.640625 43.320312 11.855469 C 43.328125 12.144531 43.296875 12.472656 43.117188 12.703125 C 42.925781 12.796875 42.894531 13.015625 42.890625 13.207031 C 42.847656 13.359375 42.816406 13.640625 42.609375 13.625 C 42.472656 13.589844 42.382812 13.714844 42.410156 13.835938 C 42.355469 13.898438 42.300781 13.964844 42.242188 14.027344 C 42.078125 14.144531 41.859375 14.238281 41.847656 14.472656 C 41.851562 14.5625 41.804688 14.613281 41.714844 14.628906 C 41.816406 14.359375 41.558594 14.515625 41.550781 14.683594 L 41.40625 14.742188 C 41.320312 14.742188 41.214844 14.785156 41.214844 14.882812 C 40.773438 15.316406 39.917969 15.480469 39.285156 15.589844 C 39.1875 15.570312 39.097656 15.585938 39.011719 15.628906 L 38.785156 15.667969 C 38.675781 15.660156 38.570312 15.660156 38.460938 15.664062 C 38.238281 15.664062 38.023438 15.664062 37.796875 15.667969 C 37.664062 15.660156 37.53125 15.65625 37.398438 15.648438 C 37.308594 15.558594 37.210938 15.554688 37.105469 15.628906 C 36.285156 15.515625 35.367188 15.359375 34.632812 14.933594 C 34.578125 14.871094 34.503906 14.835938 34.421875 14.828125 C 33.929688 14.6875 33.375 14.378906 33.066406 14.023438 C 33.089844 13.960938 33.078125 13.910156 33.03125 13.863281 C 32.984375 13.816406 32.933594 13.804688 32.871094 13.828125 L 32.820312 13.828125 C 32.691406 13.835938 32.53125 13.847656 32.582031 13.664062 C 32.640625 13.476562 32.300781 13.382812 32.441406 13.617188 C 32.320312 13.632812 32.273438 13.578125 32.292969 13.457031 C 32.316406 13.398438 32.304688 13.34375 32.257812 13.296875 C 32.210938 13.25 32.160156 13.238281 32.097656 13.261719 L 32.050781 13.261719 C 31.949219 13.121094 31.871094 12.910156 31.667969 12.910156 L 31.621094 12.902344 C 31.53125 12.761719 31.402344 12.632812 31.375 12.457031 L 31.53125 12.511719 C 31.660156 12.574219 31.792969 12.613281 31.9375 12.621094 L 32.09375 12.65625 C 32.203125 12.691406 32.3125 12.707031 32.429688 12.703125 C 32.835938 12.789062 33.242188 12.859375 33.648438 12.941406 C 33.765625 12.980469 33.882812 12.988281 34.003906 12.96875 C 34.140625 12.976562 34.277344 12.980469 34.414062 12.988281 C 34.503906 13.042969 34.597656 13.066406 34.703125 13.054688 C 34.8125 13.058594 34.914062 13.0625 35.027344 13.0625 L 35.476562 13.160156 C 35.570312 13.199219 35.664062 13.210938 35.761719 13.191406 C 35.875 13.199219 35.988281 13.207031 36.101562 13.210938 C 36.214844 13.269531 36.335938 13.285156 36.464844 13.261719 L 36.949219 13.28125 C 37.066406 13.339844 37.1875 13.355469 37.3125 13.332031 C 37.425781 13.335938 37.539062 13.347656 37.648438 13.363281 C 37.960938 13.433594 38.285156 13.394531 38.597656 13.40625 C 38.679688 13.410156 38.765625 13.410156 38.851562 13.40625 C 39.097656 13.410156 39.34375 13.394531 39.589844 13.355469 C 40.035156 13.3125 40.445312 13.132812 40.863281 12.988281 C 41.015625 13 41.132812 12.945312 41.21875 12.820312 C 41.296875 12.777344 41.371094 12.722656 41.4375 12.664062 C 41.503906 12.605469 41.5625 12.542969 41.625 12.484375 C 41.707031 12.496094 41.773438 12.472656 41.832031 12.414062 C 41.890625 12.351562 41.910156 12.28125 41.894531 12.199219 C 41.949219 12.136719 42 12.070312 42.058594 12.007812 C 42.246094 11.933594 42.328125 11.746094 42.417969 11.574219 C 42.667969 11.222656 42.78125 10.800781 42.917969 10.390625 C 42.960938 10.195312 42.988281 10 43.003906 9.800781 C 43 9.710938 42.988281 9.527344 42.984375 9.4375 C 42.976562 9.316406 42.957031 9.074219 42.949219 8.953125 C 42.96875 8.878906 42.992188 8.804688 43.019531 8.730469 C 43.089844 8.8125 43.152344 8.902344 43.226562 8.980469 C 43.335938 9.113281 43.433594 9.253906 43.519531 9.402344 C 43.539062 9.46875 43.566406 9.535156 43.601562 9.59375 C 43.628906 9.671875 43.664062 9.742188 43.710938 9.808594 C 43.871094 10.199219 44.027344 10.597656 44.148438 11.003906 C 44.171875 11.179688 44.214844 11.351562 44.273438 11.519531 C 44.320312 11.703125 44.355469 11.886719 44.375 12.074219 C 44.355469 12.195312 44.371094 12.308594 44.421875 12.414062 C 44.429688 12.507812 44.4375 12.601562 44.441406 12.691406 C 44.453125 12.796875 44.476562 13.007812 44.488281 13.117188 C 44.496094 13.308594 44.496094 13.5 44.492188 13.691406 C 44.441406 13.804688 44.425781 13.921875 44.445312 14.046875 C 44.445312 14.15625 44.445312 14.269531 44.449219 14.382812 C 44.441406 14.929688 44.253906 15.464844 44.019531 15.949219 C 43.828125 16.121094 43.734375 16.335938 43.730469 16.589844 C 43.734375 16.664062 43.710938 16.730469 43.65625 16.78125 C 43.496094 16.960938 43.363281 17.160156 43.253906 17.375 C 43.175781 17.5 43.226562 17.757812 43.019531 17.730469 C 42.890625 17.683594 42.804688 17.800781 42.804688 17.917969 L 42.753906 18.058594 C 42.6875 18.046875 42.632812 18.066406 42.589844 18.113281 C 42.542969 18.160156 42.527344 18.21875 42.539062 18.28125 C 42.398438 18.449219 42.257812 18.613281 42.117188 18.773438 L 42.046875 18.847656 C 41.949219 18.917969 41.851562 18.988281 41.753906 19.058594 C 41.617188 19.0625 41.554688 19.132812 41.5625 19.269531 C 41.597656 19.441406 41.433594 19.417969 41.3125 19.417969 L 41.265625 19.417969 C 41.203125 19.394531 41.148438 19.402344 41.101562 19.449219 C 41.054688 19.496094 41.042969 19.550781 41.066406 19.609375 C 40.921875 19.828125 40.652344 19.90625 40.417969 19.988281 C 40.335938 20.003906 40.265625 20.039062 40.207031 20.097656 C 40.128906 20.152344 40.042969 20.234375 39.941406 20.222656 C 39.800781 20.191406 39.539062 20.199219 39.574219 20.398438 C 39.511719 20.816406 39.335938 21.347656 39.15625 21.652344 C 38.980469 21.578125 38.988281 21.832031 39.007812 21.9375 C 39.039062 22.0625 39.023438 22.132812 38.957031 22.140625 C 38.738281 22.070312 38.730469 22.449219 38.710938 22.597656 C 38.675781 22.691406 38.703125 22.929688 38.589844 22.921875 C 38.414062 22.84375 38.429688 23.105469 38.4375 23.210938 C 38.238281 23.355469 38.019531 23.472656 37.792969 23.566406 L 37.722656 23.5 C 37.699219 23.332031 37.511719 23.34375 37.390625 23.394531 C 37.234375 23.417969 37.09375 23.386719 36.964844 23.292969 C 36.726562 23.183594 36.492188 23.183594 36.257812 23.292969 C 35.835938 23.457031 35.425781 23.648438 35.03125 23.867188 L 34.988281 23.867188 C 34.921875 23.847656 34.867188 23.859375 34.820312 23.90625 C 34.773438 23.949219 34.757812 24.003906 34.773438 24.070312 L 34.625 24.128906 C 34.511719 24.136719 34.394531 24.214844 34.414062 24.34375 L 34.359375 24.347656 C 34.230469 24.324219 34.160156 24.445312 34.15625 24.558594 C 34.140625 24.75 33.785156 24.769531 33.730469 24.878906 C 33.679688 24.695312 33.425781 24.886719 33.359375 24.988281 C 33.28125 25.074219 33.183594 25.105469 33.070312 25.085938 C 32.929688 25.03125 32.726562 24.980469 32.605469 25.109375 C 32.519531 25.257812 32.304688 25.140625 32.222656 25.050781 C 32.207031 25.003906 32.175781 24.972656 32.132812 24.953125 C 32.085938 24.9375 32.042969 24.941406 32 24.964844 C 31.835938 24.902344 31.640625 24.859375 31.535156 24.699219 C 31.429688 24.570312 31.308594 24.453125 31.199219 24.328125 C 31.140625 24.242188 31.070312 24.171875 30.980469 24.117188 C 30.921875 24.054688 30.867188 23.992188 30.8125 23.929688 C 30.835938 23.808594 30.75 23.679688 30.613281 23.71875 C 30.402344 23.765625 30.453125 23.492188 30.402344 23.363281 C 30.402344 23.199219 30.335938 23.070312 30.195312 22.976562 C 30.15625 22.90625 30.148438 22.722656 30.027344 22.78125 C 29.925781 22.699219 29.867188 22.441406 29.828125 22.285156 C 29.84375 22.160156 29.84375 22.007812 29.703125 21.960938 C 29.503906 21.742188 29.476562 21.386719 29.410156 21.105469 C 29.539062 20.636719 29.023438 20.058594 29.191406 20.976562 C 29.1875 21.058594 29.191406 21.144531 29.199219 21.230469 C 29.1875 21.589844 29.121094 21.941406 29.003906 22.285156 C 28.753906 22.214844 28.933594 22.847656 28.84375 22.953125 C 28.839844 23.0625 28.828125 23.167969 28.816406 23.277344 C 28.75 23.667969 28.753906 24.058594 28.828125 24.449219 C 28.828125 24.53125 28.835938 24.617188 28.839844 24.703125 C 28.824219 24.820312 28.835938 24.941406 28.875 25.054688 C 28.957031 25.445312 29.058594 25.828125 29.183594 26.207031 C 29.179688 26.316406 29.21875 26.402344 29.300781 26.472656 L 29.316406 26.53125 C 29.34375 26.824219 29.480469 27.03125 29.839844 26.890625 L 30.027344 26.914062 C 30.496094 27.039062 30.980469 27.109375 31.445312 27.25 C 31.507812 27.28125 31.574219 27.304688 31.640625 27.324219 C 31.71875 27.355469 31.796875 27.386719 31.871094 27.421875 C 31.960938 27.523438 32.074219 27.558594 32.207031 27.53125 C 32.378906 27.59375 32.542969 27.671875 32.699219 27.765625 C 32.910156 27.890625 33.136719 27.992188 33.355469 28.097656 C 33.4375 28.179688 33.535156 28.234375 33.648438 28.257812 C 33.605469 28.382812 33.730469 28.46875 33.847656 28.445312 L 33.890625 28.445312 L 34.070312 28.539062 C 34.113281 28.625 34.167969 28.714844 34.273438 28.730469 C 34.367188 28.792969 34.453125 28.863281 34.539062 28.933594 C 34.71875 29.242188 34.964844 29.484375 35.277344 29.65625 C 35.421875 29.773438 35.566406 29.890625 35.703125 30.015625 C 35.773438 30.117188 35.824219 30.253906 35.953125 30.28125 C 36.039062 30.316406 36.113281 30.367188 36.175781 30.433594 C 36.292969 30.558594 36.40625 30.683594 36.535156 30.796875 C 36.691406 30.902344 36.703125 30.613281 36.691406 30.515625 C 36.722656 30.332031 36.777344 30.164062 36.859375 30 C 36.945312 29.898438 37.003906 29.785156 37.027344 29.652344 C 37.078125 29.554688 37.144531 29.460938 37.207031 29.371094 C 37.285156 29.324219 37.378906 29.273438 37.390625 29.171875 L 37.46875 29.023438 C 37.800781 28.839844 38.03125 28.535156 38.261719 28.246094 L 38.328125 28.234375 C 38.441406 28.234375 38.484375 28.125 38.527344 28.042969 L 38.597656 28.027344 C 38.730469 28.023438 38.828125 27.964844 38.890625 27.84375 L 38.941406 27.804688 C 39.074219 27.777344 39.191406 27.722656 39.296875 27.636719 C 39.796875 27.390625 40.320312 27.214844 40.867188 27.105469 C 41.003906 27.089844 41.136719 27.058594 41.265625 27.035156 C 41.386719 27.054688 41.503906 27.042969 41.621094 27.003906 L 41.757812 26.972656 C 42.164062 26.964844 42.570312 26.964844 42.976562 26.960938 L 43.160156 26.992188 C 43.242188 27.007812 43.320312 27.023438 43.402344 27.035156 C 43.488281 27.046875 43.574219 27.054688 43.660156 27.058594 C 43.746094 27.105469 43.84375 27.125 43.941406 27.113281 C 44.445312 27.230469 44.960938 27.34375 45.429688 27.566406 C 45.5 27.648438 45.589844 27.691406 45.699219 27.683594 C 45.824219 27.710938 45.9375 27.765625 46.035156 27.847656 C 46.167969 27.96875 46.320312 28.058594 46.492188 28.117188 C 46.714844 28.238281 46.929688 28.375 47.132812 28.527344 L 47.269531 28.59375 C 47.265625 28.671875 47.292969 28.738281 47.351562 28.792969 C 47.410156 28.847656 47.476562 28.871094 47.558594 28.863281 C 47.742188 29.15625 48.066406 29.304688 48.269531 29.582031 C 48.257812 29.707031 48.3125 29.785156 48.433594 29.8125 C 48.515625 29.96875 48.609375 30.113281 48.726562 30.25 C 48.785156 30.375 48.855469 30.492188 48.9375 30.605469 C 49.019531 30.707031 49.070312 30.816406 49.097656 30.945312 C 49.085938 31.046875 49.125 31.117188 49.222656 31.15625 L 49.242188 31.21875 C 49.25 31.34375 49.289062 31.453125 49.359375 31.554688 C 49.425781 31.746094 49.480469 31.941406 49.523438 32.136719 C 49.519531 32.230469 49.535156 32.320312 49.574219 32.40625 C 49.578125 32.441406 49.589844 32.515625 49.597656 32.554688 C 49.609375 32.65625 49.632812 32.859375 49.644531 32.960938 C 49.660156 33.246094 49.660156 33.53125 49.644531 33.816406 C 49.636719 33.925781 49.613281 34.136719 49.601562 34.242188 C 49.597656 34.332031 49.601562 34.417969 49.609375 34.507812 C 49.566406 34.710938 49.59375 35.128906 49.488281 35.207031 C 49.292969 35.125 49.367188 35.53125 49.320312 35.65625 C 49.292969 35.828125 49.238281 36.105469 49.128906 36.191406 C 48.898438 36.148438 48.847656 36.585938 48.828125 36.789062 C 48.816406 37.007812 48.640625 37.203125 48.46875 37.332031 C 48.253906 37.421875 48.183594 37.667969 48.050781 37.835938 C 48.007812 37.898438 47.964844 37.964844 47.921875 38.03125 C 47.777344 38.132812 47.648438 38.25 47.539062 38.390625 C 47.394531 38.527344 47.257812 38.671875 47.128906 38.828125 L 47.0625 38.984375 C 47.011719 39.097656 47.160156 39.160156 47.246094 39.191406 L 47.277344 39.246094 C 47.300781 39.363281 47.351562 39.460938 47.429688 39.550781 C 47.488281 39.648438 47.570312 39.730469 47.613281 39.832031 C 47.609375 39.941406 47.648438 40.03125 47.734375 40.097656 C 47.894531 40.441406 48 40.796875 48.046875 41.167969 C 48.035156 41.273438 48.054688 41.367188 48.109375 41.453125 C 48.109375 41.554688 48.109375 41.660156 48.109375 41.761719 C 48.046875 41.957031 48.058594 42.15625 48.050781 42.359375 C 48.023438 42.523438 48.042969 42.84375 47.921875 42.902344 C 47.75 42.824219 47.761719 43.082031 47.769531 43.1875 C 47.71875 43.375 47.660156 43.648438 47.480469 43.757812 C 47.335938 43.789062 47.257812 43.878906 47.25 44.027344 C 47.085938 44.105469 46.972656 44.230469 46.914062 44.40625 L 46.84375 44.539062 C 46.679688 44.847656 46.835938 45.21875 46.792969 45.546875 C 46.785156 45.660156 46.769531 45.777344 46.753906 45.890625 C 46.714844 46.046875 46.695312 46.210938 46.6875 46.371094 C 46.644531 46.46875 46.628906 46.566406 46.644531 46.671875 C 46.636719 46.722656 46.621094 46.824219 46.613281 46.875 C 46.601562 46.976562 46.578125 47.183594 46.566406 47.289062 C 46.402344 48.167969 46.171875 49.167969 45.707031 49.914062 C 45.558594 49.910156 45.527344 50.070312 45.511719 50.183594 C 45.496094 50.253906 45.480469 50.324219 45.460938 50.398438 C 45.292969 50.800781 45.089844 51.21875 44.785156 51.535156 C 44.699219 51.589844 44.632812 51.660156 44.582031 51.746094 C 44.457031 51.71875 44.371094 51.832031 44.371094 51.949219 C 44.359375 51.984375 44.328125 52.054688 44.316406 52.089844 C 44.234375 52.085938 44.167969 52.113281 44.109375 52.167969 C 44.054688 52.226562 44.027344 52.296875 44.035156 52.375 L 43.949219 52.519531 C 43.660156 52.695312 43.421875 52.929688 43.238281 53.21875 C 43.125 53.324219 43.011719 53.425781 42.890625 53.519531 C 42.714844 53.519531 42.617188 53.605469 42.597656 53.777344 C 42.523438 53.839844 42.460938 53.90625 42.398438 53.980469 C 42.339844 54.042969 42.269531 54.078125 42.1875 54.09375 C 42.089844 54.117188 42.019531 54.175781 41.976562 54.265625 C 41.746094 54.558594 41.339844 54.640625 41.058594 54.855469 C 41.28125 54.566406 40.664062 54.8125 40.707031 55 C 40.6875 55.027344 40.65625 55.082031 40.640625 55.105469 C 40.640625 54.96875 40.507812 55.03125 40.425781 55.066406 C 39.691406 55.199219 39.007812 55.511719 38.277344 55.667969 C 35.847656 56.214844 33.285156 56.035156 30.910156 55.324219 C 29.183594 54.757812 27.582031 53.726562 26.484375 52.261719 C 25.671875 51.144531 25.128906 49.675781 25.53125 48.292969 C 25.710938 47.1875 26.589844 46.414062 27.429688 45.769531 C 26.992188 45.546875 26.535156 45.371094 26.085938 45.179688 C 22.332031 43.621094 19.105469 41.320312 16.410156 38.277344 C 16.339844 38.074219 16.285156 37.828125 16.050781 37.769531 C 15.980469 37.660156 15.902344 37.554688 15.835938 37.441406 C 15.851562 37.234375 15.765625 37.078125 15.578125 36.980469 C 15.523438 36.800781 15.449219 36.597656 15.265625 36.511719 C 15.054688 36.324219 14.984375 36.035156 14.851562 35.796875 C 14.910156 35.675781 14.863281 35.53125 14.722656 35.511719 C 14.707031 35.375 14.640625 35.28125 14.515625 35.226562 L 14.507812 35.175781 C 14.507812 34.960938 14.476562 34.628906 14.214844 34.59375 C 14.109375 34.386719 14.011719 34.175781 13.929688 33.960938 C 13.984375 33.808594 14.011719 33.585938 13.808594 33.546875 C 13.816406 33.382812 13.789062 33.226562 13.664062 33.113281 C 13.695312 32.902344 13.648438 32.714844 13.523438 32.546875 C 13.4375 32.394531 13.390625 32.226562 13.375 32.054688 C 13.488281 31.75 13.453125 31.628906 13.28125 31.691406 C 13.265625 31.578125 13.25 31.460938 13.234375 31.351562 C 13.277344 31.25 13.285156 31.125 13.1875 31.050781 C 13.183594 31.003906 13.175781 30.910156 13.171875 30.863281 C 13.324219 30.429688 12.78125 30.292969 12.96875 30.925781 C 12.96875 31.046875 12.976562 31.292969 12.980469 31.417969 C 12.972656 31.46875 12.957031 31.566406 12.949219 31.617188 C 12.863281 31.71875 12.867188 31.855469 12.898438 31.976562 C 12.773438 32.101562 12.75 32.265625 12.832031 32.464844 C 12.824219 33.222656 12.824219 33.980469 12.828125 34.734375 C 12.796875 34.828125 12.820312 34.902344 12.898438 34.960938 C 13.011719 37.558594 13.519531 40.125 14.257812 42.617188 C 14.347656 42.765625 14.546875 42.820312 14.707031 42.816406 C 17.042969 43.226562 19.34375 43.796875 21.601562 44.527344 C 21.953125 44.792969 21.324219 44.648438 21.1875 44.648438 C 19.015625 44.261719 16.820312 44.089844 14.652344 43.769531 C 15.550781 47.117188 17.53125 50.136719 20.074219 52.472656 C 21.308594 53.589844 22.644531 54.664062 24.238281 55.226562 C 25.863281 55.816406 27.515625 56.304688 29.199219 56.695312 C 29.363281 56.738281 29.566406 56.792969 29.636719 56.96875 C 29.539062 57.175781 29.300781 57.25 29.085938 57.269531 C 26.503906 57.539062 24.09375 56.402344 21.726562 55.546875 C 19.894531 54.855469 18.125 53.886719 16.753906 52.46875 C 15.648438 51.40625 14.875 50.0625 14.109375 48.757812 C 14.003906 48.617188 13.890625 48.453125 13.878906 48.277344 C 13.902344 48.164062 13.867188 48.046875 13.753906 48.011719 C 13.523438 47.761719 13.386719 47.398438 13.316406 47.066406 C 13.332031 46.941406 13.332031 46.785156 13.1875 46.742188 C 12.53125 45.375 12.039062 43.847656 11.691406 42.359375 C 11.691406 42.136719 11.695312 41.898438 11.550781 41.71875 C 11.285156 41.21875 11.246094 40.621094 11.125 40.078125 C 11.210938 39.835938 11.183594 39.714844 11.054688 39.71875 C 10.914062 39.546875 10.90625 39.035156 10.847656 38.742188 C 10.867188 38.648438 10.851562 38.558594 10.808594 38.46875 L 10.785156 38.335938 C 10.761719 38.0625 10.808594 37.761719 10.644531 37.523438 C 10.644531 37.4375 10.644531 37.355469 10.632812 37.273438 C 10.648438 37.148438 10.636719 37.03125 10.597656 36.914062 C 10.5625 36.742188 10.53125 36.570312 10.5 36.398438 C 10.5 36.289062 10.5 36.179688 10.492188 36.070312 C 10.511719 35.972656 10.496094 35.878906 10.445312 35.789062 C 10.4375 35.597656 10.433594 35.410156 10.425781 35.226562 C 10.414062 35.027344 10.394531 34.835938 10.367188 34.640625 C 10.335938 33.988281 10.332031 33.332031 10.375 32.675781 Z M 32.066406 35.546875 C 32.007812 35.480469 31.957031 35.40625 31.917969 35.324219 C 31.914062 35.179688 31.9375 34.839844 31.707031 34.976562 C 31.625 34.914062 31.605469 34.8125 31.574219 34.722656 L 31.589844 34.667969 C 31.664062 34.546875 31.492188 34.375 31.378906 34.472656 C 31.40625 34.371094 31.285156 34.226562 31.179688 34.261719 L 31.164062 34.199219 C 31.148438 34.066406 31.03125 33.980469 30.941406 33.890625 C 31.046875 33.777344 30.863281 33.597656 30.753906 33.699219 C 30.679688 33.636719 30.617188 33.535156 30.511719 33.554688 C 30.253906 33.445312 30.03125 33.265625 29.75 33.203125 C 29.925781 33.117188 29.617188 33.042969 29.558594 33.136719 C 29.496094 33.066406 29.285156 33.054688 29.285156 33.175781 C 29.105469 33.191406 28.941406 33.300781 28.792969 33.40625 C 28.503906 33.421875 28.457031 33.742188 28.503906 33.972656 L 28.492188 34.167969 C 28.394531 34.367188 28.378906 34.628906 28.441406 34.953125 C 28.375 35.011719 28.371094 35.214844 28.488281 35.210938 C 28.496094 35.269531 28.515625 35.382812 28.523438 35.4375 C 28.449219 35.5 28.433594 35.722656 28.5625 35.710938 C 28.550781 35.839844 28.546875 35.988281 28.65625 36.078125 C 28.570312 36.164062 28.640625 36.382812 28.773438 36.34375 C 28.773438 36.433594 28.804688 36.511719 28.867188 36.578125 C 28.789062 36.691406 28.882812 36.953125 29.039062 36.917969 C 29.066406 37.023438 29.125 37.117188 29.207031 37.191406 C 29.128906 37.410156 29.324219 37.496094 29.488281 37.566406 L 29.5 37.628906 C 29.417969 37.78125 29.644531 37.933594 29.777344 37.867188 C 29.902344 38.085938 29.972656 38.394531 30.277344 38.386719 C 30.234375 38.570312 30.445312 38.753906 30.621094 38.753906 L 30.785156 38.828125 C 30.671875 38.933594 30.855469 39.101562 30.964844 39.039062 L 31.019531 39.027344 C 31.136719 39.308594 31.554688 39.386719 31.824219 39.523438 C 31.765625 39.628906 31.949219 39.734375 32.027344 39.648438 C 32.078125 39.714844 32.148438 39.753906 32.234375 39.757812 C 32.160156 39.878906 32.375 39.953125 32.445312 39.863281 C 32.640625 40.011719 32.855469 40.109375 33.09375 40.167969 C 33.042969 40.273438 33.230469 40.367188 33.304688 40.289062 L 33.375 40.304688 C 33.339844 40.441406 33.558594 40.515625 33.644531 40.425781 C 33.90625 40.597656 34.195312 40.699219 34.503906 40.734375 C 34.453125 40.839844 34.636719 40.929688 34.710938 40.847656 C 35.777344 41.285156 36.957031 41.546875 38.097656 41.683594 C 38.199219 41.773438 38.363281 41.769531 38.480469 41.722656 C 38.535156 41.859375 38.808594 41.800781 38.933594 41.765625 C 39.425781 41.789062 39.9375 41.835938 40.433594 41.765625 C 40.515625 41.832031 40.738281 41.84375 40.761719 41.726562 C 41.261719 41.710938 41.726562 41.582031 42.164062 41.347656 C 42.441406 41.265625 42.871094 41.246094 42.980469 40.960938 L 43.109375 40.851562 L 43.257812 40.808594 C 43.359375 40.824219 43.40625 40.777344 43.398438 40.675781 L 43.445312 40.648438 C 43.652344 40.667969 43.847656 40.445312 43.816406 40.242188 C 43.730469 40.265625 43.511719 40.160156 43.527344 40.304688 L 43.378906 40.324219 C 43.296875 40.289062 43.078125 40.253906 43.066406 40.382812 C 42.949219 40.339844 42.785156 40.308594 42.6875 40.410156 C 42.386719 40.375 42.0625 40.339844 41.761719 40.410156 C 41.664062 40.3125 41.5 40.34375 41.378906 40.382812 C 41.390625 40.265625 41.195312 40.285156 41.136719 40.339844 C 41.039062 40.25 40.945312 40.25 40.847656 40.339844 C 40.832031 40.1875 40.363281 40.089844 40.363281 40.230469 C 39.59375 40.070312 38.855469 39.820312 38.148438 39.480469 C 38.167969 39.3125 37.765625 39.144531 37.734375 39.320312 L 37.589844 39.265625 C 37.761719 39.175781 37.351562 39 37.332031 39.164062 C 37.015625 39.039062 36.667969 39.003906 36.367188 38.84375 C 36.457031 38.695312 36.140625 38.582031 36.117188 38.75 C 35.886719 38.625 35.636719 38.527344 35.398438 38.417969 C 35.601562 38.296875 34.777344 37.933594 34.691406 38.050781 L 34.601562 37.984375 C 34.742188 37.785156 34.210938 37.667969 34.414062 37.914062 C 34.222656 37.828125 34.089844 37.648438 33.890625 37.566406 C 34 37.375 33.609375 37.25 33.769531 37.496094 C 33.695312 37.441406 33.621094 37.394531 33.542969 37.347656 C 33.570312 37.226562 33.402344 37.058594 33.28125 37.09375 C 33.332031 36.945312 33.210938 36.792969 33.054688 36.863281 L 33.003906 36.792969 C 32.960938 36.519531 32.695312 36.359375 32.480469 36.222656 C 32.539062 36.125 32.398438 35.972656 32.296875 36.019531 C 32.273438 35.941406 32.242188 35.863281 32.199219 35.792969 C 32.289062 35.710938 32.191406 35.484375 32.066406 35.546875 Z M 36.179688 31.5 C 34.835938 30.683594 33.863281 29.425781 32.65625 28.445312 C 31.695312 27.910156 30.714844 27.332031 29.628906 27.117188 C 29.46875 27.03125 29.566406 27.28125 29.59375 27.34375 C 30.546875 28.886719 31.917969 30.179688 32.609375 31.886719 C 33.171875 33.242188 32.488281 34.949219 33.527344 36.121094 C 34.121094 36.894531 35.007812 37.546875 35.980469 37.695312 C 35.792969 37.1875 35.292969 36.777344 35.125 36.210938 C 34.777344 35.089844 34.4375 33.710938 35.199219 32.679688 C 35.421875 32.199219 36.28125 32.117188 36.179688 31.5 Z M 47.109375 34.804688 C 47.316406 34.453125 47.382812 34.007812 47.417969 33.601562 C 47.496094 33.578125 47.609375 32.824219 47.394531 32.824219 C 47.464844 32.757812 47.464844 32.542969 47.339844 32.558594 C 47.304688 32.191406 47.148438 31.851562 47.023438 31.503906 C 47.09375 31.433594 47.011719 31.25 46.910156 31.292969 L 46.898438 31.238281 C 46.941406 31.058594 46.804688 30.777344 46.621094 30.78125 L 46.640625 30.734375 C 46.660156 30.523438 46.441406 30.398438 46.257812 30.375 C 46.175781 30.191406 45.976562 29.90625 45.753906 29.894531 C 45.671875 29.851562 45.601562 29.796875 45.53125 29.738281 C 45.632812 29.628906 45.421875 29.386719 45.363281 29.574219 C 45.144531 29.503906 44.972656 29.347656 44.777344 29.234375 C 44.824219 29.128906 44.636719 29.054688 44.566406 29.121094 L 44.433594 29.03125 C 44.445312 28.863281 44.042969 28.703125 44.023438 28.867188 C 43.582031 28.683594 43.113281 28.578125 42.652344 28.460938 C 42.671875 28.324219 42.363281 28.3125 42.347656 28.425781 L 42.234375 28.390625 C 42.246094 28.324219 41.382812 28.121094 41.40625 28.4375 C 41.144531 28.472656 40.871094 28.484375 40.621094 28.578125 C 40.585938 28.421875 40.238281 28.507812 40.3125 28.675781 C 40.226562 28.710938 40.140625 28.75 40.054688 28.789062 C 40.035156 28.632812 39.734375 28.746094 39.824219 28.886719 C 39.78125 28.949219 39.722656 28.992188 39.648438 29.015625 C 39.859375 28.773438 39.3125 28.894531 39.46875 29.085938 C 39.414062 29.160156 39.34375 29.21875 39.257812 29.253906 L 39.089844 29.292969 C 38.863281 29.363281 38.59375 29.554688 38.585938 29.8125 L 38.605469 29.859375 C 38.335938 29.796875 38.371094 30.144531 38.328125 30.316406 C 38.203125 30.257812 38.109375 30.484375 38.195312 30.566406 C 38.167969 30.640625 38.140625 30.714844 38.117188 30.792969 C 37.882812 30.773438 37.953125 31.074219 37.953125 31.222656 C 37.824219 31.222656 37.859375 31.464844 37.914062 31.546875 C 37.835938 31.640625 37.828125 31.738281 37.894531 31.84375 C 37.746094 31.921875 37.792969 32.191406 37.847656 32.328125 L 37.742188 32.492188 C 37.445312 32.53125 36.683594 32.320312 36.558594 32.542969 L 36.425781 32.632812 L 36.355469 32.617188 C 36.253906 32.613281 36.164062 32.648438 36.089844 32.722656 C 36.019531 32.796875 35.984375 32.886719 35.984375 32.988281 L 36.003906 33.066406 C 35.941406 33.171875 35.886719 33.289062 35.851562 33.410156 C 35.746094 33.441406 35.664062 34.183594 35.835938 34.304688 C 35.835938 34.746094 35.964844 35.148438 36.214844 35.511719 C 36.132812 35.628906 36.226562 35.890625 36.382812 35.851562 C 36.519531 36.125 36.613281 36.5 36.890625 36.640625 C 36.984375 36.757812 37.085938 36.867188 37.1875 36.972656 C 37.226562 37.167969 37.386719 37.429688 37.613281 37.398438 L 37.773438 37.480469 C 37.664062 37.585938 37.847656 37.753906 37.957031 37.691406 L 38.007812 37.679688 C 38.050781 37.894531 38.339844 37.964844 38.527344 38.035156 L 38.574219 38.078125 C 38.539062 38.1875 38.726562 38.234375 38.792969 38.167969 L 38.871094 38.191406 C 38.839844 38.328125 39.058594 38.394531 39.148438 38.304688 C 39.53125 38.472656 39.933594 38.683594 40.359375 38.6875 C 40.351562 38.816406 40.574219 38.800781 40.632812 38.726562 L 40.785156 38.761719 C 40.863281 38.890625 41.128906 38.863281 41.261719 38.800781 C 41.5 38.84375 41.742188 38.84375 41.980469 38.800781 C 42.0625 38.867188 42.285156 38.878906 42.3125 38.761719 C 42.726562 38.738281 43.167969 38.660156 43.53125 38.449219 C 43.621094 38.535156 43.839844 38.460938 43.800781 38.328125 L 43.871094 38.308594 C 43.949219 38.386719 44.132812 38.300781 44.082031 38.191406 C 44.167969 38.199219 44.234375 38.167969 44.28125 38.097656 C 44.453125 38.078125 44.625 38.03125 44.664062 37.84375 C 44.75 37.820312 44.871094 37.785156 44.875 37.675781 L 45.015625 37.636719 C 45.191406 37.554688 45.46875 37.421875 45.429688 37.191406 C 45.675781 37.089844 45.839844 36.914062 45.925781 36.660156 C 46.0625 36.730469 46.285156 36.574219 46.207031 36.417969 L 46.226562 36.339844 C 46.34375 36.429688 46.492188 36.246094 46.425781 36.136719 L 46.410156 36.082031 C 46.585938 36.125 46.589844 35.980469 46.597656 35.851562 C 46.722656 35.898438 46.808594 35.679688 46.761719 35.582031 C 46.882812 35.433594 46.964844 35.261719 47 35.070312 C 47.125 35.113281 47.195312 34.890625 47.109375 34.804688 Z M 27.644531 49.742188 C 27.601562 49.851562 27.613281 49.957031 27.679688 50.054688 C 27.609375 50.113281 27.589844 50.324219 27.710938 50.320312 C 27.691406 50.4375 27.722656 50.539062 27.804688 50.621094 C 27.714844 50.691406 27.796875 50.902344 27.917969 50.832031 L 27.96875 50.953125 C 27.921875 51.054688 27.980469 51.300781 28.125 51.25 C 28.191406 51.382812 28.15625 51.648438 28.363281 51.621094 L 28.351562 51.671875 C 28.289062 51.785156 28.453125 51.964844 28.5625 51.859375 C 28.597656 51.945312 28.648438 52.023438 28.714844 52.089844 C 28.773438 52.308594 28.960938 52.59375 29.214844 52.582031 L 29.367188 52.664062 C 29.257812 52.777344 29.445312 52.960938 29.558594 52.855469 L 29.628906 52.878906 C 29.59375 52.976562 29.722656 53.144531 29.832031 53.074219 C 29.898438 53.113281 29.964844 53.144531 30.039062 53.171875 C 30.179688 53.453125 30.53125 53.632812 30.832031 53.648438 C 31.726562 54.050781 32.683594 54.351562 33.660156 54.4375 C 33.660156 54.558594 33.871094 54.539062 33.925781 54.46875 C 34.023438 54.539062 34.128906 54.550781 34.238281 54.507812 C 34.273438 54.640625 34.527344 54.585938 34.628906 54.535156 C 34.730469 54.632812 34.894531 54.628906 35.015625 54.578125 C 35.308594 54.6875 36.425781 54.691406 36.722656 54.578125 C 36.867188 54.609375 37.046875 54.632812 37.171875 54.535156 C 37.253906 54.605469 37.488281 54.636719 37.511719 54.511719 L 37.648438 54.488281 C 37.84375 54.441406 38.1875 54.546875 38.308594 54.359375 C 38.640625 54.285156 39.132812 54.296875 39.363281 54.066406 C 39.402344 54.09375 39.449219 54.097656 39.492188 54.078125 C 39.539062 54.0625 39.570312 54.027344 39.582031 53.980469 C 39.742188 53.972656 40.074219 53.882812 40.136719 53.714844 C 40.238281 53.761719 40.3125 53.730469 40.355469 53.621094 C 40.621094 53.5 41.039062 53.359375 41.199219 53.097656 C 41.277344 53.046875 41.351562 52.992188 41.417969 52.929688 C 41.550781 52.988281 41.738281 52.808594 41.667969 52.675781 C 41.75 52.636719 41.824219 52.585938 41.894531 52.523438 C 42.089844 52.476562 42.339844 52.320312 42.324219 52.09375 C 42.457031 51.996094 42.554688 51.871094 42.613281 51.710938 C 42.761719 51.820312 42.9375 51.59375 42.894531 51.453125 L 42.894531 51.394531 C 43.027344 51.417969 43.191406 51.261719 43.171875 51.125 C 43.183594 51.085938 43.210938 51.007812 43.222656 50.96875 C 43.328125 50.96875 43.34375 50.832031 43.394531 50.765625 C 43.5625 50.738281 43.605469 50.515625 43.675781 50.382812 L 43.65625 50.332031 C 43.847656 50.386719 43.820312 50.15625 43.867188 50.039062 C 43.890625 50.003906 43.9375 49.9375 43.964844 49.902344 C 44.125 49.941406 44.214844 49.679688 44.136719 49.5625 C 44.714844 48.769531 45.089844 47.808594 45.296875 46.859375 C 45.453125 46.875 45.484375 46.628906 45.410156 46.53125 C 45.496094 46.417969 45.53125 46.292969 45.503906 46.152344 C 45.628906 46.167969 45.628906 45.878906 45.503906 45.898438 C 45.558594 45.683594 45.449219 45.785156 45.347656 45.863281 C 45.429688 45.660156 44.972656 45.808594 45.105469 45.964844 C 44.679688 46.183594 44.257812 46.425781 43.808594 46.601562 C 43.792969 46.425781 43.46875 46.523438 43.558594 46.679688 C 42.691406 47.066406 41.757812 47.277344 40.828125 47.4375 C 40.84375 47.308594 40.546875 47.320312 40.585938 47.453125 L 40.136719 47.542969 C 40.078125 47.464844 39.851562 47.449219 39.863281 47.582031 L 39.640625 47.613281 C 39.546875 47.523438 39.449219 47.523438 39.355469 47.613281 C 39.25 47.574219 39 47.515625 38.96875 47.652344 C 38.847656 47.597656 38.675781 47.589844 38.578125 47.691406 C 38.480469 47.621094 38.207031 47.585938 38.191406 47.734375 C 38.050781 47.8125 37.902344 47.726562 37.753906 47.742188 C 37.128906 47.726562 36.5 47.683594 35.875 47.742188 C 35.925781 47.527344 35.359375 47.671875 35.191406 47.679688 C 35.082031 47.582031 34.890625 47.601562 34.777344 47.683594 C 34.683594 47.480469 34.273438 47.515625 34.054688 47.527344 L 33.824219 47.503906 C 33.824219 47.382812 33.535156 47.398438 33.515625 47.5 C 33.429688 47.484375 33.34375 47.472656 33.253906 47.457031 C 33.285156 47.328125 33.070312 47.324219 33.007812 47.398438 C 32.910156 47.3125 32.816406 47.3125 32.722656 47.40625 C 32.496094 47.363281 32.273438 47.308594 32.054688 47.242188 C 32.082031 47.117188 31.867188 47.113281 31.808594 47.183594 L 31.566406 47.152344 C 31.546875 47.023438 31.242188 47.046875 31.191406 47.128906 L 31.078125 47.101562 C 30.855469 46.941406 30.636719 46.941406 30.414062 47.101562 C 30.332031 47.121094 30.25 47.136719 30.167969 47.152344 C 30.179688 47.023438 29.882812 47.039062 29.929688 47.171875 C 29.453125 47.296875 28.984375 47.464844 28.585938 47.757812 C 28.484375 47.714844 28.414062 47.832031 28.34375 47.886719 C 28.230469 47.785156 28.050781 47.976562 28.15625 48.085938 L 28.167969 48.171875 C 27.988281 48.480469 27.6875 48.757812 27.707031 49.148438 C 27.582031 49.144531 27.589844 49.351562 27.644531 49.429688 C 27.539062 49.441406 27.515625 49.734375 27.644531 49.742188 Z M 14.652344 30.972656 C 14.6875 31.527344 14.800781 32.113281 15.082031 32.597656 C 15.039062 32.78125 15.171875 32.917969 15.285156 33.042969 C 15.4375 33.542969 15.660156 34.011719 15.953125 34.449219 C 15.871094 34.550781 15.984375 34.789062 16.125 34.722656 C 16.164062 34.828125 16.222656 34.925781 16.296875 35.011719 C 16.203125 35.09375 16.335938 35.277344 16.4375 35.195312 C 16.480469 35.316406 16.4375 35.566406 16.636719 35.507812 C 16.695312 35.800781 16.886719 36.144531 17.128906 36.285156 C 17.253906 36.402344 17.21875 36.710938 17.445312 36.628906 C 17.398438 36.742188 17.503906 36.933594 17.632812 36.921875 L 17.628906 36.976562 C 17.570312 37.117188 17.753906 37.347656 17.898438 37.238281 L 17.898438 37.320312 C 17.894531 37.503906 18.078125 37.71875 18.273438 37.683594 C 18.28125 37.769531 18.347656 37.832031 18.398438 37.894531 C 18.507812 38.167969 18.746094 38.460938 19.035156 38.546875 C 19.054688 38.5625 19.089844 38.597656 19.105469 38.613281 C 19.261719 38.90625 19.550781 39.324219 19.898438 39.375 C 20.019531 39.472656 20.070312 39.691406 20.261719 39.664062 C 20.15625 39.765625 20.324219 39.945312 20.4375 39.863281 C 20.507812 39.9375 20.589844 39.988281 20.6875 40.019531 C 20.589844 40.152344 20.789062 40.351562 20.929688 40.28125 L 21.109375 40.367188 C 21.003906 40.46875 21.171875 40.660156 21.285156 40.566406 C 21.378906 40.730469 21.566406 40.773438 21.722656 40.867188 C 21.746094 40.960938 21.871094 40.96875 21.945312 41.007812 C 21.890625 41.105469 22.03125 41.28125 22.140625 41.199219 C 22.5625 41.535156 23.007812 41.832031 23.480469 42.089844 C 23.441406 42.230469 23.683594 42.28125 23.78125 42.242188 L 23.832031 42.285156 C 23.765625 42.40625 23.960938 42.496094 24.039062 42.40625 C 24.097656 42.511719 24.1875 42.570312 24.308594 42.582031 C 24.34375 42.789062 24.617188 42.769531 24.777344 42.824219 C 24.867188 42.917969 24.976562 42.980469 25.105469 43.007812 C 25.070312 43.164062 25.332031 43.253906 25.445312 43.179688 C 25.59375 43.285156 25.761719 43.453125 25.945312 43.449219 C 25.988281 43.554688 26.0625 43.585938 26.164062 43.539062 C 26.285156 43.730469 26.632812 43.832031 26.863281 43.871094 C 26.90625 43.976562 26.980469 44.011719 27.078125 43.964844 L 27.234375 44.050781 C 27.195312 44.1875 27.421875 44.25 27.507812 44.164062 L 27.566406 44.195312 C 27.503906 44.324219 27.714844 44.398438 27.792969 44.308594 L 27.863281 44.328125 C 27.828125 44.460938 28.046875 44.539062 28.132812 44.449219 C 28.347656 44.597656 28.582031 44.6875 28.839844 44.71875 C 28.882812 44.828125 28.957031 44.855469 29.058594 44.808594 C 30.492188 45.414062 32.144531 45.855469 33.730469 46.101562 C 33.730469 46.21875 33.9375 46.203125 33.996094 46.136719 L 34.238281 46.167969 C 34.238281 46.308594 34.480469 46.261719 34.558594 46.207031 L 34.789062 46.246094 C 34.84375 46.371094 35.089844 46.339844 35.195312 46.265625 C 35.332031 46.382812 35.472656 46.386719 35.613281 46.277344 C 35.621094 46.527344 36.078125 46.332031 36.257812 46.378906 C 36.894531 46.378906 37.535156 46.398438 38.171875 46.355469 C 38.253906 46.421875 38.488281 46.425781 38.488281 46.296875 C 38.6875 46.308594 38.894531 46.328125 39.089844 46.28125 C 39.195312 46.339844 39.433594 46.363281 39.488281 46.246094 L 39.625 46.222656 C 39.820312 46.175781 40.167969 46.28125 40.292969 46.085938 L 40.429688 46.0625 C 40.484375 46.136719 40.703125 46.15625 40.679688 46.027344 L 40.917969 45.996094 C 41.71875 45.863281 42.570312 45.691406 43.320312 45.367188 C 43.410156 45.453125 43.625 45.378906 43.589844 45.242188 L 43.660156 45.222656 C 43.753906 45.308594 43.976562 45.242188 43.945312 45.101562 L 44.015625 45.082031 C 44.140625 45.164062 44.402344 45.074219 44.375 44.902344 L 44.4375 44.875 C 44.558594 44.949219 44.824219 44.867188 44.792969 44.703125 C 44.882812 44.695312 44.949219 44.652344 44.996094 44.574219 C 45.09375 44.617188 45.332031 44.5625 45.289062 44.421875 C 45.445312 44.378906 45.675781 44.296875 45.710938 44.125 L 45.773438 44.113281 C 46.082031 43.996094 46.300781 43.789062 46.429688 43.488281 C 46.441406 43.457031 46.460938 43.398438 46.472656 43.367188 C 46.574219 43.4375 46.667969 43.253906 46.597656 43.1875 L 46.625 43.140625 C 46.847656 43.117188 46.902344 42.8125 46.90625 42.625 C 46.996094 42.523438 46.992188 42.394531 46.976562 42.269531 C 47.144531 42.246094 47.101562 41.960938 47.03125 41.847656 C 47.164062 41.871094 47.183594 41.574219 47.046875 41.605469 C 46.976562 41.238281 46.878906 40.882812 46.753906 40.535156 C 46.808594 40.273438 46.675781 39.941406 46.394531 39.875 C 46.5 39.746094 46.335938 39.570312 46.195312 39.605469 L 46.207031 39.554688 C 46.257812 39.210938 45.753906 39.414062 45.796875 39.683594 L 45.703125 39.730469 C 45.632812 39.535156 45.296875 39.925781 45.449219 40.113281 L 45.308594 40.320312 C 45.105469 40.25 45.019531 40.460938 45.109375 40.617188 C 44.871094 40.488281 44.847656 40.808594 44.8125 40.964844 L 44.730469 41.027344 C 44.445312 41.074219 44.273438 41.238281 44.214844 41.523438 L 44.15625 41.507812 C 44.039062 41.445312 43.90625 41.636719 43.992188 41.730469 C 43.921875 41.800781 43.84375 41.855469 43.75 41.894531 L 43.570312 41.9375 C 43.46875 41.882812 43.25 42.019531 43.34375 42.140625 C 43.210938 42.304688 42.988281 42.394531 42.808594 42.488281 C 43.027344 42.328125 42.609375 42.304688 42.707031 42.507812 L 42.601562 42.558594 C 42.566406 42.375 42.285156 42.566406 42.242188 42.707031 C 41.785156 42.863281 41.3125 42.96875 40.832031 43.023438 C 40.71875 42.941406 40.527344 42.917969 40.417969 43.015625 C 39.972656 42.976562 39.511719 42.949219 39.066406 43.011719 C 38.972656 42.941406 38.878906 42.9375 38.78125 43 C 38.730469 42.859375 38.484375 42.886719 38.371094 42.949219 L 38.128906 42.910156 C 38.148438 42.792969 37.875 42.804688 37.890625 42.910156 C 37.609375 42.882812 37.332031 42.816406 37.066406 42.71875 C 37.117188 42.589844 36.820312 42.558594 36.832031 42.6875 C 36.292969 42.546875 35.753906 42.410156 35.226562 42.222656 C 35.304688 42.050781 34.957031 41.972656 34.921875 42.128906 C 34.726562 42.054688 34.523438 41.992188 34.324219 41.9375 C 34.367188 41.832031 34.179688 41.75 34.109375 41.820312 C 33.960938 41.78125 33.820312 41.726562 33.679688 41.65625 C 33.8125 41.511719 33.496094 41.398438 33.488281 41.578125 C 33.386719 41.535156 33.285156 41.492188 33.179688 41.449219 C 33.269531 41.300781 32.953125 41.1875 32.933594 41.355469 L 32.84375 41.3125 C 32.929688 41.097656 32.398438 40.925781 32.367188 41.074219 L 32.277344 41.027344 C 32.402344 40.820312 31.683594 40.585938 31.941406 40.871094 C 31.875 40.839844 31.816406 40.796875 31.757812 40.75 C 31.847656 40.640625 31.578125 40.507812 31.574219 40.664062 C 31.300781 40.523438 31.039062 40.363281 30.792969 40.183594 C 30.875 39.992188 30.097656 39.570312 30.304688 39.890625 C 30.25 39.851562 30.195312 39.8125 30.144531 39.773438 C 30.273438 39.621094 29.828125 39.375 29.808594 39.535156 C 29.707031 39.464844 29.609375 39.382812 29.503906 39.3125 C 29.613281 39.171875 29.386719 38.980469 29.242188 39.039062 L 29.191406 39.050781 L 29.109375 39.03125 C 29.089844 38.90625 28.949219 38.761719 28.816406 38.765625 C 28.902344 38.65625 28.746094 38.480469 28.628906 38.554688 C 28.5625 38.476562 28.476562 38.425781 28.378906 38.398438 C 28.484375 38.292969 28.3125 38.109375 28.199219 38.203125 C 28.082031 38.105469 27.988281 37.941406 27.824219 37.921875 C 27.878906 37.734375 27.65625 37.539062 27.476562 37.554688 C 27.382812 37.453125 27.28125 37.363281 27.167969 37.28125 C 27.242188 37.179688 27.054688 37.089844 26.984375 37.15625 C 26.839844 36.917969 26.609375 36.589844 26.328125 36.515625 C 26.285156 36.46875 26.242188 36.421875 26.195312 36.375 C 26.089844 36.085938 25.769531 35.898438 25.578125 35.652344 C 25.476562 35.324219 25.261719 35.113281 24.929688 35.019531 C 24.898438 34.867188 24.757812 34.773438 24.660156 34.660156 C 24.597656 34.449219 24.410156 34.128906 24.152344 34.175781 C 24.128906 34.023438 23.980469 33.925781 23.882812 33.816406 C 23.824219 33.597656 23.632812 33.289062 23.375 33.320312 C 23.34375 33.171875 23.203125 33.078125 23.109375 32.96875 C 22.945312 32.578125 22.542969 32.234375 22.167969 32.058594 C 21.996094 31.699219 21.601562 31.449219 21.339844 31.132812 C 21.15625 30.773438 20.816406 30.328125 20.417969 30.207031 C 20.347656 30.15625 20.285156 30.054688 20.1875 30.089844 C 20.085938 29.988281 19.988281 29.886719 19.894531 29.777344 C 20.003906 29.6875 19.855469 29.496094 19.738281 29.566406 L 19.5625 29.507812 C 19.597656 29.421875 19.5 29.230469 19.390625 29.300781 C 19.339844 29.230469 19.238281 29.132812 19.144531 29.183594 C 18.9375 29.074219 18.746094 28.941406 18.570312 28.785156 C 18.652344 28.664062 18.429688 28.527344 18.328125 28.59375 C 18.257812 28.523438 18.175781 28.507812 18.085938 28.542969 C 17.410156 28.226562 16.574219 27.894531 15.839844 28.152344 C 15.550781 27.945312 14.832031 28.5 14.871094 28.949219 C 14.78125 29.15625 14.710938 29.371094 14.664062 29.59375 C 14.488281 29.589844 14.523438 29.890625 14.609375 29.988281 L 14.609375 30.050781 C 14.523438 30.148438 14.519531 30.246094 14.605469 30.34375 L 14.605469 30.484375 C 14.546875 30.621094 14.492188 30.917969 14.652344 30.972656 Z M 14.652344 30.972656 " fill-opacity="1" fill-rule="nonzero"></path></g></svg>