<svg xmlns="http://www.w3.org/2000/svg" xmlns:xlink="http://www.w3.org/1999/xlink" width="80" viewBox="0 0 60 60" height="80" preserveAspectRatio="xMidYMid meet"><defs><clipPath id="4c466dbd5d"><path d="M 6 1.742188 L 54.421875 1.742188 L 54.421875 57.992188 L 6 57.992188 Z M 6 1.742188 " clip-rule="nonzero"></path></clipPath></defs><g clip-path="url(#4c466dbd5d)"><path fill="#c89a69" d="M 19.003906 15.105469 C 19.171875 16.171875 19.808594 17.09375 20.027344 18.128906 C 18.699219 18.050781 18.09375 16.082031 19.003906 15.105469 Z M 41.863281 16.335938 C 41.863281 15.875 41.707031 15.445312 41.433594 15.125 C 41.28125 16.191406 40.621094 17.082031 40.433594 18.117188 C 41.234375 18.019531 41.863281 17.257812 41.863281 16.335938 Z M 20.082031 13.554688 C 22.863281 12.628906 25.339844 11.332031 27.625 9.519531 C 27.84375 9.320312 28.207031 9.289062 28.4375 9.464844 C 31.40625 11.621094 36.949219 12.410156 40.355469 13.621094 C 40.398438 13.136719 40.378906 11.015625 40.378906 10.496094 C 40.390625 5.683594 36.464844 1.757812 31.625 1.757812 L 28.8125 1.757812 C 23.984375 1.757812 20.0625 5.683594 20.0625 10.519531 C 20.070312 10.949219 20.0625 13.167969 20.082031 13.554688 Z M 31.96875 26.902344 C 25.589844 28.648438 20.535156 20.171875 21.027344 14.597656 C 23.625 13.71875 25.933594 12.453125 28.097656 10.804688 C 30.363281 12.488281 36.375 13.707031 39.058594 14.585938 C 39.191406 14.632812 39.3125 14.664062 39.421875 14.6875 C 39.664062 19.6875 36.78125 25.085938 31.96875 26.902344 Z M 25.933594 17.851562 C 26.425781 17.832031 26.921875 17.621094 27.304688 17.28125 C 27.933594 16.71875 27.085938 15.753906 26.460938 16.3125 C 26.359375 16.402344 26.140625 16.554688 25.855469 16.566406 C 25.523438 16.589844 25.25 16.390625 25.164062 16.3125 C 24.523438 15.765625 23.679688 16.730469 24.316406 17.292969 C 24.546875 17.5 25.226562 17.917969 25.933594 17.851562 Z M 31.914062 21.402344 C 31.636719 21.644531 31.066406 22.050781 30.285156 22.097656 C 29.328125 22.152344 28.625 21.632812 28.363281 21.402344 C 28.097656 21.160156 27.691406 21.195312 27.449219 21.457031 C 26.703125 22.359375 28.746094 23.382812 30.140625 23.382812 C 31.285156 23.414062 32.386719 22.734375 32.769531 22.359375 C 33.398438 21.808594 32.550781 20.84375 31.914062 21.402344 Z M 36.167969 17.269531 C 36.792969 16.710938 35.949219 15.742188 35.320312 16.300781 C 35.222656 16.390625 35 16.542969 34.714844 16.554688 C 34.386719 16.578125 34.113281 16.390625 34.023438 16.300781 C 33.757812 16.0625 33.34375 16.09375 33.109375 16.359375 C 32.867188 16.621094 32.902344 17.027344 33.164062 17.269531 C 33.804688 17.929688 35.296875 18.117188 36.167969 17.269531 Z M 27.4375 27.902344 C 27.296875 28.59375 27.140625 29.296875 26.988281 30 C 28.800781 31.640625 31.683594 31.75 33.472656 30.011719 C 33.332031 29.308594 33.164062 28.605469 33.011719 27.914062 C 31.253906 28.617188 29.207031 28.617188 27.4375 27.902344 Z M 25.820312 45.449219 C 25.757812 45.523438 25.273438 46.160156 25.207031 46.207031 C 24.996094 46.414062 24.480469 46.636719 24.21875 46.753906 L 24.832031 49.261719 L 25.941406 49.164062 L 28.800781 48.074219 C 29.261719 47.898438 29.539062 47.449219 29.492188 46.953125 C 29.472656 46.886719 29.449219 45.808594 29.351562 45.820312 C 29.328125 45.800781 29.296875 45.789062 29.242188 45.800781 C 29.242188 45.800781 26.515625 46.625 26.515625 46.625 C 26.042969 46.789062 25.558594 46.292969 25.710938 45.820312 Z M 33.957031 46.636719 L 31.230469 45.820312 C 31.144531 45.789062 31.078125 45.832031 31.054688 45.929688 C 31 46.699219 30.726562 47.746094 31.671875 48.085938 L 34.519531 49.175781 L 35.628906 49.273438 L 36.253906 46.765625 C 36.011719 46.65625 35.464844 46.425781 35.277344 46.226562 C 35.167969 46.160156 34.726562 45.558594 34.640625 45.457031 C 34.640625 45.457031 34.75 45.84375 34.75 45.84375 C 34.925781 46.304688 34.417969 46.800781 33.957031 46.636719 Z M 35.738281 51.660156 C 35.386719 51.59375 35.144531 51.207031 35.234375 50.867188 L 35.320312 50.527344 C 35.199219 50.503906 34.242188 50.449219 34.144531 50.394531 L 31.207031 49.285156 C 30.8125 49.140625 30.484375 48.886719 30.230469 48.582031 C 29.976562 48.886719 29.648438 49.128906 29.242188 49.285156 L 26.304688 50.394531 C 26.207031 50.449219 25.261719 50.503906 25.128906 50.527344 C 25.292969 50.964844 25.273438 51.527344 24.710938 51.648438 L 17.3125 53.109375 C 17.300781 54.683594 17.289062 56.253906 17.289062 57.816406 L 43.105469 57.816406 C 43.09375 56.289062 43.070312 54.628906 43.058594 53.097656 Z M 35.992188 39.90625 L 31.375 44.535156 C 30.96875 44.492188 30.527344 44.613281 30.230469 44.898438 C 29.890625 44.578125 29.382812 44.46875 28.933594 44.566406 C 28.933594 44.566406 24.28125 39.90625 24.28125 39.90625 C 21.425781 36.882812 25.734375 32.585938 28.746094 35.441406 L 29.679688 36.378906 C 29.921875 36.628906 30.351562 36.628906 30.59375 36.378906 C 30.59375 36.378906 31.527344 35.453125 31.527344 35.453125 C 32.714844 34.222656 34.804688 34.234375 35.992188 35.441406 C 37.222656 36.675781 37.222656 38.675781 35.992188 39.90625 Z M 28.128906 38.125 C 28.109375 37.113281 26.625 37.113281 26.613281 38.125 C 26.625 39.136719 28.109375 39.136719 28.128906 38.125 Z M 31.460938 40.578125 C 31.253906 40.753906 30.835938 41.0625 30.253906 41.09375 C 29.539062 41.136719 29.011719 40.742188 28.824219 40.578125 C 28.558594 40.335938 28.152344 40.367188 27.910156 40.632812 C 27.230469 41.5 28.898438 42.359375 30.152344 42.390625 C 31.097656 42.414062 32.011719 41.851562 32.320312 41.542969 C 32.945312 40.984375 32.097656 40.015625 31.460938 40.578125 Z M 32.925781 37.355469 C 31.921875 37.355469 31.921875 38.894531 32.925781 38.90625 C 33.925781 38.882812 33.925781 37.367188 32.925781 37.355469 Z M 45.554688 36.3125 C 43.597656 33.53125 40.574219 31.230469 37.253906 30.5625 L 35.144531 30.121094 C 32.738281 33.300781 27.769531 33.199219 25.328125 30.121094 C 22.820312 30.550781 20.257812 31.230469 18.203125 32.882812 C 15.640625 34.617188 9.519531 43.523438 7.449219 45.964844 C 4.921875 49.65625 8.914062 52.738281 12.410156 52.648438 C 14.980469 52.460938 21.09375 50.976562 23.808594 50.539062 C 23.710938 50.097656 22.863281 46.765625 22.753906 46.304688 C 22.753906 46.304688 16.675781 46.46875 16.675781 46.46875 C 16.09375 46.523438 15.773438 45.710938 16.234375 45.335938 C 17.90625 43.863281 19.300781 42.050781 20.304688 40.058594 C 20.46875 39.742188 20.851562 39.609375 21.171875 39.773438 C 21.492188 39.941406 21.621094 40.324219 21.457031 40.644531 C 20.632812 42.292969 19.578125 43.808594 18.300781 45.140625 L 23.238281 45.007812 C 23.558594 44.996094 23.808594 45.207031 23.886719 45.503906 L 24.335938 45.273438 L 25.582031 43.710938 C 25.679688 43.578125 25.84375 43.511719 25.976562 43.445312 C 25.976562 43.445312 23.371094 40.839844 23.371094 40.839844 C 19.171875 36.113281 26.007812 30.222656 30.140625 35.023438 C 34.308594 30.210938 41.105469 36.113281 36.902344 40.839844 L 34.363281 43.378906 C 34.539062 43.480469 34.761719 43.535156 34.890625 43.710938 C 34.890625 43.710938 36.113281 45.261719 36.113281 45.261719 C 36.179688 45.335938 36.484375 45.457031 36.574219 45.503906 C 36.640625 45.195312 36.9375 44.976562 37.222656 44.996094 L 41.90625 45.117188 C 40.585938 43.851562 39.5625 42.269531 38.925781 40.554688 C 38.804688 40.226562 38.980469 39.851562 39.3125 39.730469 C 39.652344 39.609375 40.027344 39.773438 40.148438 40.117188 C 40.90625 42.191406 42.324219 44.019531 44.136719 45.28125 C 44.65625 45.625 44.367188 46.492188 43.753906 46.457031 L 37.71875 46.292969 C 37.597656 46.753906 36.773438 50.097656 36.660156 50.527344 L 43.828125 51.945312 L 44.347656 52.03125 C 45.589844 52.230469 46.84375 52.429688 48.085938 52.636719 C 50.449219 52.582031 53.394531 51.316406 53.734375 48.710938 C 53.867188 47.722656 53.605469 46.746094 53 45.964844 C 52.976562 45.953125 45.554688 36.3125 45.554688 36.3125 Z M 47.160156 10.210938 C 47.347656 10.210938 47.523438 10.136719 47.65625 9.980469 L 50.25 6.902344 C 50.789062 6.253906 49.8125 5.429688 49.261719 6.066406 C 49.261719 6.066406 46.667969 9.144531 46.667969 9.144531 C 46.304688 9.542969 46.632812 10.222656 47.160156 10.210938 Z M 54.042969 18.128906 L 50.382812 18.128906 C 50.03125 18.128906 49.734375 18.414062 49.734375 18.777344 C 49.734375 19.128906 50.019531 19.425781 50.382812 19.425781 L 54.042969 19.425781 C 54.394531 19.425781 54.691406 19.140625 54.691406 18.777344 C 54.679688 18.425781 54.394531 18.128906 54.042969 18.128906 Z M 49.261719 31.484375 C 49.8125 32.121094 50.789062 31.296875 50.25 30.648438 C 50.25 30.648438 47.65625 27.570312 47.65625 27.570312 C 47.105469 26.933594 46.128906 27.757812 46.667969 28.40625 C 46.667969 28.40625 49.261719 31.484375 49.261719 31.484375 Z M 13.609375 9.980469 C 14.15625 10.617188 15.136719 9.792969 14.597656 9.144531 C 14.597656 9.144531 12.003906 6.066406 12.003906 6.066406 C 11.453125 5.429688 10.472656 6.253906 11.011719 6.902344 C 11.023438 6.902344 13.609375 9.980469 13.609375 9.980469 Z M 7.21875 19.425781 L 10.882812 19.425781 C 11.726562 19.425781 11.726562 18.136719 10.882812 18.136719 L 7.21875 18.136719 C 6.375 18.136719 6.375 19.414062 7.21875 19.425781 Z M 13.609375 27.570312 L 11.011719 30.648438 C 10.472656 31.296875 11.453125 32.121094 12.003906 31.484375 C 12.003906 31.484375 14.597656 28.40625 14.597656 28.40625 C 15.136719 27.757812 14.15625 26.933594 13.609375 27.570312 Z M 13.609375 27.570312 " fill-opacity="1" fill-rule="nonzero"></path></g></svg>