<svg xmlns="http://www.w3.org/2000/svg" xmlns:xlink="http://www.w3.org/1999/xlink" width="80" viewBox="0 0 60 60" height="80" preserveAspectRatio="xMidYMid meet"><defs><clipPath id="4d7bafa789"><path d="M 29 2.265625 L 52.257812 2.265625 L 52.257812 26 L 29 26 Z M 29 2.265625 " clip-rule="nonzero"></path></clipPath><clipPath id="a76962e2e1"><path d="M 8 15 L 47 15 L 47 57.015625 L 8 57.015625 Z M 8 15 " clip-rule="nonzero"></path></clipPath></defs><g clip-path="url(#4d7bafa789)"><path fill="#c89a69" d="M 52.207031 13.726562 C 52.207031 14.476562 52.132812 15.222656 51.984375 15.960938 C 51.839844 16.699219 51.621094 17.417969 51.332031 18.113281 C 51.046875 18.804688 50.691406 19.46875 50.273438 20.09375 C 49.855469 20.71875 49.382812 21.296875 48.851562 21.828125 C 48.316406 22.363281 47.738281 22.835938 47.113281 23.253906 C 46.488281 23.671875 45.828125 24.027344 45.132812 24.3125 C 44.4375 24.601562 43.71875 24.820312 42.980469 24.964844 C 42.242188 25.113281 41.5 25.1875 40.746094 25.1875 C 39.992188 25.1875 39.25 25.113281 38.511719 24.964844 C 37.773438 24.820312 37.054688 24.601562 36.359375 24.3125 C 35.664062 24.027344 35.003906 23.671875 34.378906 23.253906 C 33.753906 22.835938 33.175781 22.363281 32.640625 21.828125 C 32.109375 21.296875 31.636719 20.71875 31.21875 20.09375 C 30.800781 19.46875 30.445312 18.804688 30.15625 18.113281 C 29.871094 17.417969 29.652344 16.699219 29.503906 15.960938 C 29.359375 15.222656 29.285156 14.476562 29.285156 13.726562 C 29.285156 12.972656 29.359375 12.226562 29.503906 11.488281 C 29.652344 10.75 29.871094 10.035156 30.15625 9.339844 C 30.445312 8.644531 30.800781 7.984375 31.21875 7.359375 C 31.636719 6.734375 32.109375 6.152344 32.640625 5.621094 C 33.175781 5.089844 33.753906 4.613281 34.378906 4.195312 C 35.003906 3.777344 35.664062 3.425781 36.359375 3.136719 C 37.054688 2.851562 37.773438 2.632812 38.511719 2.484375 C 39.25 2.339844 39.992188 2.265625 40.746094 2.265625 C 41.5 2.265625 42.242188 2.339844 42.980469 2.484375 C 43.71875 2.632812 44.4375 2.851562 45.132812 3.136719 C 45.828125 3.425781 46.488281 3.777344 47.113281 4.195312 C 47.738281 4.613281 48.316406 5.089844 48.851562 5.621094 C 49.382812 6.152344 49.855469 6.734375 50.273438 7.359375 C 50.691406 7.984375 51.046875 8.644531 51.332031 9.339844 C 51.621094 10.035156 51.839844 10.75 51.984375 11.488281 C 52.132812 12.226562 52.207031 12.972656 52.207031 13.726562 Z M 52.207031 13.726562 " fill-opacity="1" fill-rule="nonzero"></path></g><g clip-path="url(#a76962e2e1)"><path fill="#c89a69" d="M 24.621094 42.6875 L 24.617188 42.6875 C 22.484375 42.6875 20.660156 41.234375 20.183594 39.15625 L 16.992188 25.253906 C 16.71875 24.070312 16.925781 22.847656 17.570312 21.820312 C 18.214844 20.789062 19.222656 20.074219 20.40625 19.800781 C 20.742188 19.722656 21.085938 19.683594 21.429688 19.683594 C 23.558594 19.683594 25.382812 21.136719 25.859375 23.214844 L 27.769531 31.542969 C 28.175781 29.796875 28.585938 28.148438 28.929688 26.660156 C 30.40625 22.246094 28.652344 17.011719 24.492188 16.136719 C 20.328125 15.257812 14.242188 17.390625 11.675781 23.890625 C 8.203125 32.84375 7.394531 38.652344 8.503906 48.445312 C 9.917969 55.53125 15.308594 56.183594 19.792969 56.066406 C 20.695312 56.042969 21.5 56.003906 22.203125 55.90625 C 22.253906 55.898438 22.308594 55.894531 22.363281 55.886719 C 23.484375 55.714844 24.339844 55.378906 24.941406 54.695312 C 25.292969 54.40625 25.613281 54.070312 25.890625 53.6875 L 32.917969 43.921875 L 35.976562 53.453125 C 36.722656 55.777344 38.875 57.261719 41.195312 57.261719 C 41.75 57.261719 42.3125 57.175781 42.871094 56.996094 C 45.753906 56.074219 47.339844 52.988281 46.414062 50.105469 L 44.015625 42.617188 C 43.816406 42.644531 43.617188 42.660156 43.414062 42.660156 Z M 24.621094 42.6875 " fill-opacity="1" fill-rule="nonzero"></path></g><path fill="#c89a69" d="M 41.109375 33.566406 L 40.039062 30.226562 C 39.40625 28.257812 37.71875 26.8125 35.675781 26.488281 C 33.632812 26.164062 31.578125 27.019531 30.371094 28.699219 L 27.902344 32.128906 L 28.238281 33.582031 Z M 41.109375 33.566406 " fill-opacity="1" fill-rule="nonzero"></path><path fill="#c89a69" d="M 43.40625 34.824219 C 43.40625 34.824219 43.402344 34.824219 43.402344 34.824219 L 27.234375 34.84375 L 24.628906 23.5 C 24.222656 21.730469 22.460938 20.625 20.6875 21.03125 C 18.917969 21.4375 17.8125 23.199219 18.21875 24.96875 L 21.410156 38.871094 C 21.753906 40.367188 23.082031 41.425781 24.617188 41.425781 C 24.617188 41.425781 24.617188 41.425781 24.621094 41.425781 L 43.410156 41.402344 C 45.226562 41.398438 46.695312 39.925781 46.695312 38.109375 C 46.691406 36.292969 45.222656 34.824219 43.40625 34.824219 Z M 43.40625 34.824219 " fill-opacity="1" fill-rule="nonzero"></path></svg>