<svg xmlns="http://www.w3.org/2000/svg" xmlns:xlink="http://www.w3.org/1999/xlink" width="80" viewBox="0 0 60 60" height="80" preserveAspectRatio="xMidYMid meet"><defs><clipPath id="846f5df04f"><path d="M 2.085938 7.75 L 58.335938 7.75 L 58.335938 52.75 L 2.085938 52.75 Z M 2.085938 7.75 " clip-rule="nonzero"></path></clipPath></defs><g clip-path="url(#846f5df04f)"><path fill="#c89a69" d="M 26.804688 7.875 C 26.839844 7.851562 26.886719 7.855469 26.921875 7.875 C 26.929688 7.871094 26.941406 7.863281 26.945312 7.859375 C 26.988281 7.859375 27.027344 7.859375 27.070312 7.867188 C 27.152344 7.890625 27.242188 7.871094 27.328125 7.878906 C 27.382812 7.917969 28.339844 7.972656 28.527344 7.96875 C 28.582031 7.964844 28.640625 7.949219 28.695312 7.964844 C 28.960938 7.949219 29.574219 7.746094 30.195312 8.023438 C 30.203125 8.027344 30.222656 8.027344 30.230469 8.027344 C 30.277344 8.050781 30.320312 8.082031 30.363281 8.109375 C 30.40625 8.125 30.453125 8.117188 30.496094 8.132812 C 30.5 8.128906 30.503906 8.125 30.507812 8.121094 C 30.535156 8.132812 30.558594 8.144531 30.585938 8.15625 C 30.609375 8.15625 30.632812 8.15625 30.660156 8.160156 C 30.773438 8.230469 31.082031 8.21875 31.21875 8.304688 C 31.226562 8.304688 31.246094 8.308594 31.253906 8.308594 C 31.285156 8.324219 31.316406 8.339844 31.347656 8.355469 C 31.734375 8.542969 31.640625 8.582031 31.746094 8.652344 C 31.734375 8.65625 31.714844 8.664062 31.703125 8.664062 C 31.789062 8.730469 31.828125 8.84375 31.917969 8.902344 C 31.910156 8.910156 31.898438 8.925781 31.890625 8.933594 C 31.96875 8.960938 32.003906 9.035156 32.050781 9.09375 C 32.132812 9.097656 32.136719 9.199219 32.207031 9.226562 C 32.210938 9.230469 32.394531 9.515625 32.398438 9.519531 L 32.378906 9.558594 L 32.414062 9.53125 C 32.4375 9.558594 32.460938 9.589844 32.480469 9.621094 C 32.46875 9.617188 32.441406 9.613281 32.429688 9.613281 C 32.441406 9.632812 32.464844 9.644531 32.484375 9.65625 C 32.496094 9.679688 32.507812 9.707031 32.515625 9.734375 C 32.664062 9.816406 32.605469 9.824219 32.675781 9.917969 C 32.664062 9.984375 32.710938 10.035156 32.742188 10.09375 C 32.726562 10.09375 32.695312 10.089844 32.679688 10.089844 C 32.691406 10.117188 32.707031 10.144531 32.71875 10.171875 C 32.726562 10.167969 32.738281 10.160156 32.746094 10.15625 C 32.90625 10.269531 32.9375 10.265625 32.964844 10.332031 C 33.027344 10.34375 33.078125 10.390625 33.140625 10.390625 C 33.339844 10.386719 33.382812 10.476562 33.507812 10.523438 C 33.535156 10.546875 33.558594 10.574219 33.582031 10.597656 C 33.585938 10.632812 33.589844 10.664062 33.59375 10.699219 C 33.601562 10.714844 33.613281 10.734375 33.625 10.753906 C 33.621094 10.839844 33.667969 11.074219 33.679688 11.089844 C 33.679688 11.109375 33.683594 11.125 33.6875 11.144531 C 33.714844 11.207031 33.753906 11.277344 33.730469 11.351562 C 33.734375 11.394531 33.753906 11.4375 33.765625 11.480469 C 33.769531 11.523438 33.753906 11.5625 33.75 11.601562 C 33.746094 11.59375 33.734375 11.574219 33.730469 11.566406 C 33.726562 11.574219 33.710938 11.59375 33.703125 11.601562 C 33.703125 11.648438 33.703125 11.691406 33.710938 11.738281 C 33.660156 11.886719 33.664062 12.046875 33.609375 12.195312 C 33.605469 12.230469 33.605469 12.269531 33.613281 12.304688 C 33.640625 12.320312 33.667969 12.332031 33.695312 12.347656 C 33.71875 12.335938 33.742188 12.324219 33.761719 12.304688 C 33.777344 12.320312 33.796875 12.335938 33.816406 12.351562 C 33.773438 12.375 33.824219 12.414062 33.839844 12.433594 C 33.878906 12.464844 33.898438 12.410156 33.917969 12.386719 C 33.941406 12.398438 33.964844 12.410156 33.984375 12.421875 C 33.964844 12.433594 33.941406 12.449219 33.921875 12.460938 C 33.921875 12.5 33.925781 12.535156 33.960938 12.554688 C 33.96875 12.535156 33.976562 12.515625 33.988281 12.492188 C 34 12.515625 34.015625 12.539062 34.035156 12.558594 C 34.035156 12.605469 34.042969 12.652344 34.054688 12.699219 C 34.046875 12.730469 34.039062 12.765625 34.035156 12.796875 C 34.054688 12.820312 34.078125 12.839844 34.078125 12.875 C 34.089844 12.871094 34.117188 12.863281 34.128906 12.859375 L 34.09375 12.871094 C 34.097656 12.882812 34.101562 12.902344 34.105469 12.914062 C 34.09375 12.898438 34.082031 12.882812 34.070312 12.871094 C 34.066406 12.988281 34.101562 13.105469 34.097656 13.226562 C 34.132812 13.3125 34.128906 13.386719 34.132812 13.414062 C 34.195312 13.546875 34.054688 13.679688 34.3125 13.890625 C 34.304688 13.898438 34.289062 13.914062 34.277344 13.921875 C 34.328125 13.964844 34.390625 13.984375 34.433594 14.03125 C 34.511719 14.054688 34.578125 14.160156 34.722656 14.382812 C 34.726562 14.390625 34.726562 14.410156 34.726562 14.417969 C 34.757812 14.464844 34.773438 14.519531 34.796875 14.570312 C 34.804688 14.613281 34.839844 14.6875 34.851562 14.71875 C 34.851562 14.71875 34.9375 15.023438 34.953125 15.089844 C 34.960938 15.109375 34.972656 15.125 34.984375 15.144531 C 34.984375 15.164062 34.988281 15.179688 34.988281 15.199219 C 35.015625 15.238281 34.992188 15.292969 35.019531 15.332031 C 35.027344 15.421875 35 15.359375 35.066406 15.609375 C 35.09375 15.679688 35.066406 15.761719 35.101562 15.832031 C 35.136719 15.890625 35.097656 15.957031 35.109375 16.019531 C 35.121094 16.097656 35.113281 16.179688 35.117188 16.257812 C 35.136719 16.289062 35.246094 17.539062 35.15625 18.074219 C 35.171875 18.09375 35.199219 18.097656 35.222656 18.105469 C 35.21875 18.109375 35.207031 18.121094 35.199219 18.128906 C 35.199219 18.148438 35.195312 18.167969 35.195312 18.191406 C 35.121094 18.265625 35.167969 18.378906 35.152344 18.472656 C 35.125 18.511719 35.136719 18.554688 35.136719 18.597656 C 35.144531 18.703125 35.136719 18.8125 35.121094 18.917969 C 35.125 18.925781 35.128906 18.941406 35.128906 18.953125 C 35.125 18.992188 35.136719 19.027344 35.152344 19.0625 C 35.125 19.054688 35.105469 19.027344 35.097656 19.003906 C 35.046875 19.085938 35.046875 19.183594 35.0625 19.273438 C 35.078125 19.300781 35.097656 19.328125 35.085938 19.359375 C 34.894531 20.246094 34.984375 19.59375 34.957031 20.40625 C 34.960938 20.40625 34.972656 20.414062 34.976562 20.417969 C 34.972656 20.496094 34.984375 20.574219 35.003906 20.648438 C 35.039062 20.84375 35.054688 21.046875 35.054688 21.246094 C 35.082031 21.304688 35.070312 21.371094 35.066406 21.433594 C 35.050781 21.429688 35.019531 21.425781 35.007812 21.425781 C 35.046875 21.613281 34.984375 21.539062 34.984375 21.679688 C 34.992188 21.679688 35.007812 21.671875 35.015625 21.671875 C 34.964844 21.710938 35.003906 21.785156 34.964844 21.835938 C 34.953125 21.886719 34.941406 21.9375 34.945312 21.992188 C 34.914062 22.050781 34.875 22.109375 34.871094 22.179688 C 34.847656 22.210938 34.828125 22.246094 34.832031 22.285156 C 34.84375 22.28125 34.867188 22.269531 34.878906 22.265625 C 34.828125 22.363281 34.792969 22.542969 34.800781 22.617188 C 34.808594 22.613281 34.824219 22.605469 34.832031 22.601562 C 34.855469 22.648438 34.90625 22.675781 34.9375 22.71875 C 34.957031 22.734375 34.976562 22.746094 34.996094 22.761719 C 35.003906 22.765625 35.023438 22.765625 35.035156 22.765625 C 35.089844 22.847656 35.179688 22.898438 35.257812 22.957031 C 35.257812 22.957031 35.671875 23.351562 35.882812 23.816406 C 35.90625 23.859375 35.929688 23.902344 35.9375 23.949219 C 35.949219 23.964844 35.960938 23.984375 35.972656 24.003906 C 35.972656 24.011719 35.972656 24.03125 35.972656 24.039062 C 35.984375 24.058594 35.996094 24.078125 36.007812 24.09375 C 36.007812 24.105469 36.011719 24.121094 36.011719 24.132812 C 36.03125 24.171875 36.066406 24.269531 36.117188 24.355469 C 36.121094 24.367188 36.121094 24.382812 36.121094 24.390625 C 36.152344 24.433594 36.734375 25.621094 36.75 25.640625 C 36.753906 25.648438 36.753906 25.667969 36.753906 25.675781 C 37.082031 26.257812 36.972656 26.535156 37.253906 26.925781 C 37.253906 26.933594 37.257812 26.953125 37.257812 26.960938 C 37.269531 26.980469 37.28125 26.996094 37.289062 27.015625 C 37.355469 27.484375 37.570312 27.359375 37.496094 27.761719 C 37.453125 27.835938 37.429688 27.929688 37.363281 27.988281 C 37.113281 28.226562 36.992188 28.738281 36.605469 28.890625 C 36.609375 29.257812 36.648438 29.871094 36.605469 30.078125 C 36.605469 30.191406 36.601562 30.308594 36.609375 30.421875 L 36.632812 30.4375 C 36.636719 30.425781 36.644531 30.394531 36.648438 30.378906 C 36.640625 30.449219 36.6875 30.515625 36.667969 30.582031 C 36.660156 30.546875 36.679688 30.480469 36.621094 30.480469 C 36.636719 30.511719 36.640625 30.550781 36.648438 30.585938 C 36.664062 30.625 36.65625 30.667969 36.675781 30.703125 C 36.664062 30.898438 36.765625 31.394531 36.789062 31.449219 C 36.789062 31.472656 36.789062 31.496094 36.792969 31.523438 C 36.800781 31.53125 36.816406 31.546875 36.824219 31.554688 C 36.910156 31.800781 36.875 31.65625 36.882812 31.875 C 36.828125 31.957031 36.855469 31.957031 36.8125 32.023438 C 36.808594 32.039062 36.808594 32.058594 36.808594 32.078125 C 36.769531 32.128906 36.773438 32.195312 36.738281 32.246094 C 36.734375 32.289062 36.734375 32.332031 36.734375 32.375 C 36.917969 32.472656 37.585938 33.261719 37.601562 33.289062 C 37.609375 33.292969 37.625 33.300781 37.632812 33.304688 C 38.132812 34.011719 38.769531 34.632812 39.328125 35.296875 C 43.273438 39.976562 44.152344 42.328125 48.324219 45.03125 C 51.050781 46.800781 50.753906 45.953125 52.304688 46.964844 C 53.996094 48.058594 53.722656 47.679688 54.511719 48.019531 C 54.867188 48.175781 55.167969 48.421875 55.511719 48.59375 C 55.785156 48.730469 56.152344 48.738281 56.378906 48.929688 C 57.371094 49.773438 58.355469 49.316406 58.054688 50.054688 C 58.003906 50.1875 57.828125 50.261719 57.730469 50.351562 C 57.605469 50.46875 57.519531 50.679688 56.914062 50.4375 C 56.789062 50.382812 56.652344 50.355469 56.53125 50.300781 C 56.4375 50.261719 56.300781 50.207031 56.191406 50.210938 C 56.242188 50.382812 56.480469 50.488281 56.648438 50.492188 C 56.847656 50.496094 57.71875 50.765625 57.707031 50.953125 C 57.695312 51.125 57.585938 51.269531 57.535156 51.429688 C 57.453125 51.675781 57.207031 51.304688 57.058594 51.441406 C 56.953125 51.535156 57.195312 51.785156 57.019531 51.824219 C 56.953125 51.839844 56.34375 51.746094 56.019531 51.511719 C 55.699219 51.28125 55.863281 51.578125 55.671875 51.9375 C 55.640625 51.992188 55.601562 52.085938 55.539062 52.109375 C 55.445312 52.117188 55.242188 52.050781 55.144531 52.011719 C 54.996094 51.925781 54.90625 51.976562 54.960938 52.050781 C 54.980469 52.078125 55.015625 52.089844 54.980469 52.15625 C 54.898438 52.328125 54.972656 52.371094 54.765625 52.382812 C 54.738281 52.382812 52.851562 52.367188 52.246094 52.417969 C 50.847656 52.53125 51.113281 52.125 49.441406 52.496094 C 48.765625 52.554688 47.898438 52.433594 46.078125 52.492188 C 45.695312 52.503906 44.09375 52.609375 43.660156 51.933594 C 43.308594 50.808594 43.421875 50.167969 42.964844 48.863281 C 42.914062 48.714844 42.902344 48.558594 42.816406 48.425781 C 42.253906 47.5625 38.851562 46.148438 38.640625 46.027344 C 38.632812 46.027344 38.613281 46.023438 38.605469 46.023438 C 37.09375 45.140625 32.132812 43.785156 30.339844 38.683594 C 30.261719 38.457031 30.230469 38.222656 30.160156 37.996094 C 29.902344 38.128906 27.007812 42.722656 26.996094 42.75 C 26.992188 42.75 26.980469 42.75 26.972656 42.75 C 26.925781 42.839844 26.863281 42.921875 26.808594 43.011719 C 26.804688 43.011719 26.792969 43.011719 26.785156 43.011719 C 26.753906 43.097656 26.007812 44.097656 25.992188 44.125 C 25.984375 44.125 25.972656 44.128906 25.96875 44.128906 C 25.492188 44.933594 21.769531 48.121094 20.972656 49.519531 C 20.710938 49.976562 20.40625 50.886719 19.328125 51.398438 C 18.992188 51.558594 18.59375 52.167969 15.609375 52.238281 C 13.769531 52.285156 15.125 52.132812 12.816406 52.191406 C 11.394531 52.230469 9.898438 52.414062 8.523438 51.9375 C 8.292969 51.855469 8.050781 51.835938 7.828125 51.726562 C 7.429688 51.523438 7.753906 51.832031 6.480469 51.003906 C 6.371094 50.929688 5.289062 49.929688 4.90625 48.136719 C 4.554688 46.542969 4.917969 48.101562 4.378906 45.484375 C 4.25 44.851562 3.777344 43.835938 3.773438 43.210938 C 3.765625 43.183594 3.625 41.707031 3.640625 41.617188 C 3.636719 41.609375 3.628906 41.585938 3.628906 41.574219 C 2.953125 41.777344 2.085938 41.113281 2.339844 40.375 C 2.605469 39.664062 3.230469 39.582031 3.574219 38.675781 C 3.636719 38.511719 3.769531 38.402344 3.757812 38.214844 C 3.75 38.109375 3.714844 38.011719 3.707031 37.90625 C 3.699219 37.753906 3.742188 37.601562 3.757812 37.449219 C 3.796875 37.070312 3.59375 37.042969 3.589844 36.8125 C 3.503906 36.382812 3.574219 36.050781 3.585938 36.023438 C 3.601562 35.976562 3.683594 35.578125 3.699219 35.546875 C 3.886719 34.253906 3.257812 33.046875 4.769531 26.464844 C 5.714844 22.34375 7.5 20.621094 9.824219 17.972656 C 10.679688 17.003906 10.960938 17.089844 11.414062 16.570312 C 11.652344 16.300781 11.851562 15.957031 12.238281 15.875 C 12.28125 15.847656 12.328125 15.828125 12.371094 15.800781 C 12.40625 15.769531 12.433594 15.734375 12.480469 15.726562 C 12.488281 15.71875 12.503906 15.707031 12.507812 15.699219 C 12.535156 15.695312 12.554688 15.679688 12.574219 15.660156 C 12.582031 15.65625 12.605469 15.65625 12.613281 15.65625 C 12.621094 15.617188 12.65625 15.621094 12.6875 15.617188 C 12.695312 15.609375 12.710938 15.589844 12.71875 15.582031 C 12.738281 15.582031 12.761719 15.582031 12.78125 15.582031 C 12.8125 15.550781 12.828125 15.507812 12.828125 15.460938 C 12.851562 15.433594 12.847656 15.398438 12.847656 15.367188 C 12.710938 15.40625 12.664062 15.367188 12.574219 15.355469 C 12.546875 15.332031 12.515625 15.34375 12.488281 15.359375 C 12.484375 15.347656 12.472656 15.332031 12.46875 15.320312 C 12.453125 15.320312 12.421875 15.324219 12.40625 15.324219 C 12.503906 15.21875 12.390625 15.191406 12.648438 15.125 C 12.652344 15.113281 12.65625 15.09375 12.660156 15.085938 C 12.671875 15.089844 12.6875 15.09375 12.699219 15.101562 C 12.703125 15.085938 12.710938 15.058594 12.714844 15.042969 C 12.691406 15.039062 12.671875 15.035156 12.652344 15.035156 C 12.679688 15.023438 12.703125 15.007812 12.722656 14.984375 C 12.679688 14.996094 12.632812 15.019531 12.597656 14.992188 C 12.5625 14.972656 12.59375 14.9375 12.605469 14.917969 C 12.582031 14.914062 12.554688 14.914062 12.53125 14.910156 C 12.523438 14.902344 12.507812 14.886719 12.5 14.878906 C 12.480469 14.871094 12.464844 14.863281 12.445312 14.859375 C 12.464844 14.832031 12.46875 14.804688 12.464844 14.773438 C 12.484375 14.789062 12.5 14.804688 12.507812 14.828125 C 12.5625 14.816406 12.613281 14.808594 12.660156 14.78125 C 12.613281 14.769531 12.570312 14.761719 12.523438 14.753906 C 12.535156 14.753906 12.558594 14.75 12.570312 14.746094 C 12.546875 14.71875 12.511719 14.707031 12.480469 14.691406 C 12.453125 14.6875 12.429688 14.6875 12.40625 14.6875 C 12.394531 14.679688 12.367188 14.667969 12.355469 14.664062 C 12.355469 14.644531 12.359375 14.621094 12.359375 14.601562 C 12.25 14.539062 12.28125 14.558594 12.300781 14.5 C 12.347656 14.503906 12.402344 14.511719 12.441406 14.476562 C 12.378906 14.429688 12.398438 14.460938 12.316406 14.398438 C 12.328125 14.394531 12.347656 14.390625 12.359375 14.390625 C 12.339844 14.367188 12.324219 14.34375 12.3125 14.316406 C 12.332031 14.316406 12.367188 14.316406 12.382812 14.316406 C 12.34375 14.230469 12.257812 14.1875 12.203125 14.117188 C 12.238281 14.113281 12.273438 14.109375 12.304688 14.09375 C 12.304688 14.066406 12.304688 14.042969 12.304688 14.015625 C 12.359375 14.035156 12.433594 14.050781 12.476562 14.007812 C 12.476562 13.992188 12.46875 13.964844 12.46875 13.953125 C 12.417969 13.890625 12.339844 13.851562 12.316406 13.773438 C 12.355469 13.789062 12.390625 13.808594 12.425781 13.835938 C 12.46875 13.824219 12.511719 13.800781 12.535156 13.757812 C 12.542969 13.757812 12.5625 13.757812 12.574219 13.757812 C 12.613281 13.824219 12.753906 13.890625 12.832031 13.914062 C 12.832031 13.898438 12.832031 13.875 12.832031 13.863281 C 12.851562 13.84375 12.867188 13.820312 12.871094 13.792969 C 12.878906 13.8125 12.882812 13.832031 12.890625 13.855469 C 12.886719 13.859375 12.875 13.871094 12.867188 13.878906 C 12.90625 13.902344 12.933594 13.9375 12.96875 13.96875 C 13.027344 13.984375 13.085938 14 13.148438 14.003906 C 13.128906 13.933594 13.046875 13.9375 12.988281 13.933594 C 13.011719 13.894531 13.054688 13.925781 13.085938 13.933594 L 13.085938 13.875 C 13.058594 13.851562 13.023438 13.832031 13.003906 13.800781 C 12.996094 13.765625 13 13.71875 12.953125 13.710938 C 13 13.726562 13.027344 13.671875 13.078125 13.683594 C 13.105469 13.714844 13.136719 13.746094 13.167969 13.777344 C 13.179688 13.777344 13.207031 13.777344 13.222656 13.777344 C 13.203125 13.738281 13.175781 13.707031 13.152344 13.671875 C 13.117188 13.65625 13.085938 13.640625 13.058594 13.609375 C 13.074219 13.609375 13.097656 13.609375 13.113281 13.609375 C 13.160156 13.679688 13.25 13.667969 13.316406 13.707031 C 13.351562 13.734375 13.394531 13.746094 13.4375 13.742188 C 13.378906 13.691406 13.308594 13.65625 13.242188 13.621094 C 13.210938 13.582031 13.183594 13.542969 13.152344 13.503906 C 13.097656 13.4375 13.019531 13.390625 12.984375 13.308594 C 13.074219 13.359375 13.136719 13.445312 13.222656 13.496094 C 13.234375 13.496094 13.261719 13.496094 13.273438 13.496094 C 13.261719 13.464844 13.25 13.429688 13.234375 13.398438 C 13.242188 13.394531 13.261719 13.386719 13.269531 13.382812 C 13.253906 13.363281 13.242188 13.339844 13.234375 13.320312 C 13.242188 13.324219 13.257812 13.328125 13.265625 13.332031 C 13.316406 13.441406 13.402344 13.53125 13.496094 13.605469 C 13.574219 13.621094 13.625 13.65625 13.648438 13.695312 C 13.691406 13.675781 13.734375 13.6875 13.773438 13.707031 C 13.773438 13.695312 13.769531 13.671875 13.765625 13.660156 C 13.789062 13.671875 13.8125 13.6875 13.835938 13.699219 C 13.902344 13.699219 13.953125 13.742188 14.019531 13.746094 C 14.007812 13.71875 13.992188 13.695312 13.976562 13.675781 C 13.976562 13.644531 13.976562 13.613281 13.976562 13.582031 C 14.023438 13.605469 14.058594 13.644531 14.105469 13.667969 C 14.191406 13.613281 14.28125 13.707031 14.375 13.6875 C 14.359375 13.632812 14.3125 13.605469 14.277344 13.566406 C 14.277344 13.542969 14.269531 13.523438 14.257812 13.507812 C 14.261719 13.5 14.277344 13.484375 14.285156 13.476562 C 14.292969 13.488281 14.304688 13.5 14.3125 13.511719 C 14.324219 13.511719 14.351562 13.511719 14.363281 13.511719 C 14.371094 13.523438 14.382812 13.539062 14.390625 13.550781 C 14.433594 13.546875 14.476562 13.550781 14.519531 13.554688 C 14.511719 13.519531 14.496094 13.492188 14.476562 13.464844 C 14.503906 13.464844 14.535156 13.464844 14.5625 13.464844 C 14.527344 13.441406 14.484375 13.433594 14.449219 13.410156 C 14.414062 13.402344 14.382812 13.382812 14.355469 13.355469 C 14.28125 13.335938 14.304688 13.328125 14.183594 13.304688 C 14.171875 13.308594 14.148438 13.320312 14.136719 13.324219 C 14.21875 13.261719 14.320312 13.332031 14.414062 13.332031 C 14.421875 13.308594 14.433594 13.285156 14.445312 13.261719 C 14.40625 13.242188 14.371094 13.214844 14.339844 13.183594 C 14.332031 13.183594 14.316406 13.179688 14.304688 13.175781 C 14.277344 13.128906 14.222656 13.109375 14.179688 13.074219 C 14.136719 13.042969 14.105469 12.992188 14.050781 12.976562 C 14.007812 12.957031 13.9375 12.925781 13.957031 12.863281 C 14 12.867188 14.027344 12.894531 14.058594 12.917969 C 14.101562 12.929688 14.140625 12.941406 14.179688 12.960938 C 14.183594 12.953125 14.191406 12.9375 14.195312 12.929688 C 14.117188 12.832031 14.097656 12.695312 13.996094 12.617188 C 13.996094 12.605469 13.996094 12.585938 13.992188 12.578125 C 13.949219 12.523438 13.941406 12.449219 13.921875 12.382812 C 13.933594 12.394531 13.949219 12.410156 13.957031 12.421875 C 13.988281 12.359375 13.9375 12.292969 13.933594 12.226562 C 13.941406 12.230469 13.957031 12.234375 13.96875 12.238281 C 14.007812 12.289062 14.054688 12.332031 14.074219 12.394531 C 14.164062 12.457031 14.257812 12.511719 14.332031 12.59375 C 14.335938 12.535156 14.304688 12.484375 14.308594 12.429688 C 14.382812 12.488281 14.410156 12.597656 14.5 12.640625 C 14.519531 12.609375 14.484375 12.570312 14.511719 12.546875 C 14.574219 12.5 14.621094 12.59375 14.675781 12.613281 C 14.738281 12.628906 14.792969 12.660156 14.851562 12.683594 C 14.847656 12.652344 14.84375 12.617188 14.855469 12.582031 C 14.875 12.617188 14.886719 12.652344 14.890625 12.691406 C 14.910156 12.710938 14.929688 12.730469 14.953125 12.75 C 15 12.742188 15.035156 12.773438 15.066406 12.808594 C 15.09375 12.808594 15.125 12.8125 15.15625 12.816406 C 15.132812 12.78125 15.105469 12.753906 15.085938 12.71875 C 15.109375 12.726562 15.136719 12.738281 15.160156 12.75 C 15.167969 12.753906 15.1875 12.753906 15.199219 12.753906 C 15.207031 12.761719 15.222656 12.773438 15.226562 12.777344 C 15.167969 12.8125 15.238281 12.847656 15.269531 12.863281 C 15.375 12.859375 15.476562 12.898438 15.574219 12.933594 C 15.574219 12.910156 15.574219 12.886719 15.578125 12.863281 C 15.546875 12.824219 15.480469 12.824219 15.480469 12.769531 C 15.515625 12.777344 15.550781 12.785156 15.589844 12.792969 C 15.597656 12.800781 15.613281 12.820312 15.621094 12.828125 C 15.640625 12.828125 15.660156 12.828125 15.679688 12.824219 C 15.746094 12.777344 15.820312 12.832031 15.886719 12.851562 C 15.894531 12.84375 15.910156 12.824219 15.917969 12.8125 C 15.945312 12.808594 15.96875 12.828125 15.996094 12.835938 C 16.046875 12.855469 16.105469 12.847656 16.160156 12.84375 C 16.203125 12.808594 16.261719 12.835938 16.3125 12.816406 C 16.367188 12.808594 16.433594 12.789062 16.484375 12.828125 C 16.503906 12.828125 16.519531 12.8125 16.535156 12.796875 C 16.558594 12.78125 16.582031 12.769531 16.609375 12.757812 C 16.679688 12.746094 16.78125 12.707031 16.914062 12.714844 C 16.921875 12.683594 16.945312 12.65625 16.980469 12.644531 C 17.039062 12.640625 17.082031 12.597656 17.128906 12.570312 C 17.15625 12.566406 17.183594 12.570312 17.207031 12.558594 C 17.277344 12.414062 17.335938 12.511719 17.492188 12.359375 C 17.53125 12.316406 17.585938 12.300781 17.632812 12.273438 C 17.652344 12.269531 17.667969 12.269531 17.6875 12.269531 C 17.75 12.234375 17.734375 12.242188 17.78125 12.214844 C 17.792969 12.214844 17.808594 12.214844 17.820312 12.210938 C 17.851562 12.195312 17.882812 12.179688 17.914062 12.160156 L 17.949219 12.15625 C 17.972656 12.140625 18.347656 11.933594 18.378906 11.933594 C 18.40625 11.910156 18.429688 11.886719 18.449219 11.863281 C 18.476562 11.859375 18.503906 11.859375 18.527344 11.84375 C 18.535156 11.847656 18.542969 11.851562 18.546875 11.855469 C 18.570312 11.824219 18.597656 11.792969 18.640625 11.78125 C 18.695312 11.730469 18.761719 11.695312 18.828125 11.667969 C 18.828125 11.625 18.863281 11.597656 18.898438 11.582031 C 18.972656 11.597656 19.015625 11.527344 19.085938 11.523438 C 19.210938 11.433594 19.324219 11.316406 19.476562 11.277344 C 19.519531 11.242188 19.714844 11.117188 19.773438 11.109375 C 19.871094 11.0625 19.894531 10.976562 20.015625 10.964844 C 20.046875 10.941406 20.164062 10.839844 20.460938 10.671875 C 20.535156 10.671875 20.589844 10.605469 20.605469 10.539062 C 20.625 10.539062 20.644531 10.539062 20.667969 10.539062 C 20.695312 10.519531 20.773438 10.480469 20.835938 10.453125 C 20.921875 10.402344 20.863281 10.359375 21.042969 10.292969 C 21.007812 10.246094 21.058594 10.222656 21.09375 10.203125 C 21.101562 10.207031 21.117188 10.222656 21.125 10.226562 C 21.121094 10.21875 21.113281 10.195312 21.109375 10.1875 C 21.125 10.183594 21.160156 10.183594 21.179688 10.183594 C 21.171875 10.175781 21.160156 10.164062 21.15625 10.15625 C 21.460938 9.949219 21.253906 10.03125 21.46875 9.914062 C 21.527344 9.882812 21.554688 9.816406 21.617188 9.789062 C 21.644531 9.777344 21.667969 9.761719 21.691406 9.742188 C 21.699219 9.738281 21.71875 9.738281 21.726562 9.738281 C 21.769531 9.703125 21.929688 9.605469 22.007812 9.585938 C 22.054688 9.488281 22.261719 9.375 22.324219 9.363281 C 22.351562 9.308594 22.40625 9.277344 22.449219 9.242188 C 22.484375 9.214844 22.53125 9.21875 22.574219 9.214844 C 22.582031 9.222656 22.59375 9.234375 22.601562 9.238281 C 22.675781 9.121094 23.238281 8.871094 23.363281 8.792969 C 23.375 8.792969 23.394531 8.789062 23.402344 8.789062 C 23.4375 8.765625 23.476562 8.742188 23.511719 8.71875 C 23.523438 8.714844 23.542969 8.714844 23.550781 8.714844 C 23.59375 8.6875 23.636719 8.664062 23.683594 8.644531 C 23.691406 8.640625 23.710938 8.640625 23.71875 8.640625 C 23.761719 8.613281 23.804688 8.59375 23.847656 8.570312 C 23.945312 8.554688 24.046875 8.503906 24.128906 8.457031 C 24.179688 8.445312 24.230469 8.429688 24.277344 8.402344 C 24.359375 8.40625 24.359375 8.367188 24.574219 8.292969 C 24.632812 8.273438 24.828125 8.234375 24.855469 8.230469 C 24.863281 8.222656 24.878906 8.203125 24.890625 8.195312 C 24.898438 8.195312 24.917969 8.191406 24.925781 8.191406 C 25.511719 7.980469 26.714844 7.871094 26.804688 7.875 M 21.648438 27.597656 C 21.613281 27.714844 21.632812 27.835938 21.625 27.957031 C 21.65625 28.257812 21.546875 28.578125 21.542969 28.882812 C 21.527344 29.527344 21.644531 30.179688 21.507812 30.824219 C 21.355469 31.5625 21.351562 31.273438 20.851562 32.277344 C 20.328125 33.339844 19.910156 33.128906 19.40625 33.246094 C 19.304688 33.265625 18.59375 33.496094 18.785156 33.640625 C 19.816406 33.777344 19.949219 34.507812 19.914062 34.726562 C 19.933594 34.726562 19.953125 34.726562 19.972656 34.726562 C 20.011719 34.726562 20.15625 34.558594 20.1875 34.53125 C 20.679688 34.125 21.152344 33.800781 21.183594 33.777344 C 21.769531 33.332031 23.28125 31.8125 25.921875 29.910156 C 26.660156 29.378906 26.578125 30.0625 21.8125 27.671875 C 21.757812 27.644531 21.710938 27.605469 21.648438 27.597656 Z M 21.648438 27.597656 " fill-opacity="1" fill-rule="nonzero"></path></g></svg>