<svg xmlns="http://www.w3.org/2000/svg" xmlns:xlink="http://www.w3.org/1999/xlink" width="80" viewBox="0 0 60 60" height="80" preserveAspectRatio="xMidYMid meet"><defs><clipPath id="42526a4bec"><path d="M 29 4.164062 L 31 4.164062 L 31 55.914062 L 29 55.914062 Z M 29 4.164062 " clip-rule="nonzero"></path></clipPath><clipPath id="138023e69e"><path d="M 45 4.164062 L 55 4.164062 L 55 14 L 45 14 Z M 45 4.164062 " clip-rule="nonzero"></path></clipPath><clipPath id="1bd60587ca"><path d="M 40 14 L 57.683594 14 L 57.683594 36 L 40 36 Z M 40 14 " clip-rule="nonzero"></path></clipPath><clipPath id="576f3845ea"><path d="M 42 27 L 57.683594 27 L 57.683594 55.914062 L 42 55.914062 Z M 42 27 " clip-rule="nonzero"></path></clipPath><clipPath id="13529d84a0"><path d="M 5 4.164062 L 15 4.164062 L 15 14 L 5 14 Z M 5 4.164062 " clip-rule="nonzero"></path></clipPath><clipPath id="95dacac983"><path d="M 2.183594 14 L 20 14 L 20 36 L 2.183594 36 Z M 2.183594 14 " clip-rule="nonzero"></path></clipPath><clipPath id="cfacf3b455"><path d="M 2.183594 27 L 22 27 L 22 55.914062 L 2.183594 55.914062 Z M 2.183594 27 " clip-rule="nonzero"></path></clipPath></defs><g clip-path="url(#42526a4bec)"><path fill="#c89a69" d="M 30.15625 55.789062 C 29.886719 55.789062 29.671875 55.570312 29.671875 55.304688 L 29.671875 4.667969 C 29.671875 4.398438 29.886719 4.183594 30.15625 4.183594 C 30.421875 4.183594 30.640625 4.398438 30.640625 4.667969 L 30.640625 55.304688 C 30.640625 55.570312 30.421875 55.789062 30.15625 55.789062 Z M 30.15625 55.789062 " fill-opacity="1" fill-rule="nonzero"></path></g><g clip-path="url(#138023e69e)"><path fill="#c89a69" d="M 50.230469 13.738281 C 52.65625 13.738281 54.621094 11.777344 54.621094 9.351562 L 54.621094 9.195312 C 54.621094 6.773438 52.65625 4.808594 50.230469 4.808594 C 47.808594 4.808594 45.84375 6.769531 45.84375 9.195312 L 45.84375 9.351562 C 45.84375 11.777344 47.808594 13.738281 50.230469 13.738281 Z M 50.230469 13.738281 " fill-opacity="1" fill-rule="nonzero"></path></g><g clip-path="url(#1bd60587ca)"><path fill="#c89a69" d="M 42.242188 23.667969 L 44.558594 33.269531 C 44.714844 34.03125 45.234375 34.578125 45.882812 34.671875 C 46.019531 34.691406 46.160156 34.683594 46.296875 34.660156 C 46.371094 34.648438 46.449219 34.640625 46.523438 34.617188 C 46.667969 34.570312 46.800781 34.496094 46.925781 34.410156 C 47.585938 33.96875 47.957031 33.058594 47.777344 32.171875 L 47.472656 30.789062 L 47.253906 29.777344 L 45.097656 19.90625 C 45.058594 19.726562 45.171875 19.550781 45.351562 19.511719 C 45.527344 19.472656 45.703125 19.585938 45.742188 19.765625 L 47.726562 28.855469 L 51.925781 20.675781 C 52.007812 20.511719 52.207031 20.449219 52.367188 20.53125 C 52.527344 20.617188 52.59375 20.8125 52.511719 20.976562 L 47.945312 29.867188 L 48.417969 32.035156 C 48.644531 33.121094 48.210938 34.238281 47.425781 34.855469 C 47.585938 34.945312 47.757812 35.011719 47.9375 35.03125 C 48.589844 35.109375 49.238281 34.714844 49.585938 34.03125 L 54.816406 24.628906 L 57.214844 19.855469 C 57.777344 18.742188 57.46875 17.355469 56.527344 16.757812 C 56.304688 16.617188 56.070312 16.539062 55.832031 16.503906 L 55.832031 16.5 L 43.257812 14.648438 C 43 14.609375 42.726562 14.628906 42.453125 14.714844 C 41.390625 15.058594 40.730469 16.320312 40.980469 17.539062 L 42.242188 23.652344 Z M 42.242188 23.667969 " fill-opacity="1" fill-rule="nonzero"></path></g><g clip-path="url(#576f3845ea)"><path fill="#c89a69" d="M 57.210938 51.234375 L 52.199219 43.167969 C 52.09375 43 52.054688 42.796875 52.09375 42.601562 L 53.121094 37.171875 C 53.140625 37.070312 53.144531 36.96875 53.148438 36.867188 L 53.164062 36.867188 L 53.699219 27.988281 L 50.167969 34.34375 C 49.734375 35.183594 48.941406 35.699219 48.101562 35.699219 C 48.019531 35.699219 47.941406 35.695312 47.859375 35.683594 C 47.542969 35.648438 47.246094 35.539062 46.976562 35.363281 C 46.910156 35.320312 46.851562 35.261719 46.792969 35.210938 C 46.769531 35.21875 46.746094 35.234375 46.722656 35.242188 C 46.511719 35.308594 46.296875 35.34375 46.082031 35.34375 C 45.984375 35.34375 45.886719 35.335938 45.785156 35.320312 C 44.863281 35.183594 44.128906 34.4375 43.917969 33.414062 L 42.464844 27.40625 L 42.988281 36.023438 L 42.988281 53.8125 C 42.988281 54.902344 43.871094 55.789062 44.960938 55.789062 C 46.050781 55.789062 46.9375 54.902344 46.9375 53.8125 L 46.9375 36.867188 L 49.160156 36.867188 L 48.214844 41.867188 C 47.992188 43.039062 48.214844 44.238281 48.84375 45.253906 L 53.855469 53.320312 C 54.230469 53.921875 54.875 54.25 55.535156 54.25 C 55.890625 54.25 56.253906 54.15625 56.578125 53.953125 C 57.503906 53.378906 57.789062 52.160156 57.210938 51.234375 Z M 57.210938 51.234375 " fill-opacity="1" fill-rule="nonzero"></path></g><g clip-path="url(#13529d84a0)"><path fill="#c89a69" d="M 9.738281 13.738281 C 7.316406 13.738281 5.351562 11.777344 5.351562 9.351562 L 5.351562 9.195312 C 5.351562 6.773438 7.316406 4.808594 9.738281 4.808594 C 12.160156 4.808594 14.125 6.769531 14.125 9.195312 L 14.125 9.351562 C 14.125 11.777344 12.164062 13.738281 9.738281 13.738281 Z M 9.738281 13.738281 " fill-opacity="1" fill-rule="nonzero"></path></g><g clip-path="url(#95dacac983)"><path fill="#c89a69" d="M 5.152344 24.628906 L 10.378906 34.023438 C 10.734375 34.71875 11.386719 35.109375 12.035156 35.03125 C 12.214844 35.011719 12.386719 34.945312 12.546875 34.855469 C 12.574219 34.839844 12.605469 34.828125 12.632812 34.8125 C 12.796875 34.707031 12.929688 34.566406 13.046875 34.410156 C 13.496094 33.808594 13.578125 32.894531 13.183594 32.128906 L 12.496094 30.789062 L 12.023438 29.867188 L 7.460938 20.976562 C 7.378906 20.816406 7.441406 20.617188 7.601562 20.535156 C 7.765625 20.449219 7.964844 20.515625 8.046875 20.675781 L 12.246094 28.855469 L 14.226562 19.765625 C 14.265625 19.589844 14.441406 19.476562 14.621094 19.515625 C 14.796875 19.554688 14.910156 19.726562 14.871094 19.90625 L 12.71875 29.777344 L 13.769531 31.832031 C 14.246094 32.757812 14.175781 33.867188 13.671875 34.664062 C 13.8125 34.683594 13.949219 34.691406 14.085938 34.671875 C 14.734375 34.578125 15.253906 34.03125 15.410156 33.28125 L 17.730469 23.667969 L 17.730469 23.652344 L 18.992188 17.539062 C 19.242188 16.324219 18.582031 15.058594 17.515625 14.714844 C 17.246094 14.628906 16.972656 14.609375 16.714844 14.652344 L 16.714844 14.648438 C 16.714844 14.648438 4.136719 16.5 4.136719 16.5 L 4.140625 16.503906 C 3.902344 16.539062 3.664062 16.617188 3.445312 16.757812 C 2.503906 17.355469 2.195312 18.742188 2.753906 19.855469 Z M 5.152344 24.628906 " fill-opacity="1" fill-rule="nonzero"></path></g><g clip-path="url(#cfacf3b455)"><path fill="#c89a69" d="M 17.488281 27.671875 L 17.503906 27.40625 L 16.050781 33.421875 C 15.84375 34.4375 15.109375 35.1875 14.183594 35.320312 C 14.085938 35.335938 13.984375 35.34375 13.886719 35.34375 C 13.671875 35.34375 13.457031 35.308594 13.246094 35.242188 C 13.222656 35.234375 13.203125 35.21875 13.179688 35.210938 C 13.117188 35.261719 13.0625 35.316406 12.992188 35.363281 C 12.722656 35.539062 12.425781 35.648438 12.113281 35.683594 C 12.03125 35.695312 11.949219 35.699219 11.867188 35.699219 C 11.027344 35.699219 10.234375 35.183594 9.796875 34.332031 L 6.269531 27.988281 L 6.273438 28.039062 L 3.144531 41.359375 L 7.542969 40.835938 L 7.875 42.601562 C 7.914062 42.796875 7.875 43 7.769531 43.167969 L 2.757812 51.234375 C 2.183594 52.160156 2.46875 53.378906 3.394531 53.953125 C 3.71875 54.15625 4.078125 54.253906 4.433594 54.253906 C 5.09375 54.253906 5.738281 53.921875 6.113281 53.320312 L 11.125 45.253906 C 11.753906 44.242188 11.980469 43.039062 11.757812 41.867188 L 11.472656 40.371094 L 13.035156 40.183594 L 13.035156 53.8125 C 13.035156 54.902344 13.917969 55.789062 15.007812 55.789062 C 16.097656 55.789062 16.980469 54.902344 16.980469 53.8125 L 16.980469 39.714844 L 21.589844 39.167969 Z M 17.488281 27.671875 " fill-opacity="1" fill-rule="nonzero"></path></g></svg>