<svg xmlns="http://www.w3.org/2000/svg" xmlns:xlink="http://www.w3.org/1999/xlink" width="80" viewBox="0 0 60 60" height="80" preserveAspectRatio="xMidYMid meet"><defs><clipPath id="d558d8c572"><path d="M 13 4.558594 L 38 4.558594 L 38 29 L 13 29 Z M 13 4.558594 " clip-rule="nonzero"></path></clipPath></defs><g clip-path="url(#d558d8c572)"><path fill="#c89a69" d="M 25.140625 28.640625 C 31.789062 28.640625 37.175781 23.25 37.175781 16.605469 C 37.175781 9.960938 31.789062 4.582031 25.140625 4.582031 C 18.496094 4.582031 13.105469 9.96875 13.105469 16.617188 C 13.105469 23.261719 18.496094 28.640625 25.140625 28.640625 Z M 27.828125 12.796875 C 27.828125 12.300781 28.234375 11.898438 28.730469 11.898438 C 29.226562 11.898438 29.628906 12.300781 29.628906 12.796875 L 29.628906 14.964844 C 29.628906 15.460938 29.226562 15.867188 28.730469 15.867188 C 28.234375 15.867188 27.828125 15.460938 27.828125 14.964844 Z M 20.652344 12.796875 C 20.652344 12.300781 21.058594 11.898438 21.554688 11.898438 C 22.050781 11.898438 22.453125 12.300781 22.453125 12.796875 L 22.453125 14.964844 C 22.453125 15.460938 22.050781 15.867188 21.554688 15.867188 C 21.058594 15.867188 20.652344 15.460938 20.652344 14.964844 Z M 19.429688 19.707031 C 19.820312 19.410156 20.386719 19.5 20.6875 19.894531 C 21.761719 21.335938 23.375 22.167969 25.140625 22.167969 C 26.90625 22.167969 28.523438 21.335938 29.59375 19.894531 C 29.894531 19.5 30.449219 19.410156 30.851562 19.707031 C 31.257812 20.007812 31.335938 20.5625 31.039062 20.964844 C 29.628906 22.871094 27.484375 23.964844 25.140625 23.964844 C 22.800781 23.964844 20.652344 22.871094 19.246094 20.964844 C 18.945312 20.5625 19.039062 20.007812 19.429688 19.707031 Z M 19.429688 19.707031 " fill-opacity="1" fill-rule="nonzero"></path></g><path fill="#c89a69" d="M 53.03125 27.253906 C 48.332031 22.558594 40.71875 22.558594 36.011719 27.253906 C 31.3125 31.949219 31.3125 39.566406 36.011719 44.273438 C 40.707031 48.96875 48.320312 48.96875 53.03125 44.273438 C 57.726562 39.566406 57.726562 31.949219 53.03125 27.253906 Z M 42.449219 29.089844 C 43.476562 28.929688 44.492188 29.261719 45.21875 29.988281 C 45.945312 30.714844 46.28125 31.730469 46.117188 32.757812 C 46.046875 33.207031 45.667969 33.519531 45.230469 33.519531 C 45.183594 33.519531 45.136719 33.519531 45.089844 33.507812 C 44.605469 33.441406 44.261719 32.976562 44.339844 32.492188 C 44.410156 32.03125 44.261719 31.582031 43.9375 31.257812 C 43.613281 30.9375 43.164062 30.796875 42.703125 30.867188 C 42.207031 30.9375 41.757812 30.601562 41.6875 30.117188 C 41.617188 29.621094 41.953125 29.160156 42.449219 29.089844 Z M 45.609375 43.003906 C 45.230469 43.0625 44.859375 43.085938 44.480469 43.085938 C 42.539062 43.085938 40.707031 42.335938 39.320312 40.949219 C 37.671875 39.300781 36.921875 37.015625 37.269531 34.675781 C 37.335938 34.191406 37.796875 33.84375 38.285156 33.925781 C 38.769531 33.992188 39.113281 34.453125 39.035156 34.941406 C 38.769531 36.714844 39.332031 38.445312 40.578125 39.691406 C 41.824219 40.941406 43.554688 41.492188 45.332031 41.238281 C 45.828125 41.171875 46.28125 41.503906 46.347656 41.988281 C 46.429688 42.484375 46.09375 42.9375 45.609375 43.003906 Z M 51.195312 37.835938 C 51.125 38.285156 50.746094 38.597656 50.304688 38.597656 C 50.261719 38.597656 50.214844 38.597656 50.167969 38.585938 C 49.683594 38.515625 49.335938 38.054688 49.417969 37.570312 C 49.488281 37.109375 49.335938 36.660156 49.015625 36.335938 C 48.691406 36.011719 48.242188 35.875 47.78125 35.933594 C 47.292969 36.011719 46.832031 35.667969 46.765625 35.183594 C 46.695312 34.6875 47.03125 34.234375 47.515625 34.167969 C 48.539062 34.015625 49.554688 34.339844 50.28125 35.066406 C 51.011719 35.78125 51.34375 36.820312 51.195312 37.835938 Z M 51.195312 37.835938 " fill-opacity="1" fill-rule="nonzero"></path><path fill="#c89a69" d="M 6.96875 33.695312 C 2.273438 38.390625 2.273438 46.003906 6.96875 50.710938 C 11.664062 55.410156 19.28125 55.410156 23.988281 50.710938 C 28.683594 46.015625 28.683594 38.402344 23.988281 33.695312 C 19.292969 28.984375 11.664062 28.984375 6.96875 33.695312 Z M 13.972656 34.652344 C 13.972656 34.15625 14.375 33.761719 14.871094 33.761719 C 14.871094 33.761719 14.882812 33.761719 14.882812 33.761719 C 15.378906 33.761719 15.773438 34.179688 15.773438 34.664062 L 15.75 36.449219 L 16.902344 35.308594 C 17.25 34.960938 17.824219 34.960938 18.171875 35.308594 C 18.519531 35.65625 18.519531 36.230469 18.171875 36.578125 L 15.460938 39.277344 C 15.289062 39.449219 15.058594 39.542969 14.824219 39.542969 C 14.710938 39.542969 14.59375 39.519531 14.480469 39.472656 C 14.144531 39.335938 13.925781 39 13.925781 38.644531 Z M 9.230469 45.140625 C 9 45.140625 8.769531 45.046875 8.59375 44.875 C 8.25 44.527344 8.25 43.949219 8.59375 43.605469 L 9.738281 42.460938 L 7.949219 42.484375 C 7.949219 42.484375 7.9375 42.484375 7.9375 42.484375 C 7.441406 42.484375 7.050781 42.09375 7.039062 41.597656 C 7.039062 41.101562 7.429688 40.695312 7.925781 40.695312 L 11.90625 40.652344 C 12.265625 40.664062 12.597656 40.859375 12.738281 41.203125 C 12.875 41.539062 12.808594 41.933594 12.542969 42.1875 L 9.839844 44.886719 C 9.691406 45.046875 9.460938 45.140625 9.230469 45.140625 Z M 20.792969 47.503906 C 18.265625 50.03125 14.386719 50.367188 11.492188 48.542969 L 21.828125 38.203125 C 23.652344 41.101562 23.316406 44.976562 20.792969 47.503906 Z M 20.792969 47.503906 " fill-opacity="1" fill-rule="nonzero"></path></svg>